<?xml version="1.0" encoding="UTF-8"?>
<svg width="1080px" height="137px" viewBox="0 0 450 137" version="1.1" xmlns="http://www.w3.org/2000/svg" xmlns:xlink="http://www.w3.org/1999/xlink">
    <title>stanford-line2-2</title>
    <g id="stanford-line2-2" stroke="none" stroke-width="1" fill="none" fill-rule="evenodd">
        <g>
            <rect id="Rectangle" x="0" y="0" width="450" height="137"></rect>
            <g id="SU_units_2Ln" transform="translate(75.000000, 51.990000)">
                <line x1="91.06" y1="18" x2="91.06" y2="0" id="Path" stroke="#231F20" stroke-width="0.72"></line>
                <path d="M25.32,12.06 C24.4622454,12.2842105 23.6308703,12.5993285 22.84,13 C22.190718,13.3452225 21.800617,14.0357012 21.84,14.77 C21.7931351,15.2267521 21.9580435,15.6798108 22.2875494,15.999568 C22.6170553,16.3193252 23.0748608,16.470557 23.53,16.41 C24.1627499,16.424293 24.7844533,16.2426718 25.31,15.89 L25.31,12.06 L25.32,12.06 Z M22.61,18.01 C19.55,18.01 19.31,15.69 19.31,15.01 C19.2575721,13.626832 20.1582666,12.3873442 21.49,12.01 C23.49,11.27 23.94,11.19 25.32,10.75 L25.32,10.39 C25.3556688,9.96886555 25.3115642,9.54478222 25.19,9.14 C24.8749529,8.28246809 24.0188695,7.74741598 23.11,7.84 C22.2328359,7.82711433 21.413098,8.27493413 20.95,9.02 L20.83,9.25 L20.26,8.91 L20.32,8.74 C20.929716,7.1962078 22.4752035,6.23078519 24.13,6.36 C25.3876536,6.21036986 26.6276654,6.75383181 27.37,7.78 C27.800501,8.69299882 27.9766926,9.70523712 27.88,10.71 C27.88,11.71 27.88,12.77 27.88,13.64 C27.88,14.24 27.88,14.76 27.88,15.08 C27.88,15.88 28.01,16.49 28.68,16.49 C28.8097476,16.5016297 28.9389113,16.4621631 29.04,16.38 L29.23,16.23 L29.6,16.65 L29.48,16.81 C28.9600569,17.5721812 28.0925488,18.0228348 27.17,18.01 C26.3968972,18.0845346 25.6764824,17.6098104 25.44,16.87 C24.6959492,17.6265713 23.6707252,18.039559 22.61,18.01 L22.61,18.01 Z" id="Shape" fill="#000000" fill-rule="nonzero"></path>
                <path d="M3.89,18.01 C2.62930703,18.0388445 1.37247501,17.8597797 0.17,17.48 L-8.52651283e-14,17.43 L-8.52651283e-14,16.61 C-8.52651283e-14,15.51 -8.52651283e-14,15.08 -8.52651283e-14,14.73 L-8.52651283e-14,14.17 L0.67,14.17 L0.67,14.4 C0.686489108,14.8999773 0.865536398,15.3809475 1.18,15.77 C1.91338497,16.378198 2.84848233,16.6887074 3.8,16.64 C5.95,16.64 6.96,15.82 6.96,14.07 C6.96,12.57 6.03,11.95 4.75,11.07 L4.54,10.93 L3.19,10.03 C1.31,8.79 0.36,7.79 0.36,5.8 C0.36,4.8 0.72,1.63998107 5.46,1.63998107 C6.63524516,1.63847784 7.80881405,1.72875237 8.97,1.91 L9.17,1.91 L9.17,2.11 C9.17,2.11 9.17,2.74 9.17,3.41 C9.17,4.08 9.17,4.41 9.17,4.87 L9.17,5.22 L8.59,5.22 L8.59,5.01 C8.58554676,4.50336631 8.38897746,4.01730404 8.04,3.65 C7.30078154,3.13807701 6.40569763,2.90103898 5.51,2.98 C3,2.98 2.71,4.27 2.71,5.23 C2.71,6.57 3.39,7.02 4.88,8 L6.59,9.14 C8.05,10.14 9.43,11.03 9.43,13.45 C9.43,17.54 5.61,17.98 3.96,17.98 L3.89,18.01 Z" id="Path" fill="#000000" fill-rule="nonzero"></path>
                <path d="M15.12,18.01 C13.37,18.01 12.4,17.38 11.97,16.01 C11.8168603,15.2501047 11.7564193,14.4744449 11.79,13.7 C11.79,11.9 11.79,10.45 11.79,8.77 L11.79,8.01 L10.35,8.01 L10.35,7.57 L10.49,7.51 C10.9486737,7.33851812 11.3773113,7.09551098 11.76,6.79 C12.5130155,6.1476789 13.140301,5.37120121 13.61,4.5 L13.87,4.07 L14.36,4.07 L14.36,6.61 L18.21,6.61 L18.21,8.01 L14.36,8.01 L14.36,13.95 C14.36,15.72 14.69,16.73 16.36,16.73 C16.8375896,16.7329614 17.3095619,16.6269387 17.74,16.42 L17.97,16.3 L18.17,16.76 L18.08,16.87 C17.3139539,17.7036319 16.2091893,18.1418551 15.08,18.06 L15.12,18.01 Z" id="Path" fill="#000000" fill-rule="nonzero"></path>
                <path d="M30.49,17.9 L30.49,17.37 L30.71,17.37 C31.090242,17.3433695 31.4468505,17.1757635 31.71,16.9 C32.06,16.51 32.08,15.55 32.08,13.62 L32.08,10.39 C32.08,9 32.08,8.39 31.86,8.11 C31.598399,7.84203462 31.2339472,7.69989842 30.86,7.72 L30.76,7.72 L30.55,7.72 L30.55,7.01 L30.8,7.01 L30.98,7.01 C31.6516691,6.99306885 32.3207106,6.91947428 32.98,6.79 C33.3974819,6.72926484 33.8005952,6.59376456 34.17,6.39 L34.3,6.33 L34.52,6.46 L34.52,7.36 C35.4716326,6.66223634 36.6199739,6.28412398 37.8,6.28 C39.8,6.28 41.17,7.28 41.55,8.96 C41.6502273,9.62183332 41.697045,10.2906576 41.69,10.96 L41.69,14.26 C41.69,16.12 41.77,16.65 42.12,16.97 C42.3717788,17.1607117 42.6746532,17.2721138 42.99,17.29 L43.21,17.29 L43.21,17.81 L42.65,17.81 C41.84,17.81 41.14,17.73 40.41,17.73 C39.555481,17.7165796 38.7008683,17.7499629 37.85,17.83 L37.58,17.83 L37.58,17.31 L37.79,17.31 C38.1330867,17.287888 38.459599,17.1544744 38.72,16.93 C39.0623973,16.3224086 39.2090635,15.6239982 39.14,14.93 C39.14,14.81 39.14,14.68 39.14,14.54 C39.14,14.12 39.14,13.23 39.14,12.54 C39.1644957,11.6960215 39.1411249,10.8513329 39.07,10.01 C39.077877,9.39330294 38.8180612,8.80346714 38.3577339,8.39300869 C37.8974067,7.98255023 37.2817658,7.79177045 36.67,7.87 C35.9386867,7.85044278 35.2138718,8.01189444 34.56,8.34 L34.56,14.28 C34.56,16.14 34.63,16.67 34.98,16.99 C35.235439,17.1809642 35.5415625,17.2922818 35.86,17.31 L36.08,17.31 L36.08,17.83 L35.48,17.83 C34.7,17.83 34.02,17.75 33.3,17.75 C32.4355006,17.737081 31.5709296,17.7704622 30.71,17.85 L30.45,17.85 L30.49,17.9 Z" id="Path" fill="#000000" fill-rule="nonzero"></path>
                <path d="M44.59,17.9 L44.59,17.36 L44.81,17.36 C45.1915093,17.3383046 45.5498415,17.1698884 45.81,16.89 C46.16,16.5 46.18,15.55 46.18,13.62 L46.18,8.01 L44.71,8.01 L44.71,7.38 L44.86,7.32 C45.3271903,7.14200969 45.7705594,6.90688973 46.18,6.62 C46.1575888,5.61708376 46.2144322,4.61396409 46.35,3.62 C46.8,1.29 48.35,0.1 50.88,0.1 C51.8700583,0.0826389168 52.8388634,0.388023151 53.64,0.97 L53.73,1.04 L53.73,1.28 L52.61,2.83 L52.37,2.83 L52.31,2.69 C52.0441077,1.87126177 51.2704873,1.32565577 50.41,1.35 C49.9920762,1.33915633 49.5852852,1.48545837 49.27,1.76 C48.78,2.25 48.7,2.97 48.7,4.42 L48.7,6.6 L51.22,6.6 L51.22,8.01 L48.7,8.01 L48.7,14.28 C48.6072296,15.1242736 48.6889186,15.9786047 48.94,16.79 C49.26,17.27 50.22,17.3 50.5,17.3 L50.74,17.3 L50.74,17.9 L50.49,17.9 C49.25,17.83 48.32,17.8 47.65,17.8 C46.7155797,17.7863007 45.7810624,17.8196763 44.85,17.9 L44.59,17.9 L44.59,17.9 Z" id="Path" fill="#000000" fill-rule="nonzero"></path>
                <path d="M57.73,7.6 C57.1521761,7.5680789 56.5827648,7.74957874 56.13,8.11 C55.22,8.87 54.76,10.26 54.76,12.23 C54.76,12.99 54.9,16.79 57.68,16.79 C58.2600347,16.8153152 58.8303309,16.6346624 59.29,16.28 C60.19,15.52 60.65,14.13 60.65,12.16 C60.65,11.4 60.51,7.6 57.73,7.6 L57.73,7.6 Z M57.59,18.09 C54.14,18.09 52.08,15.95 52.08,12.35 C52.08,9.55 53.58,6.29 57.82,6.29 C61.27,6.29 63.33,8.44 63.33,12.04 C63.33,14.83 61.83,18.04 57.59,18.04 L57.59,18.09 Z" id="Shape" fill="#000000" fill-rule="nonzero"></path>
                <path d="M64.42,17.9 L64.42,17.33 L64.65,17.33 C65.0305817,17.3130051 65.3894471,17.147927 65.65,16.87 C66,16.48 66.01,15.55 66.01,13.62 L66.01,10.39 C66.01,9 66.01,8.39 65.8,8.11 C65.5369544,7.84422544 65.173527,7.70248875 64.8,7.72 L64.71,7.72 L64.49,7.72 L64.49,7.01 L64.92,7.01 C65.591495,6.99812898 66.2606843,6.92786409 66.92,6.8 C67.3342837,6.74015393 67.7402937,6.63277939 68.13,6.48 L68.27,6.42 L68.47,6.52 L68.47,7.52 C69.1613015,6.8314215 70.0943296,6.44026741 71.07,6.43 C71.7564633,6.39737175 72.4304063,6.62201941 72.96,7.06 L73.04,7.13 L73.04,7.49 L72.04,9.23 L71.58,9.23 L71.51,9.12 C71.1120357,8.51147038 70.4151623,8.16686267 69.69,8.22 C69.2507645,8.20843675 68.8183665,8.33048458 68.45,8.57 L68.45,14.27 C68.3514705,15.108306 68.4367825,15.958014 68.7,16.76 C69.02,17.23 69.97,17.27 70.26,17.27 L70.49,17.27 L70.49,17.89 L70.25,17.89 C69,17.82 68.07,17.79 67.41,17.79 C66.4755797,17.7763007 65.5410624,17.8096763 64.61,17.89 L64.34,17.89 L64.42,17.9 Z" id="Path" fill="#000000" fill-rule="nonzero"></path>
                <path d="M79.58,7.67 C77.38,7.67 76.31,9.18 76.31,12.28 C76.31,13.53 76.66,16.45 79.94,16.45 L80.07,16.45 C80.6976947,16.4648859 81.3172525,16.3056699 81.86,15.99 L81.86,8.43 C81.2375528,7.88647721 80.4243853,7.61302266 79.6,7.67 L79.58,7.67 Z M82.19,18.06 L81.89,17.96 L81.89,16.96 C80.9751111,17.6383168 79.8688692,18.009398 78.73,18.02 C75.63,18.02 73.6199725,15.87 73.6199725,12.53 C73.6171991,11.4979066 73.8283041,10.4764307 74.24,9.53 C75.2158323,7.46148406 77.3460702,6.18887443 79.63,6.31 C80.3716862,6.30918698 81.1117409,6.37950892 81.84,6.52 L81.84,4.12 C81.9337697,3.29355984 81.8589274,2.45668676 81.62,1.66 C81.3576693,1.39313922 80.9937363,1.25120536 80.62,1.27 L80.52,1.27 L80.31,1.27 L80.31,0.77 L80.55,0.77 C81.3616449,0.705133694 82.1693909,0.598324307 82.97,0.45 C83.3505188,0.397874752 83.7254331,0.310841072 84.09,0.19 L84.2,0.19 L84.39,0.31 L84.39,0.42 C84.31,1.35 84.3,3.34 84.3,4.83 L84.3,14.01 C84.2089189,14.8530075 84.2836561,15.7056911 84.52,16.52 C84.7795434,16.7931203 85.1434288,16.9423133 85.52,16.93 L85.83,16.93 L85.83,17.53 L85.59,17.53 C84.8554525,17.5609116 84.1238081,17.6410918 83.4,17.77 C83.0055429,17.8172569 82.6168904,17.9043686 82.24,18.03 L82.14,18.03 L82.19,18.06 Z" id="Shape" fill="#000000" fill-rule="nonzero"></path>
                <g id="%PLACEHOLDER2%" transform="translate(97.070000, 3.010000)" fill="#000000" fill-rule="nonzero" font-family="SourceSansPro-Regular, Source Sans Pro" font-size="15" font-weight="normal">
                    <g id="Group">
                        <text id="%PLACEHOLDER2%">
                            <tspan x="0" y="15">%PLACEHOLDER2%</tspan>
                        </text>
                    </g>
                </g>
                <g id="%PLACEHOLDER1%" transform="translate(0.070000, 25.010000)" fill="#000000" fill-rule="nonzero" font-family="SourceSansPro-Semibold, Source Sans Pro" font-size="10" font-weight="500">
                    <g id="Group">
                        <text id="%PLACEHOLDER1%">
                            <tspan x="0" y="10">%PLACEHOLDER1%</tspan>
                        </text>
                    </g>
                </g>
            </g>
        </g>
    </g>
</svg>