<?xml version="1.0" encoding="UTF-8"?>
<svg width="800px" height="137px" viewBox="0 0 450 137" version="1.1" xmlns="http://www.w3.org/2000/svg" xmlns:xlink="http://www.w3.org/1999/xlink">
    <title>stanford-line2-6</title>
    <g id="stanford-line2-6" stroke="none" stroke-width="1" fill="none" fill-rule="evenodd">
        <g>
            <rect id="Rectangle" x="0" y="0" width="450" height="137"></rect>
            <g id="SU_units_2Ln" transform="translate(85.000000, 56.000000)">
                <line x1="90.3072687" y1="21.31" x2="90.3072687" y2="1.68" id="Path" stroke="#231F20" stroke-width="0.72"></line>
                <path d="M25.1464758,15.37 C24.2984381,15.6009892 23.4750648,15.9158484 22.688326,16.31 C22.0431766,16.6586225 21.6566461,17.3527627 21.6971366,18.09 C21.6539446,18.5451046 21.8188362,18.9952373 22.1450049,19.3126224 C22.4711736,19.6300075 22.923007,19.7799916 23.3722467,19.72 C24.0000265,19.7389976 24.6176482,19.556965 25.1365639,19.2 L25.1365639,15.37 L25.1464758,15.37 Z M22.4702643,21.32 C19.4372247,21.32 19.1993392,18.99 19.1993392,18.32 C19.1473732,16.936832 20.0401321,15.6973442 21.3601322,15.32 C23.342511,14.58 23.7885463,14.49 25.1563877,14.06 L25.1563877,13.7 C25.1931995,13.2788528 25.1494548,12.8544922 25.027533,12.45 C24.7197012,11.59241 23.8757598,11.053574 22.9757709,11.14 C22.1028265,11.1235742 21.2857329,11.5718419 20.8248899,12.32 L20.7059471,12.55 L20.1508811,12.21 L20.2004405,12.04 C20.8081149,10.5001531 22.3391871,9.53928813 23.9768722,9.67 C25.2030056,9.50386065 26.4237418,10.0109848 27.1784141,11 C27.6041823,11.9132986 27.7787764,12.9252753 27.6839207,13.93 C27.6839207,14.93 27.6839207,15.99 27.6839207,16.86 C27.6839207,17.46 27.6839207,17.98 27.6839207,18.3 C27.6839207,19.1 27.8127753,19.72 28.4768722,19.72 C28.6049368,19.7268181 28.7312844,19.6878687 28.8337004,19.61 L29.0220264,19.45 L29.3887665,19.87 L29.2698238,20.03 C28.7817543,20.7945318 27.9506199,21.2662006 27.0495595,21.29 C26.2823025,21.3684806 25.5659874,20.8922622 25.3348018,20.15 C24.5876276,20.9322011 23.546365,21.3574975 22.4702643,21.32 L22.4702643,21.32 Z" id="Shape" fill="#A90533" fill-rule="nonzero"></path>
                <path d="M3.91519824,21.29 C2.6614667,21.3214118 1.41148833,21.1388412 0.218061674,20.75 L0.0495594714,20.75 L0.0495594714,19.93 C0.0495594714,18.83 0.0495594714,18.4 1.47899314e-13,18.06 L1.47899314e-13,17.49 L0.664096916,17.49 L0.664096916,17.73 C0.680414746,18.2269544 0.858012224,18.7047574 1.16960352,19.09 C1.89652696,19.698198 2.82338557,20.0087074 3.76651982,19.96 C5.89757709,19.96 6.89867841,19.15 6.89867841,17.4 C6.89867841,15.9 5.97687225,15.27 4.70814978,14.4 L4.5,14.26 L3.16189427,13.36 C1.29845815,12.11 0.356828194,11.11 0.356828194,9.12 C0.356828194,8.12 0.713656388,4.96997377 5.41189427,4.96997377 C6.57641785,4.96823885 7.73941246,5.05515235 8.89096916,5.23 L9.08920705,5.23 L9.08920705,5.43 C9.08920705,5.43 9.08920705,6.05 9.08920705,6.72 C9.08920705,7.39 9.08920705,7.72 9.08920705,8.18 L9.08920705,8.54 L8.51431718,8.54 L8.51431718,8.32 C8.51241798,7.8099045 8.31740151,7.31981825 7.969163,6.95 C7.23645747,6.43807701 6.34925976,6.20103898 5.46145374,6.28 C2.97356828,6.28 2.68612335,7.57 2.68612335,8.54 C2.68612335,9.87 3.36013216,10.32 4.83700441,11.31 L6.53193833,12.44 C7.97907489,13.44 9.3469163,14.33 9.3469163,16.75 C9.3469163,20.84 5.56057269,21.29 3.93502203,21.29 L3.91519824,21.29 Z" id="Path" fill="#A90533" fill-rule="nonzero"></path>
                <path d="M15.0363436,21.36 C13.3017621,21.36 12.3403084,20.73 11.9140969,19.36 C11.770982,18.6023506 11.7144454,17.8306443 11.7455947,17.06 C11.7455947,15.25 11.7455947,13.8 11.7455947,12.12 L11.7455947,11.34 L10.30837,11.34 L10.30837,10.89 L10.4471366,10.83 C10.9017691,10.6585181 11.3266301,10.415511 11.7059471,10.11 C12.4607339,9.46552121 13.0864942,8.68145935 13.5495595,7.8 L13.8072687,7.37 L14.2929515,7.37 L14.2929515,9.91 L18.1090308,9.91 L18.1090308,11.32 L14.2830396,11.32 L14.2830396,17.25 C14.2830396,19.02 14.6101322,20.03 16.2654185,20.03 C16.7371523,20.0276885 17.2031502,19.9254841 17.6332599,19.73 L17.8612335,19.61 L18.0594714,20.07 L17.9702643,20.18 C17.2057743,21.0050254 16.11344,21.438496 14.996696,21.36 L15.0363436,21.36 Z" id="Path" fill="#A90533" fill-rule="nonzero"></path>
                <path d="M30.2709251,21.22 L30.2709251,20.68 L30.4889868,20.68 C30.8652241,20.6589288 31.219496,20.4945152 31.4801762,20.22 C31.8270925,19.83 31.8469163,18.86 31.8469163,16.94 L31.8469163,13.71 C31.9449445,12.9398204 31.8704268,12.1572642 31.6288546,11.42 C31.3667518,11.1563446 31.007491,11.0149875 30.6376652,11.03 L30.5385463,11.03 L30.3303965,11.03 L30.3303965,10.39 L30.7566079,10.39 C31.4218505,10.3727662 32.0847047,10.3025478 32.7389868,10.18 C33.153073,10.1146826 33.5524154,9.97587108 33.9185022,9.77 L34.0473568,9.71 L34.2654185,9.85 L34.2654185,10.75 C35.2048628,10.0436386 36.344877,9.66142487 37.5165198,9.66 C39.4988987,9.66 40.8568282,10.66 41.2334802,12.34 C41.3321097,13.0019128 41.3785109,13.6706793 41.3722467,14.34 L41.3722467,17.64 C41.3722467,19.5 41.4515419,20.03 41.7984581,20.36 C42.0491691,20.5471383 42.3492773,20.6550239 42.660793,20.67 L42.8788546,20.67 L42.8788546,21.2 L42.3237885,21.2 C41.5209251,21.2 40.8270925,21.12 40.1035242,21.12 C39.3799559,21.12 38.5572687,21.12 37.5660793,21.21 L37.30837,21.21 L37.30837,20.68 L37.5066079,20.68 C37.8492151,20.6484126 38.1741829,20.512387 38.438326,20.29 C38.7695123,19.6795307 38.9111046,18.9826971 38.8447137,18.29 C38.8447137,18.17 38.8447137,18.04 38.8447137,17.9 C38.8447137,17.48 38.8447137,16.59 38.8447137,15.9 C38.8608037,15.0387933 38.8277092,14.1773665 38.7455947,13.32 C38.7563371,12.7042073 38.5011152,12.1141405 38.0463232,11.7033012 C37.5915313,11.2924619 36.9821304,11.1014661 36.376652,11.18 C35.6485283,11.1596169 34.9266941,11.3210686 34.2753304,11.65 L34.2753304,17.59 C34.2753304,19.45 34.3447137,19.98 34.69163,20.31 C34.9459553,20.4973948 35.2492865,20.6052 35.5638767,20.62 L35.7819383,20.62 L35.7819383,21.15 L35.1872247,21.15 C34.4140969,21.1 33.7400881,21.07 33.0264317,21.07 C32.3127753,21.07 31.4603524,21.07 30.4592511,21.16 L30.2015419,21.16 L30.2709251,21.22 Z" id="Path" fill="#A90533" fill-rule="nonzero"></path>
                <path d="M44.2764317,21.22 L44.2764317,20.67 L44.4944934,20.67 C44.8707307,20.6489288 45.2250026,20.4845152 45.4856828,20.21 C45.842511,19.82 45.8524229,18.86 45.8524229,16.94 L45.8524229,11.34 L44.3656388,11.34 L44.3656388,10.7 L44.5143172,10.64 C44.9792326,10.4661302 45.419202,10.2307392 45.8226872,9.94 C45.8010884,8.93709449 45.8574283,7.93402352 45.9911894,6.94 C46.4372247,4.61 47.9735683,3.43 50.4812775,3.43 C51.4614885,3.4097371 52.4216525,3.71157804 53.2169604,4.29 L53.3061674,4.36 L53.3061674,4.6 L52.2059471,6.14 L51.938326,6.14 L51.8788546,6 C51.6145614,5.1831365 50.8468179,4.64093899 49.9955947,4.67 C49.5825136,4.65541077 49.1791213,4.79821006 48.8656388,5.07 C48.3799559,5.56 48.3006608,6.29 48.3006608,7.73 L48.3006608,9.91 L50.8182819,9.91 L50.8182819,11.32 L48.3204846,11.32 L48.3204846,17.58 C48.2285315,18.4242736 48.3095008,19.2786047 48.55837,20.09 C48.8755507,20.57 49.8270925,20.6 50.1046256,20.6 L50.342511,20.6 L50.342511,21.21 L50.0947137,21.21 C48.8656388,21.15 47.9438326,21.12 47.2797357,21.12 C46.4471366,21.12 45.5055066,21.12 44.5044053,21.21 L44.246696,21.21 L44.2764317,21.22 Z" id="Path" fill="#A90533" fill-rule="nonzero"></path>
                <path d="M57.2709251,10.91 C56.6981921,10.8780789 56.1337977,11.0595787 55.685022,11.42 C54.7830396,12.18 54.3270925,13.57 54.3270925,15.54 C54.3270925,16.3 54.465859,20.1 57.2213656,20.1 C57.7968643,20.129759 58.3636279,19.9486293 58.8171806,19.59 C59.7092511,18.83 60.1651982,17.44 60.1651982,15.47 C60.1651982,14.71 60.0264317,10.91 57.2709251,10.91 L57.2709251,10.91 Z M57.1618943,21.41 C53.7422907,21.41 51.7004405,19.26 51.7004405,15.66 C51.7004405,12.87 53.1872247,9.6 57.3997797,9.6 C60.8193833,9.6 62.8612335,11.75 62.8612335,15.35 C62.8612335,18.14 61.3645374,21.41 57.1618943,21.41 L57.1618943,21.41 Z" id="Shape" fill="#A90533" fill-rule="nonzero"></path>
                <path d="M63.9118943,21.22 L63.9118943,20.65 L64.1299559,20.65 C64.5081039,20.6283046 64.863279,20.4598884 65.1211454,20.18 C65.4680617,19.79 65.4878855,18.86 65.4878855,16.94 L65.4878855,13.71 C65.5859137,12.9398204 65.511396,12.1572642 65.2698238,11.42 C65.0070538,11.1573785 64.6482573,11.016204 64.2786344,11.03 L64.1894273,11.03 L63.9713656,11.03 L63.9713656,10.35 L64.3975771,10.35 C65.0633604,10.3335481 65.7265473,10.259949 66.3799559,10.13 C66.7937316,10.0697841 67.1994061,9.9624318 67.589207,9.81 L67.7180617,9.75 L67.9162996,9.86 L67.9162996,10.86 C68.6181315,10.201888 69.545278,9.84350194 70.503304,9.86 C71.1843883,9.8224137 71.8541376,10.0476479 72.376652,10.49 L72.4559471,10.56 L72.4559471,10.91 L71.4647577,12.66 L71.0385463,12.66 L70.969163,12.55 C70.5771522,11.9376574 69.8859627,11.5889907 69.1651982,11.64 C68.7288736,11.6320309 68.3003825,11.7575373 67.9361233,12 L67.9361233,17.69 C67.8384619,18.528306 67.9230223,19.378014 68.1839207,20.18 C68.5011013,20.65 69.4427313,20.69 69.7301762,20.69 L70.0473568,20.69 L70.0473568,21.32 L69.7995595,21.32 C68.5605727,21.26 67.6486784,21.23 66.9845815,21.23 C66.1519824,21.23 65.2103524,21.23 64.2092511,21.32 L63.9515419,21.32 L63.9118943,21.22 Z" id="Path" fill="#A90533" fill-rule="nonzero"></path>
                <path d="M78.9680617,11 C76.7874449,11 75.7268722,12.51 75.7268722,15.61 C75.7268722,16.86 76.0737885,19.79 79.3248899,19.79 L79.4339207,19.79 C80.0554998,19.7998154 80.6682739,19.6409429 81.2081498,19.33 L81.2081498,11.76 C80.5911867,11.2164772 79.7851837,10.9430227 78.9680617,11 Z M81.5550661,21.39 L81.2577093,21.29 L81.2577093,20.29 C80.3531498,20.9726933 79.2551918,21.3442695 78.1255507,21.35 C75.0528634,21.35 73.0604918,19.2 73.0604918,15.87 C73.0557677,14.8377012 73.2650982,13.815808 73.6751101,12.87 C74.6294292,10.8111036 76.7172434,9.53307975 78.9680617,9.63 C79.7038217,9.62654782 80.4379441,9.70027747 81.1585903,9.85 L81.1585903,7.44 C81.2520457,6.62081296 81.1812592,5.79103013 80.9504405,5 C80.6904211,4.73313922 80.3296946,4.59120536 79.9592511,4.61 L79.8601322,4.61 L79.6519824,4.61 L79.6519824,4.1 L79.9592511,4.1 C80.7637449,4.03513369 81.5643742,3.92832431 82.3579295,3.78 C82.7350957,3.72787475 83.1067068,3.64084107 83.4680617,3.52 L83.5770925,3.52 L83.7654185,3.64 L83.7654185,3.75 C83.6861233,4.68 83.6762115,6.67 83.6762115,8.16 L83.6762115,17.38 C83.5854342,18.2196944 83.6595325,19.0692058 83.8942731,19.88 C84.1492617,20.1564464 84.5115102,20.3062884 84.8854626,20.29 L85.1927313,20.29 L85.1927313,20.9 L84.9151982,20.9 C84.1875997,20.931139 83.4626288,21.0079542 82.7444934,21.13 C82.3535116,21.1772569 81.9682835,21.2643686 81.5947137,21.39 L81.4955947,21.39 L81.5550661,21.39 Z" id="Shape" fill="#A90533" fill-rule="nonzero"></path>
                <g id="%PLACEHOLDER1%" transform="translate(94.827093, 0.000000)" fill="#231F20" fill-rule="nonzero" font-family="SourceSansPro-Regular, Source Sans Pro" font-size="8" font-weight="normal">
                    <g id="Group">
                        <text id="%PLACEHOLDER1%">
                            <tspan x="0" y="8">%PLACEHOLDER1%</tspan>
                        </text>
                    </g>
                </g>
                <g id="%PLACEHOLDER2%" transform="translate(95.670000, 8.000000)" fill="#231F20" fill-rule="nonzero" font-family="SourceSansPro-Regular, Source Sans Pro" font-size="13" font-weight="normal">
                    <g id="Group">
                        <text id="%PLACEHOLDER2%">
                            <tspan x="0" y="13">%PLACEHOLDER2%</tspan>
                        </text>
                    </g>
                </g>
            </g>
        </g>
    </g>
</svg>