<?xml version="1.0" encoding="UTF-8"?>
<svg width="800px" height="137px" viewBox="0 0 450 137" version="1.1" xmlns="http://www.w3.org/2000/svg" xmlns:xlink="http://www.w3.org/1999/xlink">
    <title>stanford-line2-3</title>
    <g id="stanford-line2-3" stroke="none" stroke-width="1" fill="none" fill-rule="evenodd">
        <g>
            <rect id="Rectangle" x="0" y="0" width="450" height="137"></rect>
            <g id="SU_units_2Ln" transform="translate(162.000000, 29.000000)">
                <path d="M26.12,11.9409577 C25.2644242,12.1719469 24.433732,12.486806 23.64,12.8809577 C22.989116,13.2295802 22.5991496,13.9237203 22.64,14.6609577 C22.5970126,15.1140895 22.7621007,15.5622288 23.0887764,15.879182 C23.4154521,16.1961352 23.8683734,16.3476121 24.32,16.2909577 C24.95336,16.3099553 25.5764717,16.1279227 26.1,15.7709577 L26.1,11.9409577 L26.12,11.9409577 Z M23.42,17.8809577 C20.36,17.8809577 20.12,15.5609577 20.12,14.8809577 C20.0675721,13.4977897 20.9682666,12.2583018 22.3,11.8809577 C24.3,11.1409577 24.74,11.0509577 26.12,10.6209577 L26.12,10.2609577 C26.1563971,9.83981658 26.1122782,9.41559656 25.99,9.01095768 C25.6758926,8.15733114 24.8253366,7.62316553 23.92,7.71095768 C23.0408414,7.68993406 22.2173278,8.13981651 21.76,8.89095768 L21.64,9.11095768 L21.07,8.78095768 L21.13,8.60095768 C21.7404539,7.0589197 23.2869512,6.09692538 24.94,6.23095768 C26.1729943,6.06233672 27.4027934,6.56110974 28.17,7.54095768 C28.6155783,8.47421846 28.7954913,9.51217817 28.69,10.5409577 C28.69,11.5409577 28.69,12.6009577 28.69,13.4709577 C28.69,14.0709577 28.69,14.5909577 28.69,14.9109577 C28.69,15.7109577 28.82,16.3209577 29.48,16.3209577 C29.6158309,16.3317426 29.7509341,16.2926338 29.86,16.2109577 L30.04,16.0609577 L30.41,16.4809577 L30.29,16.6409577 C29.7975922,17.4054895 28.9590698,17.8771583 28.05,17.9009577 C27.2322293,18.0205179 26.4544009,17.509128 26.24,16.7109577 C25.5004079,17.4775239 24.4749882,17.9014607 23.41,17.8809577 L23.42,17.8809577 Z" id="Shape" fill="#A90533" fill-rule="nonzero"></path>
                <path d="M4.72,17.8509577 C3.45599606,17.8803559 2.19578472,17.701291 0.99,17.3209577 L0.82,17.3209577 L0.82,16.5009577 C0.82,15.4009577 0.82,14.9709577 0.82,14.6209577 L0.82,14.0509577 L1.48,14.0509577 L1.48,14.2909577 C1.5028,14.7866331 1.68125454,15.2625118 1.99,15.6509577 C2.72579488,16.2538358 3.66005178,16.5605002 4.61,16.5109577 C6.76,16.5109577 7.76,15.7009577 7.76,13.9509577 C7.76,12.4609577 6.84,11.8309577 5.56,10.9509577 L5.35,10.8109577 L4,9.91095768 C2.12,8.66095768 1.17,7.67095768 1.17,5.68095768 C1.17,4.68095768 1.54,1.53094701 6.27,1.53094701 C7.44485155,1.52983837 8.61813576,1.61674831 9.78,1.79095768 L9.98,1.79095768 L9.98,1.98095768 C9.98,1.98095768 9.98,2.61095768 9.98,3.28095768 C9.98,3.95095768 9.98,4.28095768 9.98,4.74095768 L9.98,5.09095768 L9.41,5.09095768 L9.41,4.87095768 C9.37931077,4.36508264 9.15771461,3.88972315 8.79,3.54095768 C8.04379241,3.02713529 7.14297126,2.78691632 6.24,2.86095768 C3.73,2.86095768 3.44,4.14095768 3.44,5.11095768 C3.44,6.44095768 4.12,6.89095768 5.61,7.88095768 L7.32,9.01095768 C8.78,10.0109577 10.15,10.9009577 10.15,13.3209577 C10.15,17.4109577 6.34,17.8509577 4.7,17.8509577 L4.72,17.8509577 Z" id="Path" fill="#A90533" fill-rule="nonzero"></path>
                <path d="M15.93,17.9309577 C14.19,17.9309577 13.22,17.3009577 12.78,15.9309577 C12.635613,15.1733083 12.5785738,14.4016019 12.61,13.6309577 C12.61,11.8209577 12.61,10.3709577 12.61,8.69095768 L12.61,7.91095768 L11.16,7.91095768 L11.16,7.44095768 L11.31,7.39095768 C11.7639961,7.21606174 12.1888301,6.97329942 12.57,6.67095768 C13.3212069,6.02687791 13.9482014,5.25076035 14.42,4.38095768 L14.68,3.95095768 L15.17,3.95095768 L15.17,6.54095768 L19.02,6.54095768 L19.02,7.94095768 L15.17,7.94095768 L15.17,13.8709577 C15.17,15.6409577 15.5,16.6509577 17.17,16.6509577 C17.6475896,16.6539191 18.1195619,16.5478963 18.55,16.3409577 L18.78,16.2209577 L18.98,16.6809577 L18.88,16.7909577 C18.117434,17.6296336 17.010113,18.0688709 15.88,17.9809577 L15.93,17.9309577 Z" id="Path" fill="#A90533" fill-rule="nonzero"></path>
                <path d="M31.29,17.7809577 L31.29,17.2509577 L31.51,17.2509577 C31.8915093,17.2292622 32.2498415,17.0608461 32.51,16.7809577 C32.86,16.3909577 32.88,15.4309577 32.88,13.5109577 L32.88,10.2609577 C32.9788996,9.49077811 32.9037195,8.70822188 32.66,7.97095768 C32.3945459,7.70990938 32.0318274,7.57207633 31.66,7.59095768 L31.56,7.59095768 L31.35,7.59095768 L31.35,6.94095768 L31.6,6.94095768 L31.78,6.94095768 C32.4516691,6.92402653 33.1207106,6.85043196 33.78,6.72095768 C34.196235,6.65507165 34.5984777,6.51986404 34.97,6.32095768 L35.1,6.26095768 L35.32,6.39095768 L35.32,7.29095768 C36.2670122,6.59039841 37.4120547,6.20871756 38.59,6.20095768 C40.59,6.20095768 41.96,7.20095768 42.34,8.88095768 C42.4395063,9.54287051 42.4863199,10.211637 42.48,10.8809577 L42.48,14.1809577 C42.48,16.0409577 42.56,16.5709577 42.91,16.8909577 C43.1626398,17.0800893 43.4650212,17.1913101 43.78,17.2109577 L44,17.2109577 L44,17.7309577 L43.45,17.7309577 C42.63,17.7309577 41.93,17.6509577 41.2,17.6509577 C40.3454831,17.6377167 39.4908802,17.6710997 38.64,17.7509577 L38.38,17.7509577 L38.38,17.2309577 L38.58,17.2309577 C38.9245438,17.2022314 39.2522871,17.0697394 39.52,16.8509577 C39.8541302,16.2404884 39.9969811,15.5436548 39.93,14.8509577 C39.93,14.7309577 39.93,14.6009577 39.93,14.4609577 C39.93,14.0409577 39.93,13.1509577 39.93,12.4609577 C39.9460345,11.599753 39.9126463,10.7383376 39.83,9.88095768 C39.8408378,9.26516502 39.5833473,8.67509814 39.1245128,8.26425884 C38.6656782,7.85341954 38.0508604,7.66242375 37.44,7.74095768 C36.7070327,7.71622582 35.980138,7.88158573 35.33,8.22095768 L35.33,14.1509577 C35.33,16.0109577 35.4,16.5409577 35.75,16.8609577 C36.0026398,17.0500893 36.3050212,17.1613101 36.62,17.1809577 L36.84,17.1809577 L36.84,17.7009577 L36.24,17.7009577 C35.46,17.7009577 34.79,17.6209577 34.07,17.6209577 C33.2055006,17.6080387 32.3409296,17.6414198 31.48,17.7209577 L31.22,17.7209577 L31.29,17.7809577 Z" id="Path" fill="#A90533" fill-rule="nonzero"></path>
                <path d="M45.38,17.7809577 L45.38,17.2309577 L45.6,17.2309577 C45.9815093,17.2092622 46.3398415,17.0408461 46.6,16.7609577 C46.95,16.3709577 46.97,15.4209577 46.97,13.5009577 L46.97,7.90095768 L45.5,7.90095768 L45.5,7.26095768 L45.64,7.20095768 C46.1112114,7.02922385 46.5582484,6.7973024 46.97,6.51095768 C46.9475888,5.50804145 47.0044322,4.50492178 47.14,3.51095768 C47.58,1.18095768 49.14,0.000957683155 51.67,0.000957683155 C52.6558342,-0.0193111529 53.6213615,0.282635559 54.42,0.860957683 L54.51,0.930957683 L54.51,1.17095768 L53.38,2.72095768 L53.12,2.72095768 L53.05,2.58095768 C52.7833575,1.76409418 52.0087896,1.22189668 51.15,1.25095768 C50.7335462,1.23831617 50.3272525,1.38087535 50.01,1.65095768 C49.52,2.14095768 49.44,2.86095768 49.44,4.31095768 L49.44,6.54095768 L51.96,6.54095768 L51.96,7.94095768 L49.44,7.94095768 L49.44,14.2009577 C49.3423652,15.0458713 49.4276271,15.9019014 49.69,16.7109577 C50,17.1909577 50.96,17.2209577 51.24,17.2209577 L51.48,17.2209577 L51.48,17.8209577 L51.24,17.8209577 C50,17.7509577 49.07,17.7209577 48.41,17.7209577 C47.4755797,17.7072584 46.5410624,17.740634 45.61,17.8209577 L45.35,17.8209577 L45.38,17.7809577 Z" id="Path" fill="#A90533" fill-rule="nonzero"></path>
                <path d="M58.51,7.48095768 C57.9310213,7.45279146 57.3617952,7.63778993 56.91,8.00095768 C56,8.76095768 55.54,10.1409577 55.54,12.1109577 C55.54,12.8709577 55.68,16.6709577 58.46,16.6709577 C59.0369941,16.6965026 59.6042221,16.5156987 60.06,16.1609577 C60.97,15.3909577 61.43,14.0109577 61.43,12.0409577 C61.43,11.2809577 61.28,7.48095768 58.51,7.48095768 L58.51,7.48095768 Z M58.37,17.9709577 C54.92,17.9709577 52.86,15.8309577 52.86,12.2309577 C52.86,9.44095768 54.36,6.23095768 58.6,6.23095768 C62.05,6.23095768 64.11,8.38095768 64.11,11.9709577 C64.11,14.7609577 62.6,18.0209577 58.37,18.0209577 L58.37,17.9709577 Z" id="Shape" fill="#A90533" fill-rule="nonzero"></path>
                <path d="M65.24,17.7809577 L65.24,17.2109577 L65.46,17.2109577 C65.8405817,17.1939628 66.1994471,17.0288847 66.46,16.7509577 C66.81,16.3609577 66.83,15.4309577 66.83,13.5109577 L66.83,10.2609577 C66.9288996,9.49077811 66.8537195,8.70822188 66.61,7.97095768 C66.3432164,7.71199056 65.9814392,7.57451521 65.61,7.59095768 L65.52,7.59095768 L65.24,7.54095768 L65.24,6.85095768 L65.67,6.85095768 C66.3414429,6.83824063 67.0105595,6.76798338 67.67,6.64095768 C68.082969,6.57478419 68.4883085,6.46758698 68.88,6.32095768 L69,6.26095768 L69.21,6.36095768 L69.21,7.36095768 C69.9157947,6.69920336 70.8527176,6.34022909 71.82,6.36095768 C72.5068672,6.32537957 73.1818531,6.55037488 73.71,6.99095768 L73.79,7.06095768 L73.79,7.42095768 L72.79,9.16095768 L72.33,9.16095768 L72.27,9.05095768 C71.8745047,8.43861505 71.1771713,8.08994836 70.45,8.14095768 C70.0097969,8.1329886 69.5774971,8.25849501 69.21,8.50095768 L69.21,14.1909577 C69.1124321,15.0292716 69.1977234,15.8787728 69.46,16.6809577 C69.77,17.1509577 70.73,17.1909577 71.01,17.1909577 L71.25,17.1909577 L71.25,17.8109577 L71,17.8109577 C69.76,17.7409577 68.84,17.7109577 68.17,17.7109577 C67.2355797,17.6972584 66.3010624,17.730634 65.37,17.8109577 L65.11,17.8109577 L65.24,17.7809577 Z" id="Path" fill="#A90533" fill-rule="nonzero"></path>
                <path d="M80.35,7.54095768 C78.14,7.54095768 77.07,9.04095768 77.07,12.1409577 C77.07,13.3909577 77.42,16.3109577 80.7,16.3109577 L80.81,16.3109577 C81.4376947,16.3258435 82.0572525,16.1666276 82.6,15.8509577 L82.6,8.31095768 C81.9758221,7.77831202 81.1689297,7.50934788 80.35,7.56095768 L80.35,7.54095768 Z M82.95,17.9209577 L82.65,17.8209577 L82.65,16.8209577 C81.7351111,17.4992745 80.6288692,17.8703556 79.49,17.8809577 C76.39,17.8809577 74.39,15.7309577 74.39,12.4009577 C74.3819986,11.3693702 74.5897776,10.3475063 75,9.40095768 C75.9749411,7.33044909 78.1044108,6.05434762 80.39,6.17095768 C81.1323002,6.16750551 81.872948,6.24123516 82.6,6.39095768 L82.6,3.99095768 C82.6937697,3.16451752 82.6189274,2.32764444 82.38,1.53095768 C82.1176693,1.2640969 81.7537363,1.12216304 81.38,1.14095768 L81.29,1.14095768 L81.07,1.14095768 L81.07,0.640957683 L81.31,0.640957683 C82.1216449,0.576091377 82.9293909,0.46928199 83.73,0.320957683 C84.1057338,0.265513844 84.4767761,0.181945762 84.84,0.0709576832 L84.96,0.0709576832 L85.15,0.190957683 L85.15,0.300957683 C85.08,1.23095768 85.06,3.22095768 85.06,4.71095768 L85.06,13.9209577 C84.9747281,14.7607062 85.0493786,15.6090078 85.28,16.4209577 C85.5409931,16.6919512 85.9038893,16.8407387 86.28,16.8309577 L86.58,16.8309577 L86.58,17.4309577 L86.35,17.4309577 C85.6154159,17.4613846 84.8837389,17.5415684 84.16,17.6709577 C83.7651011,17.7100137 83.3759302,17.7938868 83,17.9209577 L82.9,17.9709577 L82.95,17.9209577 Z" id="Shape" fill="#A90533" fill-rule="nonzero"></path>
                <line x1="85.95" y1="44.3509577" x2="-9.23705556e-14" y2="44.3509577" id="Path" stroke="#231F20" stroke-width="0.72"></line>
                <g id="%PLACEHOLDER1%" transform="translate(0.240000, 22.540958)" fill="#231F20" fill-rule="nonzero" font-family="SourceSansPro-Bold, Source Sans Pro" font-size="14.3" font-weight="bold">
                    <g id="Group">
                        <text id="%PLACEHOLDER1%">
                            <tspan x="0" y="14">%PLACEHOLDER1%</tspan>
                        </text>
                    </g>
                </g>
                <g id="%PLACEHOLDER2%" transform="translate(0.240000, 50.540958)" fill="#231F20" fill-rule="nonzero" font-family="SourceSansPro-Regular, Source Sans Pro" font-size="12" font-weight="normal">
                    <g id="Group">
                        <text id="%PLACEHOLDER2%">
                            <tspan x="0" y="12">%PLACEHOLDER2%</tspan>
                        </text>
                    </g>
                </g>
                <g id="%PLACEHOLDER3%" transform="translate(0.240000, 65.540958)" fill="#231F20" fill-rule="nonzero" font-family="SourceSansPro-Regular, Source Sans Pro" font-size="12" font-weight="normal">
                    <g id="Group">
                        <text id="%PLACEHOLDER3%">
                            <tspan x="0" y="12">%PLACEHOLDER3%</tspan>
                        </text>
                    </g>
                </g>
            </g>
        </g>
    </g>
</svg>