<?xml version="1.0" encoding="UTF-8"?>
<svg width="800px" height="137px" viewBox="0 0 450 137" version="1.1" xmlns="http://www.w3.org/2000/svg" xmlns:xlink="http://www.w3.org/1999/xlink">
    <title>stanford-line2-5</title>
    <g id="stanford-line2-5" stroke="none" stroke-width="1" fill="none" fill-rule="evenodd">
        <g>
            <rect id="Rectangle" x="0" y="0" width="450" height="137"></rect>
            <g id="SU_units_2Ln" transform="translate(75.000000, 53.530000)">
                <line x1="93.03" y1="31.2" x2="93.03" y2="2.84217094e-14" id="Path" stroke="#231F20" stroke-width="0.72"></line>
                <path d="M26.18,12.14 C25.3244242,12.3709892 24.493732,12.6858484 23.7,13.08 C23.049116,13.4286225 22.6591496,14.1227627 22.7,14.86 C22.6583855,15.3148006 22.8276443,15.7635661 23.1592385,16.0776053 C23.4908327,16.3916445 23.9481328,16.5362671 24.4,16.47 C25.03336,16.4889976 25.6564717,16.306965 26.18,15.95 L26.18,12.12 L26.18,12.14 Z M23.47,18.14 C20.41,18.14 20.17,15.81 20.17,15.14 C20.1175721,13.756832 21.0182666,12.5173442 22.35,12.14 C24.35,11.4 24.8,11.31 26.18,10.88 L26.18,10.52 C26.2162159,10.0955626 26.1721128,9.66810189 26.05,9.26 C25.7358926,8.40637345 24.8853366,7.87220784 23.98,7.96 C23.1008414,7.93897638 22.2773278,8.38885882 21.82,9.14 L21.69,9.37 L21.13,9.03 L21.18,8.86 C21.7487819,7.26324238 23.3086479,6.23830423 25,6.35 C26.2566825,6.20685808 27.4935527,6.74894318 28.24,7.77 C28.6658293,8.68447094 28.8417983,9.69543006 28.75,10.7 C28.75,11.7 28.75,12.76 28.75,13.63 C28.75,14.23 28.75,14.75 28.75,15.07 C28.75,15.87 28.87,16.49 29.54,16.49 C29.6740846,16.4983392 29.8063328,16.4554479 29.91,16.37 L30.09,16.22 L30.46,16.64 L30.34,16.8 C29.8308834,17.5969445 28.9455866,18.0736427 28,18.06 C27.2233388,18.1395077 26.4972545,17.6637973 26.26,16.92 C25.5218121,17.6886266 24.4954489,18.1129534 23.43,18.09 L23.47,18.14 Z" id="Shape" fill="#A90533" fill-rule="nonzero"></path>
                <path d="M4.76,18.06 C3.49512419,18.0914118 2.23403489,17.9088412 1.03,17.52 L0.86,17.52 L0.86,16.7 C0.86,15.6 0.86,15.17 0.86,14.82 L0.86,14.26 L1.53,14.26 L1.53,14.47 C1.54473428,14.9690568 1.72802003,15.4484195 2.05,15.83 C2.77934568,16.4384239 3.71146914,16.7491317 4.66,16.7 C6.82,16.7 7.82,15.89 7.82,14.13 C7.82,12.64 6.89,12.01 5.61,11.13 L5.41,10.98 L4.05,10.08 C2.17,8.84 1.22,7.84 1.22,5.85 C1.22,4.85 1.59,1.69995266 6.32,1.69995266 C7.49489702,1.69762612 8.66827563,1.78454305 9.83,1.96 L10.03,1.96 L10.03,2.16 C10.03,2.16 10.03,2.78 10.03,3.45 C10.03,4.12 10.03,4.45 10.03,4.91 L10.03,5.27 L9.45,5.27 L9.45,5.04 C9.44554676,4.53336631 9.24897746,4.04730404 8.9,3.68 C8.16150448,3.16651207 7.26584398,2.92932135 6.37,3.01 C3.86,3.01 3.57,4.3 3.57,5.27 C3.57,6.6 4.25,7.05 5.74,8.03 L7.46,9.17 C8.91,10.17 10.29,11.06 10.29,13.48 C10.29,17.57 6.47,18.02 4.83,18.02 L4.76,18.06 Z" id="Path" fill="#A90533" fill-rule="nonzero"></path>
                <path d="M16,18.13 C14.25,18.13 13.29,17.5 12.86,16.13 C12.7071791,15.3734377 12.6467373,14.6011253 12.68,13.83 C12.68,12.02 12.68,10.57 12.68,8.89 L12.68,8.1 L11.21,8.1 L11.21,7.66 L11.36,7.6 C11.8158891,7.42911304 12.2413229,7.18600799 12.62,6.88 C13.375909,6.24050188 14.0036691,5.46343675 14.47,4.59 L14.73,4.16 L15.22,4.16 L15.22,6.7 L19.07,6.7 L19.07,8.1 L15.22,8.1 L15.22,14.04 C15.22,15.81 15.55,16.82 17.22,16.82 C17.7005176,16.8203712 18.1751758,16.7145122 18.61,16.51 L18.84,16.39 L19.04,16.85 L18.94,16.96 C18.1765542,17.7974034 17.0698814,18.2363836 15.94,18.15 L16,18.13 Z" id="Path" fill="#A90533" fill-rule="nonzero"></path>
                <path d="M31.36,17.99 L31.36,17.47 L31.57,17.47 C31.9486201,17.4450969 32.3047186,17.2812915 32.57,17.01 C32.92,16.61 32.94,15.65 32.94,13.73 L32.94,10.47 C32.94,9.08 32.94,8.47 32.71,8.18 C32.448399,7.91203462 32.0839472,7.76989842 31.71,7.79 L31.62,7.79 L31.4,7.79 L31.4,7.15 L31.83,7.15 C32.5011559,7.1327662 33.1699021,7.06254785 33.83,6.94 C34.247767,6.87468264 34.6506591,6.73587108 35.02,6.53 L35.15,6.47 L35.38,6.61 L35.38,7.47 C36.3275912,6.77176002 37.4729461,6.39347767 38.65,6.39 C40.65,6.39 42.02,7.34 42.4,9.07 C42.5079474,9.73105018 42.5581369,10.4002435 42.55,11.07 L42.55,14.37 C42.55,16.23 42.62,16.76 42.97,17.09 C43.2237769,17.2755616 43.5260636,17.383273 43.84,17.4 L44.07,17.4 L44.07,17.93 L43.51,17.93 C42.69,17.93 42,17.85 41.26,17.85 C40.52,17.85 39.71,17.85 38.7,17.94 L38.44,17.94 L38.44,17.47 L38.64,17.47 C38.9856055,17.445801 39.3146699,17.312775 39.58,17.09 C39.9141302,16.4795307 40.0569811,15.7826971 39.99,15.09 C39.99,14.97 39.99,14.84 39.99,14.7 C39.99,14.28 39.99,13.39 39.99,12.7 C40.0046135,11.8390225 39.9745732,10.9778663 39.9,10.12 C39.907877,9.50330294 39.6480612,8.91346714 39.1877339,8.50300869 C38.7274067,8.09255023 38.1117658,7.90177045 37.5,7.98 C36.7654041,7.95961686 36.0371536,8.12106862 35.38,8.45 L35.38,14.39 C35.38,16.25 35.46,16.78 35.81,17.11 C36.0620626,17.298778 36.3653578,17.4068487 36.68,17.42 L36.9,17.42 L36.9,17.95 L36.3,17.95 C35.52,17.95 34.84,17.88 34.13,17.88 C33.42,17.88 32.54,17.88 31.53,17.97 L31.28,17.97 L31.36,17.99 Z" id="Path" fill="#A90533" fill-rule="nonzero"></path>
                <path d="M45.45,17.99 L45.45,17.47 L45.67,17.47 C46.0486201,17.4450969 46.4047186,17.2812915 46.67,17.01 C47.02,16.61 47.03,15.66 47.03,13.74 L47.03,8.13 L45.57,8.13 L45.57,7.47 L45.72,7.41 C46.189048,7.23613024 46.6329282,7.0007392 47.04,6.71 C47.0279474,5.70728798 47.0847476,4.7049314 47.21,3.71 C47.66,1.38 49.21,0.19 51.75,0.19 C52.7371868,0.171155072 53.7032808,0.476792104 54.5,1.06 L54.59,1.13 L54.59,1.37 L53.47,2.93 L53.2,2.93 L53.13,2.79 C52.8662159,1.97102242 52.0897977,1.42752964 51.23,1.46 C50.8135462,1.44735849 50.4072525,1.58991767 50.09,1.86 C49.6,2.35 49.52,3.08 49.52,4.52 L49.52,6.7 L52.04,6.7 L52.04,8.1 L49.56,8.1 L49.56,14.37 C49.4672296,15.2142736 49.5489186,16.0686047 49.8,16.88 C50.12,17.36 51.08,17.39 51.36,17.39 L51.6,17.39 L51.6,18 L51.35,18 C50.11,17.94 49.18,17.91 48.51,17.91 C47.68,17.91 46.72,17.91 45.71,18 L45.45,18 L45.45,17.99 Z" id="Path" fill="#A90533" fill-rule="nonzero"></path>
                <path d="M58.59,7.68 C58.0124152,7.64994408 57.4436492,7.83123823 56.99,8.19 C56.08,8.95 55.62,10.34 55.62,12.31 C55.62,13.07 55.76,16.87 58.55,16.87 C59.1273473,16.898226 59.6954855,16.7171319 60.15,16.36 C61.05,15.6 61.51,14.21 61.51,12.24 C61.51,11.48 61.37,7.68 58.59,7.68 L58.59,7.68 Z M58.45,18.17 C55,18.17 52.94,16.03 52.94,12.43 C52.94,9.63 54.44,6.37 58.69,6.37 C62.14,6.37 64.2,8.52 64.2,12.12 C64.2,14.91 62.69,18.12 58.45,18.12 L58.45,18.17 Z" id="Shape" fill="#A90533" fill-rule="nonzero"></path>
                <path d="M65.29,17.99 L65.29,17.41 L65.51,17.41 C65.890242,17.3833695 66.2468505,17.2157635 66.51,16.94 C66.86,16.55 66.88,15.62 66.88,13.7 L66.88,10.47 C66.9788996,9.69982043 66.9037195,8.9172642 66.66,8.18 C66.43,7.84 65.92,7.81 65.66,7.79 L65.58,7.79 L65.36,7.79 L65.36,7.11 L65.78,7.11 C66.4516691,7.09306885 67.1207106,7.01947428 67.78,6.89 C68.1942837,6.83015393 68.6002937,6.72277939 68.99,6.57 L69.12,6.51 L69.32,6.62 L69.32,7.62 C70.0209182,6.88981574 70.987858,6.47489755 72,6.47 C72.6883284,6.43619829 73.3638264,6.66493837 73.89,7.11 L73.97,7.18 L73.97,7.53 L72.97,9.28 L72.51,9.28 L72.44,9.17 C72.0445047,8.55765737 71.3471713,8.20899068 70.62,8.26 C70.1822403,8.24686088 69.7515933,8.37290392 69.39,8.62 L69.39,14.31 C69.2965429,15.1476631 69.3782725,15.9956077 69.63,16.8 C69.95,17.27 70.91,17.31 71.19,17.31 L71.43,17.31 L71.43,17.94 L71.18,17.94 C69.94,17.88 69.01,17.85 68.34,17.85 C67.5,17.85 66.55,17.85 65.54,17.94 L65.28,17.94 L65.29,17.99 Z" id="Path" fill="#A90533" fill-rule="nonzero"></path>
                <path d="M80.44,7.75 C78.24,7.75 77.17,9.26 77.17,12.36 C77.17,13.61 77.52,16.54 80.8,16.54 L80.91,16.54 C81.5384598,16.5503005 82.1576672,16.3877153 82.7,16.07 L82.7,8.47 C82.0786821,7.92451298 81.2646723,7.65077519 80.44,7.71 L80.44,7.75 Z M83.05,18.14 L82.75,18.04 L82.75,17.09 C81.8351111,17.7683168 80.7288692,18.139398 79.59,18.15 C76.49,18.15 74.4799725,16 74.4799725,12.66 C74.4771991,11.6279066 74.6883041,10.6064307 75.1,9.66 C76.0800359,7.59530031 78.2074382,6.32438464 80.49,6.44 C81.2317122,6.43862942 81.9718204,6.50895644 82.7,6.65 L82.7,4.25 C82.7937697,3.42355984 82.7189274,2.58668676 82.48,1.79 C82.218399,1.52203462 81.8539472,1.37989842 81.48,1.4 L81.4,1.4 L81.18,1.4 L81.18,0.89 L81.42,0.89 C82.2317116,0.825764629 83.0394904,0.718950908 83.84,0.57 C84.2205188,0.517874752 84.5954331,0.430841072 84.96,0.31 L85.07,0.31 L85.27,0.43 L85.27,0.47 C85.19,1.4 85.18,3.39 85.18,4.88 L85.18,14.1 C85.0884158,14.9396944 85.1631728,15.7892058 85.4,16.6 C85.6609931,16.8709935 86.0238893,17.019781 86.4,17.01 L86.71,17.01 L86.71,17.62 L86.5,17.62 C85.7655552,17.6458675 85.0337941,17.7227191 84.31,17.85 C83.9187584,17.8969632 83.5333927,17.9840894 83.16,18.11 L83.05,18.11 L83.05,18.14 Z" id="Shape" fill="#A90533" fill-rule="nonzero"></path>
                <g id="%PLACEHOLDER1%" transform="translate(-15, 19.470000)" fill="#231F20" fill-rule="nonzero" font-family="SourceSansPro-Semibold, Source Sans Pro" font-size="11.5" font-weight="500">
                    <g id="Group">
                        <text id="%PLACEHOLDER1%">
                            <tspan text-anchor="start" x="0" y="11">%PLACEHOLDER1%</tspan>
                        </text>
                    </g>
                </g>
                <g id="%PLACEHOLDER2%" transform="translate(99.000000, 2.470000)" fill="#231F20" fill-rule="nonzero" font-family="SourceSansPro-Regular, Source Sans Pro" font-size="15" font-weight="normal" line-spacing="16">
                    <g id="Group">
                        <text id="%PLACEHOLDER2%">
                            <tspan x="0" y="15">%PLACEHOLDER2%</tspan>
                        </text>
                    </g>
                </g>
                <g id="%PLACEHOLDER3%" transform="translate(99.000000, 18.470000)" fill="#231F20" fill-rule="nonzero" font-family="SourceSansPro-Regular, Source Sans Pro" font-size="15" font-weight="normal" line-spacing="16">
                    <g id="Group">
                        <text id="%PLACEHOLDER3%">
                            <tspan x="0" y="15">%PLACEHOLDER3%</tspan>
                        </text>
                    </g>
                </g>
            </g>
        </g>
    </g>
</svg>