<?xml version="1.0" encoding="UTF-8"?>
<svg width="800px" height="137px" viewBox="0 0 454 137" version="1.1" xmlns="http://www.w3.org/2000/svg" xmlns:xlink="http://www.w3.org/1999/xlink">
    <title>stanford-line2-7</title>
    <g id="stanford-line2-7" stroke="none" stroke-width="1" fill="none" fill-rule="evenodd">
        <g>
            <rect id="Rectangle" x="0" y="0" width="454" height="137"></rect>
            <g id="SU_units_2Ln" transform="translate(128.000000, 49.000000)">
                <path d="M26,31.83 C25.1422454,32.0542105 24.3108703,32.3693285 23.52,32.77 C22.8689019,33.1133562 22.4780812,33.8051088 22.52,34.54 C22.4737419,34.9947795 22.6373875,35.4458321 22.9644951,35.7651514 C23.2916027,36.0844707 23.746467,36.2372017 24.2,36.18 C24.83336,36.1989976 25.4564717,36.016965 25.98,35.66 L25.98,31.83 L26,31.83 Z M23.3,37.77 C20.23,37.77 20,35.44 20,34.77 C19.9463786,33.3896648 20.8422451,32.1511397 22.17,31.77 C24.17,31.03 24.61,30.95 26,30.51 L26,30.15 C26.0356688,29.7288655 25.9915642,29.3047822 25.87,28.9 C25.5558926,28.0463735 24.7053366,27.5122078 23.8,27.6 C22.9208414,27.5789764 22.0973278,28.0288588 21.64,28.78 L21.52,29.01 L20.95,28.67 L20.95,28.5 C21.5630759,26.9601531 23.1077576,25.9992881 24.76,26.13 C26.0003774,25.960104 27.2367301,26.4676191 28,27.46 C28.4258293,28.3744709 28.6017983,29.3854301 28.51,30.39 C28.51,31.39 28.51,32.44 28.51,33.32 C28.51,33.92 28.51,34.44 28.51,34.76 C28.51,35.55 28.64,36.17 29.3,36.17 C29.4329818,36.183226 29.5658421,36.143727 29.67,36.06 L29.85,35.9 L30.23,36.33 L30.1,36.49 C29.6097384,37.2504646 28.7745473,37.718621 27.87,37.74 C27.095923,37.8184806 26.3732407,37.3422622 26.14,36.6 C25.4034876,37.3650166 24.381764,37.7889232 23.32,37.77 L23.3,37.77 Z" id="Shape" fill="#A90533" fill-rule="nonzero"></path>
                <path d="M4.56,37.74 C3.29608204,37.7679483 2.03610603,37.5889168 0.83,37.21 L0.67,37.15 L0.67,36.33 C0.67,35.24 0.67,34.81 0.62,34.46 L0.62,33.89 L1.29,33.89 L1.29,34.12 C1.30646288,34.6169544 1.485639,35.0947574 1.8,35.48 C2.52994437,36.0953134 3.46661798,36.4099214 4.42,36.36 C6.57,36.36 7.57,35.54 7.57,33.79 C7.57,32.29 6.64,31.67 5.36,30.79 L5.16,30.64 L3.81,29.74 C1.93,28.5 0.98,27.5 0.98,25.51 C0.98,24.51 1.34,21.3599718 6.08,21.3599718 C7.25193958,21.3581392 8.42221176,21.4484174 9.58,21.63 L9.79,21.63 L9.79,21.83 C9.79,21.83 9.79,22.45 9.79,23.12 C9.79,23.79 9.79,24.12 9.79,24.58 L9.79,24.94 L9.2,24.94 L9.2,24.72 C9.19808392,24.2099045 9.00133397,23.7198183 8.65,23.35 C7.90936476,22.8411552 7.0154052,22.6044149 6.12,22.68 C3.62,22.68 3.32,23.97 3.32,24.94 C3.32,26.27 4,26.72 5.5,27.71 L7.21,28.84 C8.66,29.84 10.04,30.73 10.04,33.15 C10.04,37.24 6.22,37.68 4.58,37.68 L4.56,37.74 Z" id="Path" fill="#A90533" fill-rule="nonzero"></path>
                <path d="M15.78,37.81 C14.03,37.81 13.06,37.19 12.63,35.81 C12.4763902,35.0535481 12.4159408,34.2811391 12.45,33.51 C12.45,31.71 12.45,30.26 12.45,28.58 L12.45,27.79 L11,27.79 L11,27.35 L11.14,27.29 C11.6005519,27.1225654 12.0298196,26.8792011 12.41,26.57 C13.1620466,25.9306411 13.7892751,25.1576243 14.26,24.29 L14.51,23.86 L15,23.86 L15,26.39 L18.84,26.39 L18.84,27.79 L15,27.79 L15,33.73 C15,35.49 15.33,36.51 17,36.51 C17.4765412,36.5036613 17.946532,36.3980836 18.38,36.2 L18.61,36.08 L18.81,36.54 L18.71,36.65 C17.9412205,37.4787053 16.8373431,37.912897 15.71,37.83 L15.78,37.81 Z" id="Path" fill="#A90533" fill-rule="nonzero"></path>
                <path d="M31.14,37.67 L31.14,37.13 L31.36,37.13 C31.740242,37.1033695 32.0968505,36.9357635 32.36,36.66 C32.71,36.27 32.73,35.31 32.73,33.38 L32.73,30.16 C32.73,28.77 32.73,28.16 32.5,27.87 C32.27,27.58 31.77,27.5 31.5,27.48 L31.4,27.48 L31.19,27.48 L31.19,26.84 L31.44,26.84 L31.61,26.84 C32.2811832,26.8231855 32.9499625,26.7529637 33.61,26.63 C34.0286835,26.5611564 34.433747,26.4261353 34.81,26.23 L34.93,26.17 L35.15,26.3 L35.15,27.2 C36.0987876,26.4955443 37.248288,26.1135457 38.43,26.11 C40.43,26.11 41.8,27.11 42.17,28.79 C42.2783528,29.4510019 42.3285449,30.1202308 42.32,30.79 L42.32,34.08 C42.32,35.95 42.4,36.47 42.74,36.8 C42.9978462,36.9864663 43.3026067,37.0972883 43.62,37.12 L43.84,37.12 L43.84,37.65 L43.28,37.65 C42.47,37.65 41.77,37.57 41.04,37.57 C40.1854789,37.5563988 39.3308563,37.5897825 38.48,37.67 L38.22,37.67 L38.22,37.15 L38.42,37.15 C38.7637659,37.1229478 39.089764,36.9862389 39.35,36.76 C39.72,36.4 39.74,35.53 39.77,34.76 C39.77,34.63 39.77,34.51 39.77,34.37 C39.77,33.95 39.77,33.06 39.77,32.37 C39.7846135,31.5090225 39.7545732,30.6478663 39.68,29.79 C39.687877,29.1733029 39.4280612,28.5834671 38.9677339,28.1730087 C38.5074067,27.7625502 37.8917658,27.5717705 37.28,27.65 C36.5486867,27.6304428 35.8238718,27.7918944 35.17,28.12 L35.17,34.05 C35.17,35.92 35.25,36.44 35.6,36.77 C35.8531927,36.9581115 36.1552611,37.0692172 36.47,37.09 L36.69,37.09 L36.69,37.62 L36.09,37.62 C35.31,37.62 34.63,37.54 33.92,37.54 C33.0554986,37.5269082 32.1909183,37.5602897 31.33,37.64 L31.07,37.64 L31.14,37.67 Z" id="Path" fill="#A90533" fill-rule="nonzero"></path>
                <path d="M45.22,37.67 L45.22,37.12 L45.44,37.12 C45.8205817,37.1030051 46.1794471,36.937927 46.44,36.66 C46.8,36.27 46.82,35.32 46.82,33.39 L46.82,27.79 L45.34,27.79 L45.34,27.16 L45.49,27.1 C45.9627733,26.9274893 46.4101347,26.6920359 46.82,26.4 C46.7995631,25.3974273 46.8530413,24.3947116 46.98,23.4 C47.43,21.07 48.98,19.88 51.51,19.88 C52.4982081,19.8647426 53.4653686,20.1661042 54.27,20.74 L54.36,20.82 L54.36,21.05 L53.24,22.61 L53,22.61 L52.94,22.46 C52.6705464,21.6452241 51.8977904,21.1042948 51.04,21.13 C50.6220762,21.1191563 50.2152852,21.2654584 49.9,21.54 C49.41,22.02 49.33,22.75 49.33,24.19 L49.33,26.37 L51.84,26.37 L51.84,27.77 L49.33,27.77 L49.33,34 C49.238366,34.8442812 49.3200329,35.6983818 49.57,36.51 C49.89,36.98 50.85,37.02 51.13,37.02 L51.37,37.02 L51.37,37.62 L51.12,37.62 C49.88,37.55 48.95,37.52 48.29,37.52 C47.3522497,37.5062523 46.4144008,37.5396277 45.48,37.62 L45.22,37.62 L45.22,37.67 Z" id="Path" fill="#A90533" fill-rule="nonzero"></path>
                <path d="M58.35,27.37 C57.7726527,27.341774 57.2045145,27.5228681 56.75,27.88 C55.85,28.64 55.39,30.03 55.39,32 C55.39,32.76 55.53,36.56 58.31,36.56 C58.8886057,36.5853988 59.4568796,36.4007098 59.91,36.04 C60.81,35.28 61.27,33.9 61.27,31.93 C61.27,31.17 61.13,27.37 58.35,27.37 L58.35,27.37 Z M58.21,37.86 C54.77,37.86 52.71,35.71 52.71,32.12 C52.71,29.32 54.21,26.06 58.45,26.06 C61.9,26.06 63.95,28.21 63.95,31.81 C63.95,34.6 62.45,37.86 58.21,37.86 Z" id="Shape" fill="#A90533" fill-rule="nonzero"></path>
                <path d="M65.05,37.67 L65.05,37.1 L65.27,37.1 C65.6515093,37.0783046 66.0098415,36.9098884 66.27,36.63 C66.62,36.24 66.63,35.32 66.63,33.39 L66.63,30.17 C66.63,28.78 66.63,28.17 66.42,27.88 C66.1529523,27.6203823 65.7923041,27.4797295 65.42,27.49 L65.33,27.49 L65.11,27.49 L65.11,26.81 L65.54,26.81 C66.2119877,26.7979203 66.8814542,26.724279 67.54,26.59 C67.9542837,26.5301539 68.3602937,26.4227794 68.75,26.27 L68.88,26.21 L69.08,26.32 L69.08,27.32 C69.7801884,26.6436542 70.716502,26.2669763 71.69,26.27 C72.3771385,26.2324137 73.052841,26.4576479 73.58,26.9 L73.66,26.97 L73.66,27.32 L72.66,29.07 L72.2,29.07 L72.13,28.96 C71.7345047,28.3476574 71.0371713,27.9989907 70.31,28.05 C69.8722403,28.0368609 69.4415933,28.1629039 69.08,28.41 L69.08,34 C68.9855852,34.8343532 69.0673478,35.6792339 69.32,36.48 C69.64,36.96 70.6,36.99 70.88,36.99 L71.12,36.99 L71.12,37.62 L70.87,37.62 C69.63,37.55 68.7,37.52 68.03,37.52 C67.0989093,37.5063145 66.1677217,37.5396904 65.24,37.62 L64.98,37.62 L65.05,37.67 Z" id="Path" fill="#A90533" fill-rule="nonzero"></path>
                <path d="M80.19,27.44 C77.99,27.44 76.92,28.95 76.92,32.05 C76.92,33.3 77.27,36.22 80.55,36.22 L80.65,36.22 C81.2772211,36.2308044 81.8956998,36.0718658 82.44,35.76 L82.44,28.2 C81.8217511,27.6560761 81.0114401,27.382371 80.19,27.44 L80.19,27.44 Z M82.8,37.83 L82.49,37.72 L82.49,36.77 C81.5804767,37.4512975 80.4763747,37.8228365 79.34,37.83 C76.24,37.83 74.24,35.68 74.24,32.35 C74.2340433,31.3186113 74.4417375,30.2971641 74.85,29.35 C75.8279398,27.2833962 77.956755,26.0116365 80.24,26.13 C80.9790252,26.125854 81.71643,26.1995945 82.44,26.35 L82.44,23.95 C82.5380573,23.1236163 82.4631369,22.2858704 82.22,21.49 C81.958399,21.2220346 81.5939472,21.0798984 81.22,21.1 L81.13,21.1 L80.92,21.1 L80.92,20.59 L81.16,20.59 C81.9683702,20.5305424 82.7728976,20.4270555 83.57,20.28 C83.9505188,20.2278748 84.3254331,20.1408411 84.69,20.02 L84.8,20.02 L85,20.13 L85,20.25 C84.92,21.18 84.91,23.17 84.91,24.66 L84.91,33.86 C84.8176241,34.6996859 84.8923947,35.5493524 85.13,36.36 C85.3870004,36.637898 85.7516424,36.7910477 86.13,36.78 L86.44,36.78 L86.44,37.39 L86.2,37.39 C85.4659339,37.421139 84.7345188,37.4979542 84.01,37.62 C83.6187584,37.6669632 83.2333927,37.7540894 82.86,37.88 L82.76,37.93 L82.8,37.83 Z" id="Shape" fill="#A90533" fill-rule="nonzero"></path>
                <line x1="91.75" y1="2.49" x2="91.75" y2="37.63" id="Path" stroke="#231F20" stroke-width="0.72"></line>
                <g id="%PLACEHOLDER1%" transform="translate(97.000000, 0.000000)" fill="#231F20" fill-rule="nonzero" font-family="SourceSansPro-Regular, Source Sans Pro" font-size="12" font-weight="normal" line-spacing="13">
                    <g id="Group">
                        <text id="%PLACEHOLDER1%">
                            %PLACEHOLDER_1%
                        </text>
                    </g>
                </g>
                <g id="%PLACEHOLDER2%" transform="translate(97.000000, 13.000000)" fill="#231F20" fill-rule="nonzero" font-family="SourceSansPro-Regular, Source Sans Pro" font-size="12" font-weight="normal" line-spacing="13">
                    <g id="Group">
                        <text id="%PLACEHOLDER2%">
                            %PLACEHOLDER_2%
                        </text>
                    </g>
                </g>
                <g id="%PLACEHOLDER3%" transform="translate(97.000000, 28.000000)" fill="#000000" fill-rule="nonzero" font-family="SourceSansPro-It, Source Sans Pro" font-size="9.8" font-style="italic" font-weight="normal">
                    <g id="Group">
                        <text id="%PLACEHOLDER3%">
                            %PLACEHOLDER_3%
                        </text>
                    </g>
                </g>
            </g>
        </g>
    </g>
</svg>