<?xml version="1.0" encoding="utf-8"?>
<!-- Generator: Adobe Illustrator 24.3.0, SVG Export Plug-In . SVG Version: 6.00 Build 0)  -->
<svg version="1.1" id="Layer_1" xmlns="http://www.w3.org/2000/svg" xmlns:xlink="http://www.w3.org/1999/xlink" x="0px" y="0px"
	 viewBox="0 0 450 137" style="enable-background:new 0 0 450 137;" xml:space="preserve">
<style type="text/css">
	.st0{fill:none;}
	.st1{fill:#A90533;}
	.st2{fill:#231F20;}
	.st3{font-family:'SourceSansPro-Regular';}
	.st4{font-size:14px;}
	.st5{fill:none;stroke:#231F20;stroke-width:0.72;}
</style>
<g id="stanford-line1-3">
	<g>
		<rect id="Rectangle" class="st0" width="450" height="137"/>
		<g id="SU_units_1Ln" transform="translate(110.000000, 58.729042)">
			<path id="Shape" class="st1" d="M25.3,11.9c-0.9,0.2-1.7,0.5-2.5,0.9c-0.7,0.3-1,1-1,1.8c0,0.5,0.1,0.9,0.5,1.2
				c0.3,0.3,0.8,0.5,1.2,0.4c0.6,0,1.3-0.2,1.8-0.5V11.9L25.3,11.9z M22.6,17.9c-3.1,0-3.3-2.3-3.3-3c-0.1-1.4,0.8-2.6,2.2-3
				c2-0.7,2.5-0.8,3.8-1.3v-0.3c0-0.4,0-0.9-0.1-1.3c-0.3-0.9-1.2-1.4-2.1-1.3c-0.9,0-1.7,0.4-2.2,1.2l-0.1,0.2l-0.6-0.3l0-0.2
				c0.6-1.5,2.2-2.5,3.8-2.4c1.3-0.1,2.5,0.4,3.2,1.4c0.4,0.9,0.6,1.9,0.5,2.9c0,1,0,2.1,0,2.9c0,0.6,0,1.1,0,1.4
				c0,0.8,0.1,1.4,0.8,1.4c0.1,0,0.3,0,0.4-0.1l0.2-0.2l0.4,0.4l-0.1,0.2c-0.5,0.8-1.3,1.2-2.2,1.3c-0.8,0.1-1.5-0.4-1.7-1.1
				C24.7,17.5,23.7,17.9,22.6,17.9L22.6,17.9z"/>
			<path id="Path" class="st1" d="M3.9,17.8c-1.3,0-2.5-0.2-3.7-0.5H0v-0.8c0-1.1,0-1.5,0-1.9V14h0.7v0.2c0,0.5,0.2,1,0.5,1.4
				c0.7,0.6,1.7,0.9,2.6,0.9C6,16.5,7,15.7,7,13.9c0-1.5-0.9-2.1-2.2-3l-0.2-0.1L3.2,9.9C1.3,8.6,0.4,7.6,0.4,5.7
				c0-1,0.4-4.2,5.1-4.2c1.2,0,2.3,0.1,3.5,0.3h0.2V2c0,0,0,0.6,0,1.3s0,1,0,1.5v0.4H8.6V4.8c0-0.5-0.2-1-0.6-1.4
				C7.3,3,6.4,2.7,5.5,2.8C3,2.8,2.7,4.1,2.7,5.1c0,1.3,0.7,1.8,2.2,2.8L6.6,9c1.5,1,2.8,1.9,2.8,4.3C9.4,17.4,5.6,17.8,3.9,17.8
				L3.9,17.8z"/>
			<path id="Path_1_" class="st1" d="M15.1,17.9c-1.8,0-2.7-0.6-3.1-2c-0.1-0.8-0.2-1.5-0.2-2.3c0-1.8,0-3.3,0-4.9V7.9h-1.4V7.4
				l0.1-0.1c0.5-0.2,0.9-0.4,1.3-0.7c0.8-0.6,1.4-1.4,1.8-2.3l0.3-0.4h0.5v2.5h3.8v1.4h-3.8v5.9c0,1.8,0.3,2.8,2,2.8
				c0.5,0,1-0.1,1.4-0.3l0.2-0.1l0.2,0.5l-0.1,0.1C17.3,17.5,16.2,18,15.1,17.9L15.1,17.9z"/>
			<path id="Path_2_" class="st1" d="M30.5,17.8v-0.5h0.2c0.4,0,0.7-0.2,1-0.5c0.4-0.4,0.4-1.4,0.4-3.3v-3.3c0-1.4,0-2-0.2-2.3
				c-0.3-0.3-0.6-0.4-1-0.4h-0.1h-0.2V6.9h0.3H31c0.7,0,1.3-0.1,2-0.2c0.4-0.1,0.8-0.2,1.2-0.4l0.1-0.1l0.2,0.1v0.9
				c0.9-0.7,2.1-1.1,3.3-1.1c2,0,3.4,1,3.8,2.7c0.1,0.7,0.2,1.3,0.1,2v3.3c0,1.9,0.1,2.4,0.4,2.7c0.3,0.2,0.6,0.3,0.9,0.3h0.2v0.5
				h-0.6c-0.8,0-1.5-0.1-2.2-0.1c-0.7,0-1.6,0-2.6,0.1h-0.3v-0.5h0.2c0.3,0,0.7-0.2,0.9-0.4c0.3-0.6,0.5-1.3,0.4-2
				c0-0.1,0-0.2,0-0.4c0-0.4,0-1.3,0-2c0-0.9,0-1.7-0.1-2.6c0-0.6-0.3-1.2-0.7-1.6c-0.5-0.4-1.1-0.6-1.7-0.5c-0.7,0-1.5,0.1-2.1,0.5
				v5.9c0,1.9,0.1,2.4,0.4,2.7c0.2,0.2,0.6,0.3,0.9,0.3H36v0.5h-0.6c-0.8,0-1.5-0.1-2.2-0.1s-1.6,0-2.6,0.1H30.5L30.5,17.8z"/>
			<path id="Path_3_" class="st1" d="M44.6,17.8v-0.5h0.2c0.4,0,0.7-0.2,1-0.5c0.3-0.4,0.4-1.3,0.4-3.3V7.9h-1.4V7.3l0.2-0.1
				c0.5-0.2,0.9-0.4,1.3-0.7c0-1,0-2,0.2-3c0.4-2.3,2-3.5,4.5-3.5c1,0,2,0.3,2.8,0.9l0.1,0.1v0.2l-1.1,1.6h-0.3l-0.1-0.1
				c-0.3-0.8-1-1.4-1.9-1.3c-0.4,0-0.8,0.1-1.1,0.4c-0.5,0.5-0.6,1.2-0.6,2.7v2.2h2.5v1.4h-2.5v6.3c-0.1,0.8,0,1.7,0.2,2.5
				c0.3,0.5,1.3,0.5,1.6,0.5h0.3v0.6h-0.2c-1.2-0.1-2.2-0.1-2.8-0.1c-0.8,0-1.8,0-2.8,0.1L44.6,17.8L44.6,17.8z"/>
			<path id="Shape_1_" class="st1" d="M57.8,7.5c-0.6,0-1.1,0.1-1.6,0.5c-0.9,0.8-1.4,2.2-1.4,4.1c0,0.8,0.1,4.6,2.9,4.6
				c0.6,0,1.1-0.2,1.6-0.5c0.9-0.8,1.4-2.2,1.4-4.1C60.7,11.3,60.5,7.5,57.8,7.5z M57.6,18c-3.5,0-5.5-2.2-5.5-5.8
				c0-2.8,1.5-6.1,5.8-6.1c3.5,0,5.5,2.1,5.5,5.8C63.4,14.7,61.9,18,57.6,18z"/>
			<path id="Path_4_" class="st1" d="M64.4,17.8v-0.6h0.2c0.4,0,0.7-0.2,1-0.5c0.3-0.4,0.4-1.3,0.4-3.2v-3.2c0.1-0.8,0-1.6-0.2-2.3
				c-0.2-0.3-0.7-0.4-1-0.4h-0.1h-0.2V6.9h0.4c0.7,0,1.3-0.1,2-0.2c0.4-0.1,0.8-0.2,1.2-0.4l0.1-0.1l0.2,0.1v1c0.7-0.7,1.6-1,2.6-1
				c0.7,0,1.4,0.2,1.9,0.6L73.1,7v0.4l-1,1.7h-0.4L71.6,9c-0.4-0.6-1.1-1-1.8-0.9c-0.4,0-0.9,0.1-1.2,0.4v5.7
				c-0.1,0.8,0,1.7,0.2,2.5c0.3,0.5,1.3,0.5,1.6,0.5h0.2v0.6h-0.2c-1.2-0.1-2.2-0.1-2.8-0.1c-0.8,0-1.8,0-2.8,0.1L64.4,17.8
				L64.4,17.8z"/>
			<path id="Shape_2_" class="st1" d="M79.6,7.5c-2.2,0-3.3,1.5-3.3,4.6c0,1.2,0.4,4.2,3.6,4.2h0.1c0.6,0,1.2-0.1,1.8-0.5V8.3
				C81.2,7.7,80.4,7.5,79.6,7.5L79.6,7.5z M82.2,17.9l-0.3-0.1v-1c-0.9,0.7-2,1.1-3.1,1.1c-3.1,0-5.1-2.1-5.1-5.5c0-1,0.2-2.1,0.6-3
				c1-2.1,3.1-3.3,5.4-3.2c0.7,0,1.5,0.1,2.2,0.2V4c0.1-0.8,0-1.7-0.2-2.5c-0.3-0.3-0.6-0.4-1-0.4h-0.1h-0.2V0.7h0.2
				c0.8-0.1,1.6-0.2,2.4-0.3c0.4-0.1,0.8-0.1,1.1-0.3h0.1l0.2,0.1v0.1c-0.1,0.9-0.1,2.9-0.1,4.4V14c-0.1,0.8,0,1.7,0.2,2.5
				c0.3,0.3,0.6,0.4,1,0.4h0.3v0.6h-0.2c-0.7,0-1.5,0.1-2.2,0.2C83,17.7,82.7,17.8,82.2,17.9L82.2,17.9L82.2,17.9z"/>
			<g id="_x25_PLACEHOLDER1_x25__1_" transform="translate(95.760000, 3.270958)">
				<g id="Group">
					<text transform="matrix(1 0 0 1 7.765625e-06 14)" class="st2 st3 st4">%PLACEHOLDER1%</text>
				</g>
			</g>
		</g>
		<line id="Path_5_" class="st5" x1="200.7" y1="77.3" x2="200.7" y2="59.3"/>
	</g>
</g>
</svg>
