<?xml version="1.0" encoding="UTF-8"?>
<svg id="a" xmlns="http://www.w3.org/2000/svg" viewBox="0 0 450 137">
  <g id="b">
    <g>
      <rect id="c" width="450" height="137" style="fill:none;" />
      <g id="d" transform="translate(75.000000, 48.000000)">
        <line id="e" x1="166.2" y1="66.6" x2="166.2" y2="48.6" style="fill:none; stroke:#231f20; stroke-width:.72px;" />
        <path id="f" d="M100.5,60.6c-.9,.2-1.7,.5-2.5,.9-.7,.3-1,1-1,1.8-.1,.5,.1,.9,.4,1.2s.8,.5,1.3,.4c.6,0,1.3-.2,1.8-.5v-3.8h0Zm-2.7,6c-3.1,0-3.3-2.3-3.3-3-.1-1.4,.8-2.6,2.2-3,2-.7,2.5-.8,3.8-1.3v-.3c0-.4,0-.9-.1-1.3-.3-.9-1.2-1.4-2.1-1.3-.9,0-1.7,.4-2.2,1.2l-.1,.2-.6-.3,.1-.2c.6-1.5,2.2-2.5,3.8-2.4,1.3-.1,2.5,.4,3.2,1.4,.4,.9,.6,1.9,.5,2.9v4.3c0,.8,.1,1.4,.8,1.4,.1,0,.3,0,.4-.1l.2-.2,.4,.4-.1,.2c-.5,.8-1.3,1.2-2.2,1.3-.8,.1-1.5-.4-1.7-1.1-.9,.9-1.9,1.3-3,1.2h0Z" style="fill:#a90533;" />
        <path id="g" d="M79.1,66.6c-1.3,0-2.5-.2-3.7-.5h-.2v-3.3h.7v.2c0,.5,.2,1,.5,1.4,.7,.6,1.7,.9,2.6,.9,2.2,0,3.2-.8,3.2-2.6,0-1.5-.9-2.1-2.2-3l-.2-.1-1.4-.9c-1.9-1.2-2.8-2.2-2.8-4.2,0-1,.4-4.2,5.1-4.2,1.2,0,2.3,.1,3.5,.3h.2v3.3h-.6v-.3c0-.5-.2-1-.6-1.4-.7-.5-1.6-.8-2.5-.7-2.5,0-2.8,1.3-2.8,2.2,0,1.3,.7,1.8,2.2,2.8l1.7,1.1c1.5,1,2.8,1.9,2.8,4.3-.1,4.2-3.9,4.6-5.5,4.7h0Z" style="fill:#a90533;" />
        <path id="h" d="M90.3,66.6c-1.8,0-2.7-.6-3.1-2-.1-.8-.2-1.6-.1-2.3v-5.7h-1.5v-.5l.2-.1c.5-.2,.9-.4,1.3-.7,.8-.6,1.4-1.4,1.9-2.3l.2-.4h.5v2.5h3.8v1.4h-3.8v5.9c0,1.8,.3,2.8,2,2.8,.5,0,1-.1,1.4-.3l.2-.1,.2,.5-.1,.1c-.9,.9-2,1.3-3.1,1.2h0Z" style="fill:#a90533;" />
        <path id="i" d="M105.7,66.5v-.5h.2c.4,0,.7-.2,1-.5,.3-.4,.4-1.4,.4-3.3v-3.2c.1-.8,0-1.6-.2-2.3-.3-.3-.6-.4-1-.4h-.3v-.6h.5c.7,0,1.3-.1,2-.2,.4-.1,.8-.2,1.2-.4l.1-.1,.2,.1v.9c1-.7,2.1-1.1,3.3-1.1,2,0,3.4,.9,3.8,2.7,.1,.7,.2,1.3,.1,2v3.3c0,1.9,.1,2.4,.4,2.7,.3,.2,.6,.3,.9,.3h.2v.5h-.6c-.8,0-1.5-.1-2.2-.1s-1.6,0-2.6,.1h-.3v-.4h.2c.3,0,.7-.2,.9-.4,.4-.4,.4-1.2,.4-2v-2.4c0-.9,0-1.7-.1-2.6,0-.6-.3-1.2-.7-1.6s-1.1-.6-1.7-.5c-.7,0-1.5,.1-2.1,.5v5.9c0,1.9,.1,2.4,.4,2.7,.2,.2,.6,.3,.9,.3h.2v.5h-.6c-.8,0-1.5-.1-2.2-.1s-1.6,0-2.6,.1l-.1,.1h0Z" style="fill:#a90533;" />
        <path id="j" d="M119.8,66.5v-.5h.2c.4,0,.7-.2,1-.5,.4-.4,.4-1.3,.4-3.3v-5.6h-1.5v-.6l.2-.1c.5-.2,.9-.4,1.3-.7,0-1,0-2,.2-3,.4-2.3,2-3.5,4.5-3.5,1,0,2,.3,2.8,.9l.1,.1v.2l-1.1,1.6h-.3l-.1-.1c-.3-.8-1.1-1.3-1.9-1.3-.4,0-.8,.1-1.1,.4-.5,.5-.6,1.2-.6,2.7v2.2h2.5v1.4h-2.5v6.3c-.1,.8,0,1.7,.2,2.5,.3,.5,1.3,.5,1.6,.5h.2v.6h-.2c-1.2-.1-2.2-.1-2.8-.1-.8,0-1.8,0-2.8,.1l-.3-.2h0Z" style="fill:#a90533;" />
        <path id="k" d="M132.9,56.2c-.6,0-1.1,.2-1.6,.5-.9,.8-1.4,2.2-1.4,4.1,0,.8,.1,4.6,2.9,4.6,.6,0,1.1-.2,1.6-.5,.9-.8,1.4-2.2,1.4-4.1,0-.8-.1-4.6-2.9-4.6Zm-.1,10.5c-3.4,0-5.5-2.1-5.5-5.7,0-2.8,1.5-6.1,5.8-6.1,3.4,0,5.5,2.2,5.5,5.8-.1,2.7-1.6,5.9-5.8,6h0Z" style="fill:#a90533;" />
        <path id="l" d="M139.6,66.5v-.6h.2c.4,0,.7-.2,1-.5,.4-.4,.4-1.3,.4-3.2v-3.2c.1-.8,0-1.6-.2-2.3-.3-.3-.6-.4-1-.4h-.3v-.7h.4c.7,0,1.3-.1,2-.2l1.2-.3,.1-.1,.2,.1v1c.7-.7,1.6-1.1,2.6-1.1,.7,0,1.4,.2,1.9,.6l.1,.1v.4l-1,1.8h-.5l-.1-.1c-.4-.6-1.1-1-1.8-.9-.4,0-.9,.1-1.2,.4v5.7c-.1,.8,0,1.7,.2,2.5,.3,.5,1.3,.5,1.6,.5h.2v.6h-.2c-1.2-.1-2.2-.1-2.8-.1-.8,0-1.8,0-2.8,.1l-.2-.1h0Z" style="fill:#a90533;" />
        <path id="m" d="M154.8,56.2c-2.2,0-3.3,1.5-3.3,4.6,0,1.2,.4,4.2,3.6,4.2h.1c.6,0,1.2-.2,1.8-.5v-7.5c-.6-.5-1.4-.8-2.2-.8h0Zm2.6,10.4l-.3-.1v-1c-.9,.7-2,1-3.2,1.1-3.1,0-5.1-2.1-5.1-5.5,0-1,.2-2.1,.6-3,1-2.1,3.1-3.3,5.4-3.2,.7,0,1.5,.1,2.2,.2v-2.4c.1-.8,0-1.7-.2-2.5-.3-.3-.6-.4-1-.4h-.3v-.4h.2l2.4-.3c.4-.1,.8-.1,1.1-.3h.1l.2,.1v.1c-.1,.9-.1,2.9-.1,4.4v9.2c-.1,.8,0,1.7,.2,2.5,.3,.3,.6,.4,1,.4h.3v.6h-.2c-.7,0-1.5,.1-2.2,.2-.3,.1-.7,.2-1.1,.3h0Z" style="fill:#a90533;" />
        <g id="n" transform="translate(97.000000, 0.000000)">
          <g id="o">
            <text transform="translate(172 66)" style="fill:#231f20; font-family:SourceSansPro-Semibold, &apos;Source Sans Pro&apos;; font-size:18px; font-weight:700; isolation:isolate;">
              <tspan x="0" y="0">%PLACEHOLDER1%</tspan>
            </text>
          </g>
        </g>
        <g id="p" transform="translate(0.000000, 22.000000)">
          <g id="q">
            <text transform="translate(75 85)" style="fill:#231f20; font-family:SourceSansPro-Regular, 'Source Sans Pro'; font-size:15px; isolation:isolate;">
              <tspan x="0" y="0">%PLACEHOLDER2%</tspan>
            </text>
          </g>
        </g>
      </g>
    </g>
  </g>
</svg>