<?xml version="1.0" encoding="UTF-8"?>
<svg width="800px" height="137px" viewBox="0 0 450 137" version="1.1" xmlns="http://www.w3.org/2000/svg" xmlns:xlink="http://www.w3.org/1999/xlink">
    <title>stanford-line2-4</title>
    <g id="stanford-line2-4" stroke="none" stroke-width="1" fill="none" fill-rule="evenodd">
        <g>
            <rect id="Rectangle" x="0" y="0" width="450" height="137"></rect>
            <g id="SU_units_2Ln" transform="translate(75.000000, 51.510000)">
                <line x1="92.71" y1="31.2" x2="92.71" y2="2.30926389e-14" id="Path" stroke="#FFFFFF" stroke-width="0.72"></line>
                <path d="M25.87,12.15 C25.011722,12.3782582 24.1777693,12.6897345 23.38,13.08 C22.729116,13.4286225 22.3391496,14.1227627 22.38,14.86 C22.3358086,15.317091 22.503432,15.7692404 22.8349039,16.0870634 C23.1663758,16.4048865 23.6251698,16.5533609 24.08,16.49 C24.7158836,16.504404 25.3408081,16.3228617 25.87,15.97 L25.87,12.14 L25.87,12.15 Z M23.16,18.09 C20.09,18.09 19.86,15.76 19.86,15.09 C19.8063786,13.7096648 20.7022451,12.4711397 22.03,12.09 C24.03,11.35 24.48,11.26 25.87,10.83 L25.87,10.47 C25.9092424,10.0481443 25.8615951,9.62272195 25.73,9.22 C25.4158926,8.36637345 24.5653366,7.83220784 23.66,7.92 C22.7828658,7.89687345 21.9598156,8.34269229 21.5,9.09 L21.38,9.32 L20.81,8.99 L20.87,8.81 C21.4778095,7.26575649 23.0261417,6.3026207 24.68,6.44 C25.9344428,6.29674282 27.1698803,6.83438693 27.92,7.85 C28.3440081,8.7650415 28.5198914,9.77550842 28.43,10.78 C28.43,11.78 28.43,12.84 28.43,13.71 C28.43,14.31 28.43,14.83 28.43,15.15 C28.43,15.95 28.55,16.57 29.22,16.57 C29.3527757,16.5811461 29.4848784,16.5418724 29.59,16.46 L29.77,16.3 L30.14,16.73 L30.02,16.89 C29.5297384,17.6504646 28.6945473,18.118621 27.79,18.14 C26.9736434,18.2323128 26.21256,17.7135856 26,16.92 C25.266318,17.6891539 24.2426939,18.1138491 23.18,18.09 L23.16,18.09 Z" id="Shape" fill="#FFFFFF" fill-rule="nonzero"></path>
                <path d="M4.44,18.06 C3.1760391,18.0886707 1.91594604,17.9096226 0.71,17.53 L0.54,17.47 L0.54,16.65 C0.54,15.56 0.54,15.13 0.54,14.78 L0.54,14.21 L1.21,14.21 L1.21,14.45 C1.22191739,14.9478458 1.4016282,15.4270746 1.72,15.81 C2.4473613,16.4219752 3.38092585,16.7331634 4.33,16.68 C6.49,16.68 7.49,15.87 7.49,14.12 C7.49,12.62 6.56,11.99 5.28,11.12 L5.08,10.98 L3.73,10.08 C1.85,8.83 0.89,7.83 0.89,5.84 C0.89,4.84 1.26,1.68996423 6,1.68996423 C7.17156631,1.68793997 8.34159738,1.77485656 9.5,1.95 L9.71,1.95 L9.71,2.15 C9.71,2.15 9.71,2.77 9.71,3.44 C9.71,4.11 9.71,4.44 9.71,4.9 L9.71,5.26 L9.14,5.26 L9.14,5.04 C9.13808392,4.5299045 8.94133397,4.03981825 8.59,3.67 C7.85150448,3.15651207 6.95584398,2.91932135 6.06,3 C3.55,3 3.26,4.29 3.26,5.26 C3.26,6.59 3.94,7.04 5.43,8.03 L7.15,9.16 C8.61,10.16 9.98,11.05 9.98,13.47 C9.98,17.57 6.16,18.01 4.52,18.01 L4.44,18.06 Z" id="Path" fill="#FFFFFF" fill-rule="nonzero"></path>
                <path d="M15.66,18.13 C13.91,18.13 12.95,17.51 12.52,16.13 C12.3667863,15.3734926 12.3063407,14.6011322 12.34,13.83 C12.34,12.02 12.34,10.57 12.34,8.89 L12.34,8.11 L10.89,8.11 L10.89,7.66 L11.04,7.6 C11.4977581,7.43311796 11.9238245,7.18965145 12.3,6.88 C13.050534,6.23654099 13.6803819,5.46446937 14.16,4.6 L14.41,4.17 L14.9,4.17 L14.9,6.71 L18.75,6.71 L18.75,8.11 L14.9,8.11 L14.9,14.04 C14.9,15.81 15.23,16.83 16.9,16.83 C17.3854339,16.816754 17.8625629,16.7008798 18.3,16.49 L18.53,16.37 L18.73,16.83 L18.63,16.94 C17.860379,17.7674713 16.7571184,18.2014205 15.63,18.12 L15.66,18.13 Z" id="Path" fill="#FFFFFF" fill-rule="nonzero"></path>
                <path d="M31,17.99 L31,17.49 L31.22,17.49 C31.5985697,17.4570543 31.9530555,17.290446 32.22,17.02 C32.57,16.63 32.59,15.66 32.59,13.74 L32.59,10.49 C32.6888996,9.71982043 32.6137195,8.9372642 32.37,8.2 C32.1029523,7.94038229 31.7423041,7.79972949 31.37,7.81 L31.3,7.81 L31.08,7.81 L31.08,7.17 L31.34,7.17 L31.51,7.17 C32.1814703,7.15772775 32.8506251,7.0874665 33.51,6.96 C33.9286835,6.89115644 34.333747,6.75613528 34.71,6.56 L34.83,6.5 L35.06,6.63 L35.06,7.53 C36.0050504,6.82567452 37.1513644,6.44356984 38.33,6.44 C40.33,6.44 41.7,7.44 42.08,9.12 C42.1879474,9.78105018 42.2381369,10.4502435 42.23,11.12 L42.23,14.42 C42.23,16.29 42.3,16.81 42.65,17.14 C42.9078462,17.3264663 43.2126067,17.4372883 43.53,17.46 L43.75,17.46 L43.75,17.99 L43.19,17.99 C42.38,17.99 41.68,17.91 40.94,17.91 C40.2,17.91 39.39,17.91 38.38,18 L38.12,18 L38.12,17.49 L38.32,17.49 C38.6667618,17.4629674 38.9959501,17.3263893 39.26,17.1 C39.63,16.74 39.64,15.87 39.67,15.1 C39.67,14.97 39.67,14.84 39.67,14.71 C39.67,14.28 39.67,13.4 39.67,12.71 C39.6847979,11.8456913 39.6547576,10.9811967 39.58,10.12 C39.587877,9.50330294 39.3280612,8.91346714 38.8677339,8.50300869 C38.4074067,8.09255023 37.7917658,7.90177045 37.18,7.98 C36.4439727,7.95669505 35.7142055,8.12192536 35.06,8.46 L35.06,14.39 C35.06,16.26 35.14,16.78 35.49,17.11 C35.7439919,17.2966288 36.0456131,17.4075699 36.36,17.43 L36.58,17.43 L36.58,17.96 L35.98,17.96 C35.2,17.96 34.52,17.88 33.81,17.88 C33.1,17.88 32.22,17.88 31.21,17.97 L30.96,17.97 L31,17.99 Z" id="Path" fill="#FFFFFF" fill-rule="nonzero"></path>
                <path d="M45.13,17.99 L45.13,17.49 L45.35,17.49 C45.7298279,17.4699241 46.0875981,17.3053498 46.35,17.03 C46.7,16.64 46.71,15.68 46.71,13.76 L46.71,8.16 L45.25,8.16 L45.25,7.49 L45.4,7.43 C45.870847,7.26016862 46.315262,7.024494 46.72,6.73 C46.7074721,5.72727744 46.7642741,4.72488818 46.89,3.73 C47.34,1.39 48.89,0.21 51.43,0.21 C52.4182081,0.194742582 53.3853686,0.496104197 54.19,1.07 L54.27,1.14 L54.27,1.38 L53.15,2.94 L52.88,2.94 L52.82,2.8 C52.5527032,2.02142697 51.8231547,1.49631239 51,1.49 C50.5835462,1.47735849 50.1772525,1.61991767 49.86,1.89 C49.37,2.38 49.29,3.11 49.29,4.55 L49.29,6.74 L51.81,6.74 L51.81,8.14 L49.24,8.14 L49.24,14.4 C49.1414182,15.2449059 49.2267003,16.101138 49.49,16.91 C49.8,17.39 50.76,17.43 51.05,17.43 L51.28,17.43 L51.28,18.03 L51.03,18.03 C49.79,17.97 48.86,17.94 48.2,17.94 C47.36,17.94 46.4,17.94 45.39,18.03 L45.13,18.03 L45.13,17.99 Z" id="Path" fill="#FFFFFF" fill-rule="nonzero"></path>
                <path d="M58.27,7.68 C57.6907704,7.64994415 57.1208872,7.83515617 56.67,8.2 C55.76,8.96 55.31,10.34 55.31,12.31 C55.31,13.07 55.45,16.87 58.23,16.87 C58.8073473,16.898226 59.3754855,16.7171319 59.83,16.36 C60.74,15.6 61.2,14.21 61.2,12.24 C61.2,11.48 61.06,7.68 58.27,7.68 Z M58.13,18.18 C54.68,18.18 52.62,16.03 52.62,12.43 C52.62,9.64 54.13,6.43 58.37,6.43 C61.82,6.43 63.88,8.58 63.88,12.17 C63.88,14.97 62.37,18.23 58.13,18.23 L58.13,18.18 Z" id="Shape" fill="#FFFFFF" fill-rule="nonzero"></path>
                <path d="M65,17.99 L65,17.42 L65.22,17.42 C65.6015093,17.3983046 65.9598415,17.2298884 66.22,16.95 C66.57,16.56 66.59,15.63 66.59,13.71 L66.59,10.49 C66.6888996,9.71982043 66.6137195,8.9372642 66.37,8.2 C66.1055674,7.93634462 65.7431131,7.79498746 65.37,7.81 L65.28,7.81 L65.06,7.81 L65.06,7.13 L65.49,7.13 C66.1619877,7.11792032 66.8314542,7.044279 67.49,6.91 C67.9042837,6.85015393 68.3102937,6.74277939 68.7,6.59 L68.83,6.59 L69.03,6.69 L69.03,7.69 C69.7380705,7.03188804 70.6734582,6.67350194 71.64,6.69 C72.3298549,6.65484292 73.0078163,6.87964067 73.54,7.32 L73.61,7.39 L73.61,7.75 L72.61,9.49 L72.2,9.49 L72.13,9.38 C71.7345047,8.76765737 71.0371713,8.41899068 70.31,8.47 C69.8728508,8.46152936 69.4435963,8.58716481 69.08,8.83 L69.08,14.52 C68.9841666,15.3576436 69.0659437,16.2060807 69.32,17.01 C69.64,17.49 70.6,17.52 70.88,17.52 L71.12,17.52 L71.12,18.15 L70.87,18.15 C69.63,18.09 68.7,18.06 68.03,18.06 C67.19,18.06 66.24,18.06 65.23,18.15 L64.97,18.15 L65,17.99 Z" id="Path" fill="#FFFFFF" fill-rule="nonzero"></path>
                <path d="M80.13,7.75 C77.92,7.75 76.85,9.26 76.85,12.36 C76.85,13.62 77.21,16.54 80.49,16.54 L80.59,16.54 C81.2171043,16.5498154 81.8353252,16.3909429 82.38,16.08 L82.38,8.49 C81.7589628,7.95092376 80.9507178,7.67791657 80.13,7.73 L80.13,7.75 Z M82.74,18.15 L82.43,18.04 L82.43,17.04 C81.5204767,17.7212975 80.4163747,18.0928365 79.28,18.1 C76.17,18.1 74.17,15.95 74.17,12.62 C74.1619986,11.5884125 74.3697776,10.5665486 74.78,9.62 C75.7605499,7.54980642 77.892229,6.27474652 80.18,6.39 C80.9189973,6.38644355 81.6563406,6.46017788 82.38,6.61 L82.38,4.21 C82.4794633,3.38032977 82.4045298,2.53903116 82.16,1.74 C81.8945459,1.4789517 81.5318274,1.34111865 81.16,1.36 L81.07,1.36 L80.86,1.36 L80.86,0.85 L81.1,0.85 C81.9117782,0.78639606 82.7195903,0.679577938 83.52,0.53 C83.8991915,0.475508634 84.2736294,0.391928739 84.64,0.28 L84.75,0.28 L84.95,0.39 L84.95,0.49 C84.88,1.42 84.86,3.41 84.86,4.91 L84.86,14.12 C84.7676241,14.9596859 84.8423947,15.8093524 85.08,16.62 C85.3413615,16.8916061 85.703082,17.0435287 86.08,17.04 L86.38,17.04 L86.38,17.65 L86.15,17.65 C85.4126076,17.6809831 84.6778559,17.7577981 83.95,17.88 C83.5587584,17.9269632 83.1733927,18.0140894 82.8,18.14 L82.7,18.14 L82.74,18.15 Z" id="Shape" fill="#FFFFFF" fill-rule="nonzero"></path>
                <g id="%PLACEHOLDER2%" transform="translate(99.000000, 15.490000)" fill="#FFFFFF" fill-rule="nonzero" font-family="SourceSansPro-Regular, Source Sans Pro" font-size="15" font-weight="normal">
                    <g id="Group">
                        <text id="%PLACEHOLDER2%">
                            <tspan x="0" y="15">%PLACEHOLDER2%</tspan>
                        </text>
                    </g>
                </g>
                <g id="%PLACEHOLDER1%" transform="translate(40, 19.490000)" fill="#FFFFFF" fill-rule="nonzero" font-family="SourceSansPro-Semibold, Source Sans Pro" font-size="11.5" font-weight="500">
                    <g id="Group">
                        <text id="%PLACEHOLDER1%">
                            <tspan text-anchor="end" x="10%" y="11">%PLACEHOLDER1%</tspan>
                        </text>
                    </g>
                </g>
            </g>
        </g>
    </g>
</svg>