<?xml version="1.0" encoding="UTF-8"?>
<svg width="800px" height="137px" viewBox="0 0 450 137" version="1.1" xmlns="http://www.w3.org/2000/svg" xmlns:xlink="http://www.w3.org/1999/xlink">
    <title>stanford-line1-3</title>
    <g id="stanford-line1-3" stroke="none" stroke-width="1" fill="none" fill-rule="evenodd">
        <g>
            <rect id="Rectangle" x="0" y="0" width="450" height="137"></rect>
            <g id="SU_units_1Ln" transform="translate(110.000000, 58.729042)" fill-rule="nonzero">
                <path d="M25.32,11.9109577 C24.4644242,12.1419469 23.633732,12.456806 22.84,12.8509577 C22.1872998,13.1977239 21.7966194,13.8931349 21.84,14.6309577 C21.792501,15.089696 21.958669,15.5447843 22.2905849,15.8649855 C22.6225008,16.1851868 23.0832637,16.3349023 23.54,16.2709577 C24.17336,16.2899553 24.7964717,16.1079227 25.32,15.7509577 L25.32,11.9209577 L25.32,11.9109577 Z M22.61,17.8509577 C19.55,17.8509577 19.31,15.5309577 19.31,14.8509577 C19.2575721,13.4677897 20.1582666,12.2283018 21.49,11.8509577 C23.49,11.1109577 23.94,11.0209577 25.32,10.5809577 L25.32,10.2309577 C25.3562159,9.80652029 25.3121128,9.37905958 25.19,8.97095768 C24.8758926,8.11733114 24.0253366,7.58316553 23.12,7.67095768 C22.2408414,7.64993406 21.4173278,8.09981651 20.96,8.85095768 L20.83,9.08095768 L20.27,8.74095768 L20.32,8.57095768 C20.9334371,7.02559544 22.4824629,6.06049561 24.14,6.19095768 C25.394272,6.04511081 26.6295007,6.58815253 27.37,7.61095768 C27.8039289,8.52300713 27.9835829,9.53528839 27.89,10.5409577 C27.89,11.5409577 27.89,12.6009577 27.84,13.4709577 C27.84,14.0709577 27.84,14.5909577 27.84,14.9109577 C27.84,15.7109577 27.96,16.3309577 28.63,16.3309577 C28.7638328,16.337361 28.8954005,16.2946904 29,16.2109577 L29.18,16.0609577 L29.55,16.4809577 L29.43,16.6409577 C28.9420488,17.4052394 28.1064582,17.8773669 27.2,17.9009577 C26.4242997,17.9765423 25.7004675,17.5023074 25.46,16.7609577 C24.7207848,17.526945 23.6941701,17.9477482 22.63,17.9209577 L22.61,17.8509577 Z" id="Shape" fill="#000000"></path>
                <path d="M3.9,17.8309577 C2.63512419,17.8623695 1.37403489,17.6797989 0.17,17.2909577 L-7.99360578e-14,17.2909577 L-7.99360578e-14,16.4709577 C-7.99360578e-14,15.3709577 -7.99360578e-14,14.9409577 -7.99360578e-14,14.5909577 L-7.99360578e-14,14.0309577 L0.67,14.0309577 L0.67,14.2709577 C0.684734281,14.7700145 0.868020028,15.2493772 1.19,15.6309577 C1.91934568,16.2393815 2.85146914,16.5500894 3.8,16.5009577 C5.96,16.5009577 6.96,15.6909577 6.96,13.9309577 C6.96,12.4309577 6.03,11.8109577 4.75,10.9309577 L4.55,10.7909577 L3.19,9.88095768 C1.31,8.64095768 0.36,7.64095768 0.36,5.65095768 C0.36,4.65095768 0.73,1.50091035 5.46,1.50091035 C6.63489702,1.4985838 7.80827563,1.58550073 8.97,1.76095768 L9.17,1.76095768 L9.17,1.96095768 C9.17,1.96095768 9.17,2.58095768 9.17,3.25095768 C9.17,3.92095768 9.17,4.25095768 9.17,4.71095768 L9.17,5.07095768 L8.59,5.07095768 L8.59,4.84095768 C8.58554676,4.33432399 8.38897746,3.84826173 8.04,3.48095768 C7.30150448,2.96746976 6.40584398,2.73027903 5.51,2.81095768 C3,2.81095768 2.71,4.10095768 2.71,5.07095768 C2.71,6.40095768 3.39,6.85095768 4.88,7.83095768 L6.59,8.97095768 C8.05,9.97095768 9.43,10.8609577 9.43,13.2809577 C9.43,17.3709577 5.61,17.8209577 3.97,17.8209577 L3.9,17.8309577 Z" id="Path" fill="#000000"></path>
                <path d="M15.12,17.9009577 C13.37,17.9009577 12.4,17.2709577 11.97,15.9009577 C11.825613,15.1433083 11.7685738,14.3716019 11.8,13.6009577 C11.8,11.7909577 11.8,10.3409577 11.8,8.66095768 L11.8,7.87095768 L10.35,7.87095768 L10.35,7.43095768 L10.49,7.37095768 C10.9486737,7.19947581 11.3773113,6.95646866 11.76,6.65095768 C12.5130155,6.00863659 13.140301,5.23215889 13.61,4.36095768 L13.87,3.93095768 L14.36,3.93095768 L14.36,6.47095768 L18.21,6.47095768 L18.21,7.87095768 L14.36,7.87095768 L14.36,13.8109577 C14.36,15.5809577 14.69,16.5909577 16.36,16.5909577 C16.8441278,16.5851881 17.3214404,16.4760881 17.76,16.2709577 L18,16.1509577 L18.19,16.6009577 L18.1,16.7209577 C17.330379,17.548429 16.2271184,17.9823781 15.1,17.9009577 L15.12,17.9009577 Z" id="Path" fill="#000000"></path>
                <path d="M30.5,17.7609577 L30.5,17.2709577 L30.71,17.2709577 C31.0904904,17.2452841 31.4474288,17.0775231 31.71,16.8009577 C32.06,16.4109577 32.08,15.4509577 32.08,13.5309577 L32.08,10.2709577 C32.08,8.88095768 32.08,8.27095768 31.85,7.98095768 C31.588399,7.7129923 31.2239472,7.5708561 30.85,7.59095768 L30.76,7.59095768 L30.54,7.59095768 L30.54,6.94095768 L30.8,6.94095768 L30.97,6.94095768 C31.6416691,6.92402653 32.3107106,6.85043196 32.97,6.72095768 C33.3879504,6.66219535 33.7914135,6.52657753 34.16,6.32095768 L34.29,6.26095768 L34.52,6.40095768 L34.52,7.27095768 C35.4675912,6.5727177 36.6129461,6.19443535 37.79,6.19095768 C39.79,6.19095768 41.16,7.14095768 41.54,8.87095768 C41.6479474,9.53200786 41.6981369,10.2012012 41.69,10.8709577 L41.69,14.1709577 C41.69,16.0309577 41.76,16.5609577 42.11,16.8809577 C42.3602521,17.0744453 42.6640174,17.186175 42.98,17.2009577 L43.21,17.2009577 L43.21,17.7209577 L42.65,17.7209577 C41.83,17.7209577 41.14,17.6409577 40.4,17.6409577 C39.66,17.6409577 38.85,17.6409577 37.84,17.7309577 L37.58,17.7309577 L37.58,17.2709577 L37.78,17.2709577 C38.1256055,17.2467587 38.4546699,17.1137327 38.72,16.8909577 C39.0541302,16.2804884 39.1969811,15.5836548 39.13,14.8909577 C39.13,14.7709577 39.13,14.6409577 39.13,14.5009577 C39.13,14.0809577 39.13,13.1909577 39.13,12.5009577 C39.1446135,11.6399802 39.1145732,10.778824 39.04,9.92095768 C39.047877,9.30426062 38.7880612,8.71442483 38.3277339,8.30396637 C37.8674067,7.89350791 37.2517658,7.70272814 36.64,7.78095768 C35.9054041,7.76057454 35.1771536,7.9220263 34.52,8.25095768 L34.52,14.1909577 C34.52,16.0509577 34.6,16.5809577 34.95,16.9009577 C35.1985985,17.0974156 35.5033521,17.2095089 35.82,17.2209577 L36.04,17.2209577 L36.04,17.7409577 L35.44,17.7409577 C34.66,17.7409577 33.98,17.6709577 33.27,17.6709577 C32.56,17.6709577 31.68,17.6709577 30.67,17.7609577 L30.42,17.7609577 L30.5,17.7609577 Z" id="Path" fill="#000000"></path>
                <path d="M44.59,17.7609577 L44.59,17.2109577 L44.81,17.2109577 C45.1886201,17.1860546 45.5447186,17.0222492 45.81,16.7509577 C46.16,16.3509577 46.17,15.4009577 46.17,13.4809577 L46.17,7.87095768 L44.76,7.87095768 L44.76,7.27095768 L44.91,7.21095768 C45.3771903,7.03296737 45.8205594,6.79784742 46.23,6.51095768 C46.2179474,5.50824567 46.2747476,4.50588908 46.4,3.51095768 C46.85,1.18095768 48.4,0.000957683155 50.94,0.000957683155 C51.9258342,-0.0193111529 52.8913615,0.282635559 53.69,0.860957683 L53.78,0.930957683 L53.78,1.17095768 L52.65,2.73095768 L52.39,2.73095768 L52.32,2.59095768 C52.0569487,1.77012925 51.2815026,1.22323573 50.42,1.25095768 C50.0023895,1.24204512 49.5962737,1.38810432 49.28,1.66095768 C48.79,2.15095768 48.71,2.88095768 48.71,4.32095768 L48.71,6.50095768 L51.23,6.50095768 L51.23,7.90095768 L48.7,7.90095768 L48.7,14.1709577 C48.6072296,15.0152313 48.6889186,15.8695624 48.94,16.6809577 C49.26,17.1609577 50.22,17.1909577 50.5,17.1909577 L50.76,17.1909577 L50.76,17.7909577 L50.51,17.7909577 C49.27,17.7309577 48.34,17.7009577 47.67,17.7009577 C46.83,17.7009577 45.88,17.7009577 44.87,17.7909577 L44.61,17.7909577 L44.59,17.7609577 Z" id="Path" fill="#000000"></path>
                <path d="M57.76,7.45095768 C57.1821761,7.41903658 56.6127648,7.60053643 56.16,7.96095768 C55.25,8.72095768 54.79,10.1109577 54.79,12.0809577 C54.79,12.8409577 54.93,16.6409577 57.72,16.6409577 C58.2973473,16.6691837 58.8654855,16.4880896 59.32,16.1309577 C60.22,15.3709577 60.68,13.9809577 60.68,12.0109577 C60.68,11.2509577 60.54,7.45095768 57.76,7.45095768 Z M57.62,17.9509577 C54.17,17.9509577 52.11,15.8009577 52.11,12.2009577 C52.11,9.40095768 53.61,6.14095768 57.86,6.14095768 C61.31,6.14095768 63.37,8.29095768 63.37,11.8909577 C63.37,14.6809577 61.86,17.9509577 57.62,17.9509577 Z" id="Shape" fill="#000000"></path>
                <path d="M64.43,17.7609577 L64.43,17.1809577 L64.65,17.1809577 C65.030242,17.1543272 65.3868505,16.9867211 65.65,16.7109577 C66,16.3209577 66.02,15.3909577 66.02,13.4709577 L66.02,10.2709577 C66.1188996,9.50077811 66.0437195,8.71822188 65.8,7.98095768 C65.57,7.64095768 65.06,7.61095768 64.8,7.59095768 L64.72,7.59095768 L64.5,7.59095768 L64.5,6.91095768 L64.92,6.91095768 C65.5916691,6.89402653 66.2607106,6.82043196 66.92,6.69095768 C67.3483086,6.5998323 67.764475,6.45887269 68.16,6.27095768 L68.29,6.21095768 L68.49,6.32095768 L68.49,7.32095768 C69.1980705,6.66284573 70.1334582,6.30445962 71.1,6.32095768 C71.7851621,6.28553424 72.4589567,6.5065674 72.99,6.94095768 L73.07,7.02095768 L73.07,7.37095768 L72.07,9.12095768 L71.66,9.12095768 L71.59,9.01095768 C71.2002731,8.38385439 70.4967466,8.0224801 69.76,8.07095768 C69.3222403,8.05781856 68.8915933,8.1838616 68.53,8.43095768 L68.53,14.1209577 C68.4365429,14.9586208 68.5182725,15.8065654 68.77,16.6109577 C69.09,17.0809577 70.05,17.1209577 70.33,17.1209577 L70.57,17.1209577 L70.57,17.7409577 L70.32,17.7409577 C69.07,17.6809577 68.15,17.6509577 67.48,17.6509577 C66.64,17.6509577 65.69,17.6509577 64.68,17.7409577 L64.42,17.7409577 L64.43,17.7609577 Z" id="Path" fill="#000000"></path>
                <path d="M79.58,7.52095768 C77.38,7.52095768 76.31,9.03095768 76.31,12.1309577 C76.31,13.3809577 76.66,16.3109577 79.94,16.3109577 L80.05,16.3109577 C80.6771043,16.3207731 81.2953252,16.1619006 81.84,15.8509577 L81.84,8.27095768 C81.2186821,7.72547066 80.4046723,7.45173288 79.58,7.51095768 L79.58,7.52095768 Z M82.19,17.9109577 L81.89,17.8109577 L81.89,16.8109577 C80.9894979,17.5011665 79.8941559,17.8896104 78.76,17.9209577 C75.66,17.9209577 73.6499725,15.7709577 73.6499725,12.4309577 C73.6471991,11.3988643 73.8583041,10.3773884 74.27,9.43095768 C75.2479398,7.3643539 77.376755,6.09259415 79.66,6.21095768 C80.4017122,6.2095871 81.1418204,6.27991412 81.87,6.42095768 L81.87,4.02095768 C81.9637697,3.19451752 81.8889274,2.35764444 81.65,1.56095768 C81.388399,1.2929923 81.0239472,1.1508561 80.65,1.17095768 L80.56,1.17095768 L80.34,1.17095768 L80.34,0.670957683 L80.58,0.670957683 C81.3917116,0.606722312 82.1994904,0.499908591 83,0.350957683 C83.3805188,0.298832435 83.7554331,0.211798755 84.12,0.0909576832 L84.23,0.0909576832 L84.43,0.210957683 L84.43,0.320957683 C84.35,1.25095768 84.34,3.24095768 84.34,4.73095768 L84.34,13.9509577 C84.2484158,14.7906521 84.3231728,15.6401635 84.56,16.4509577 C84.8195434,16.724078 85.1834288,16.873271 85.56,16.8609577 L85.87,16.8609577 L85.87,17.4709577 L85.63,17.4709577 C84.8955552,17.4968251 84.1637941,17.5736768 83.44,17.7009577 C83.0485351,17.7466207 82.6630349,17.8337772 82.29,17.9609577 L82.18,17.9609577 L82.19,17.9109577 Z" id="Shape" fill="#000000"></path>
                <g id="%PLACEHOLDER1%" transform="translate(95.760000, 3.270958)" fill="#000000" font-family="SourceSansPro-Regular, Source Sans Pro" font-size="14" font-weight="normal">
                    <g id="Group">
                        <text id="%PLACEHOLDER1%">
                            <tspan x="0" y="14">%PLACEHOLDER1%</tspan>
                        </text>
                    </g>
                </g>
            </g>
        </g>
    </g>
</svg>