<?xml version="1.0" encoding="UTF-8"?>
<svg width="800px" height="137px" viewBox="0 0 450 137" version="1.1" xmlns="http://www.w3.org/2000/svg" xmlns:xlink="http://www.w3.org/1999/xlink">
    <title>stanford-line2-8</title>
    <g id="stanford-line2-8" stroke="none" stroke-width="1" fill="none" fill-rule="evenodd">
        <g>
            <rect id="Rectangle" x="0" y="0" width="450" height="137"></rect>
            <g id="SU_units_2Ln" transform="translate(95.000000, 54.000000)">
                <path d="M25.3,19.07 C24.4453324,19.2994725 23.6148136,19.610917 22.82,20 C22.169116,20.3486225 21.7791496,21.0427627 21.82,21.78 C21.7770126,22.2331318 21.9421007,22.6812711 22.2687764,22.9982243 C22.5954521,23.3151775 23.0483734,23.4666544 23.5,23.41 C24.13336,23.4289976 24.7564717,23.246965 25.28,22.89 L25.28,19.07 L25.3,19.07 Z M22.6,25 C19.53,25 19.3,22.67 19.3,22 C19.2463786,20.6196648 20.1422451,19.3811397 21.47,19 C23.47,18.26 23.92,18.17 25.3,17.74 L25.3,17.38 C25.3356688,16.9588655 25.2915642,16.5347822 25.17,16.13 C24.8558926,15.2763735 24.0053366,14.7422078 23.1,14.83 C22.2427219,14.8050794 21.4334149,15.2248601 20.96,15.94 L20.84,16.17 L20.27,15.83 L20.33,15.66 C20.9344212,14.1118083 22.4835722,13.1440972 24.14,13.28 C25.394272,13.1341531 26.6295007,13.6771948 27.37,14.7 C27.7958293,15.6144709 27.9717983,16.6254301 27.88,17.63 C27.88,18.63 27.88,19.68 27.88,20.55 C27.88,21.15 27.88,21.68 27.88,21.99 C27.88,22.79 28.01,23.41 28.67,23.41 C28.8043432,23.4204502 28.9373625,23.3773088 29.04,23.29 L29.23,23.14 L29.6,23.56 L29.47,23.72 C28.9708103,24.519957 28.0929225,25.0043089 27.15,25 C26.3768972,25.0745346 25.6564824,24.5998104 25.42,23.86 C24.679716,24.6160463 23.6577212,25.0291931 22.6,25 L22.6,25 Z" id="Shape" fill="#FFFFFF" fill-rule="nonzero"></path>
                <path d="M3.89,25 C2.62844464,25.0306663 1.37076668,24.8481002 0.17,24.46 L2.54019028e-13,24.41 L2.54019028e-13,23.59 C2.54019028e-13,22.49 2.54019028e-13,22.07 2.54019028e-13,21.72 L2.54019028e-13,21.15 L0.67,21.15 L0.67,21.39 C0.686462877,21.8869544 0.865638999,22.3647574 1.18,22.75 C1.91434341,23.3564682 2.84874896,23.6667479 3.8,23.62 C5.95,23.62 6.95,22.81 6.95,21.06 C6.95,19.56 6.03,18.93 4.75,18.06 L4.54,17.92 L3.19,17.02 C1.31,15.78 0.36,14.78 0.36,12.79 C0.36,11.79 0.73,8.63996423 5.46,8.63996423 C6.63156631,8.63793997 7.80159738,8.72485656 8.96,8.9 L9.17,8.9 L9.17,9.1 C9.17,9.1 9.17,9.72 9.17,10.39 C9.17,11.06 9.17,11.39 9.17,11.85 L9.17,12.2 L8.6,12.2 L8.6,11.98 C8.59554676,11.4733663 8.39897746,10.987304 8.05,10.62 C7.31458346,10.1080119 6.42258338,9.87085314 5.53,9.95 C3.02,9.95 2.72,11.24 2.72,12.2 C2.72,13.54 3.41,13.99 4.9,14.97 L6.61,16.1 C8.07,17.1 9.44,18 9.44,20.41 C9.44,24.5 5.62,24.95 3.98,24.95 L3.89,25 Z" id="Path" fill="#FFFFFF" fill-rule="nonzero"></path>
                <path d="M15.11,25.0500313 C13.36,25.0500313 12.39,24.42 11.96,23.05 C11.815613,22.2923506 11.7585738,21.5206443 11.79,20.75 C11.79,18.94 11.79,17.5 11.79,15.82 L11.79,15 L10.34,15 L10.34,14.56 L10.49,14.5 C10.9447426,14.3266795 11.3698084,14.0837848 11.75,13.78 C12.5030155,13.1376789 13.130301,12.3612012 13.6,11.49 L13.86,11.06 L14.35,11.06 L14.35,13.6 L18.19,13.6 L18.19,15 L14.35,15 L14.35,20.93 C14.35,22.7 14.68,23.71 16.35,23.71 C16.825927,23.7076885 17.2960671,23.6054841 17.73,23.41 L17.96,23.29 L18.16,23.75 L18.06,23.86 C17.2912205,24.6887053 16.1873431,25.122897 15.06,25.04 L15.11,25.0500313 Z" id="Path" fill="#FFFFFF" fill-rule="nonzero"></path>
                <path d="M30.47,24.9 L30.47,24.37 L30.69,24.37 C31.0695816,24.3489288 31.4270026,24.1845152 31.69,23.91 C32.04,23.52 32.06,22.55 32.06,20.63 L32.06,17.4 C32.158218,16.6298097 32.0830525,15.8474045 31.84,15.11 C31.5745459,14.8489517 31.2118274,14.7111186 30.84,14.73 L30.74,14.73 L30.53,14.73 L30.53,14 L30.78,14 L30.96,14 C31.6316499,13.9827852 32.3006677,13.9091932 32.96,13.78 C33.3774819,13.7192648 33.7805952,13.5837646 34.15,13.38 L34.28,13.32 L34.5,13.45 L34.5,14.35 C35.4485537,13.6536244 36.5932833,13.2755486 37.77,13.27 C39.77,13.27 41.14,14.27 41.51,15.94 C41.6177468,16.601074 41.667935,17.2702499 41.66,17.94 L41.66,21.23 C41.66,23.09 41.74,23.62 42.09,23.95 C42.3420626,24.138778 42.6453578,24.2468487 42.96,24.26 L43.18,24.26 L43.18,24.79 L42.62,24.79 C41.81,24.79 41.11,24.71 40.38,24.71 C39.65,24.71 38.83,24.71 37.82,24.8 L37.56,24.8 L37.56,24.28 L37.76,24.28 C38.1056055,24.255801 38.4346699,24.122775 38.7,23.9 C39.0353095,23.2899638 39.1782357,22.592763 39.11,21.9 C39.11,21.78 39.11,21.65 39.11,21.52 C39.11,21.09 39.11,20.21 39.11,19.52 C39.1264332,18.6587913 39.0930441,17.797353 39.01,16.94 C39.0212556,16.3222201 38.7624312,15.7302717 38.3012568,15.3190578 C37.8400823,14.907844 37.2224559,14.7182904 36.61,14.8 C35.8786867,14.7804428 35.1538718,14.9418944 34.5,15.27 L34.5,21.2 C34.5,23.06 34.58,23.59 34.93,23.92 C35.1820626,24.108778 35.4853578,24.2168487 35.8,24.23 L36.02,24.23 L36.02,24.76 L35.42,24.76 C34.64,24.76 33.96,24.69 33.25,24.69 C32.54,24.69 31.67,24.69 30.66,24.78 L30.4,24.78 L30.47,24.9 Z" id="Path" fill="#FFFFFF" fill-rule="nonzero"></path>
                <path d="M44.56,24.9 L44.56,24.36 L44.78,24.36 C45.1590961,24.3369838 45.5158416,24.1728808 45.78,23.9 C46.13,23.51 46.15,22.55 46.15,20.63 L46.15,15 L44.68,15 L44.68,14.37 L44.82,14.31 C45.2901201,14.1315544 45.7367448,13.8964888 46.15,13.61 C46.1282092,12.6070945 46.1850499,11.6040235 46.32,10.61 C46.76,8.28 48.32,7.1 50.84,7.1 C51.8285135,7.08261802 52.7963241,7.38418219 53.6,7.96 L53.69,8.03 L53.69,8.27 L52.57,9.83 L52.31,9.83 L52.24,9.69 C51.9733575,8.8731365 51.1987896,8.33093899 50.34,8.36 C49.923247,8.34541077 49.5162691,8.48821006 49.2,8.76 C48.71,9.25 48.63,9.98 48.63,11.42 L48.63,13.6 L51.15,13.6 L51.15,15 L48.66,15 L48.66,21.26 C48.5614182,22.1049059 48.6467003,22.961138 48.91,23.77 C49.22,24.25 50.18,24.28 50.46,24.28 L50.7,24.28 L50.7,24.89 L50.45,24.89 C49.21,24.83 48.28,24.8 47.62,24.8 C46.78,24.8 45.82,24.8 44.82,24.89 L44.56,24.89 L44.56,24.9 Z" id="Path" fill="#FFFFFF" fill-rule="nonzero"></path>
                <path d="M57.69,14.61 C57.1121761,14.5780789 56.5427648,14.7595787 56.09,15.12 C55.18,15.88 54.72,17.26 54.72,19.23 C54.72,19.99 54.86,23.79 57.64,23.79 C58.2173473,23.818226 58.7854855,23.6371319 59.24,23.28 C60.15,22.52 60.6,21.13 60.6,19.17 C60.6,18.4 60.46,14.61 57.69,14.61 L57.69,14.61 Z M57.54,25.09 C54.1,25.09 52.04,22.95 52.04,19.35 C52.04,16.56 53.54,13.35 57.78,13.35 C61.23,13.35 63.29,15.5 63.29,19.09 C63.29,21.89 61.78,25.09 57.54,25.09 Z" id="Shape" fill="#FFFFFF" fill-rule="nonzero"></path>
                <path d="M64.38,24.9 L64.38,24.33 L64.6,24.33 C64.980242,24.3033695 65.3368505,24.1357635 65.6,23.86 C65.95,23.47 65.97,22.54 65.97,20.62 L65.97,17.39 C66.068218,16.6198097 65.9930525,15.8374045 65.75,15.1 C65.4832164,14.8410329 65.1214392,14.7035575 64.75,14.72 L64.66,14.72 L64.45,14.72 L64.45,14 L64.87,14 C65.541495,13.988129 66.2106843,13.9178641 66.87,13.79 C67.2842837,13.7301539 67.6902937,13.6227794 68.08,13.47 L68.21,13.41 L68.41,13.51 L68.41,14.51 C69.1085931,13.8299982 70.0450976,13.4496554 71.02,13.45 C71.7098549,13.4148429 72.3878163,13.6396407 72.92,14.08 L72.99,14.15 L72.99,14.51 L71.99,16.25 L71.53,16.25 L71.46,16.14 C71.0638265,15.5347436 70.3716976,15.1905912 69.65,15.24 C69.2107645,15.2284368 68.7783665,15.3504846 68.41,15.59 L68.41,21.28 C68.3104984,22.1182975 68.3958315,22.9682156 68.66,23.77 C68.97,24.24 69.93,24.28 70.21,24.28 L70.45,24.28 L70.45,24.91 L70.2,24.91 C68.96,24.85 68.03,24.82 67.37,24.82 C66.53,24.82 65.58,24.82 64.57,24.91 L64.31,24.91 L64.38,24.9 Z" id="Path" fill="#FFFFFF" fill-rule="nonzero"></path>
                <path d="M79.52,14.68 C77.32,14.68 76.25,16.18 76.25,19.28 C76.25,20.54 76.6,23.46 79.88,23.46 L79.98,23.46 C80.6103104,23.4701405 81.231837,23.3113059 81.78,23 L81.78,15.43 C81.1527542,14.8958091 80.3421728,14.6268108 79.52,14.68 L79.52,14.68 Z M82.13,25.06 L81.83,24.96 L81.83,23.96 C80.9132073,24.6346594 79.8081823,25.0053323 78.67,25.02 C75.57,25.02 73.57,22.87 73.57,19.54 C73.5640433,18.5086113 73.7717375,17.4871641 74.18,16.54 C75.1579398,14.4733962 77.286755,13.2016365 79.57,13.32 C80.3116862,13.319187 81.0517409,13.3895089 81.78,13.53 L81.78,11.13 C81.8729381,10.3035502 81.7981107,9.46684386 81.56,8.67 C81.33,8.34 80.83,8.31 80.56,8.28 L80.47,8.28 L80.26,8.28 L80.26,7.77 L80.5,7.77 C81.3116449,7.70513369 82.1193909,7.59832431 82.92,7.45 C83.2957338,7.39455616 83.6667761,7.31098808 84.03,7.2 L84.14,7.2 L84.34,7.31 L84.34,7.42 C84.27,8.35 84.25,10.34 84.25,11.83 L84.25,21 C84.1584158,21.8396944 84.2331728,22.6892058 84.47,23.5 C84.7287962,23.7742104 85.0931957,23.9236142 85.47,23.91 L85.77,23.91 L85.77,24.52 L85.54,24.52 C84.8021985,24.5452418 84.0670687,24.6220962 83.34,24.75 C82.9487584,24.7969632 82.5633927,24.8840894 82.19,25.01 L82.09,25.01 L82.13,25.06 Z" id="Shape" fill="#FFFFFF" fill-rule="nonzero"></path>
                <line x1="91" y1="3.5" x2="91" y2="24.92" id="Path" stroke="#FFFFFF" stroke-width="0.72"></line>
                <g id="%PLACEHOLDER1%" transform="translate(97.960000, 0.000000)" fill="#FFFFFF" fill-rule="nonzero" font-family="SourceSansPro-Regular, Source Sans Pro" font-size="12" font-weight="normal">
                    <g id="Group">
                        <text id="%PLACEHOLDER1%">
                            <tspan x="0" y="12">%PLACEHOLDER1%</tspan>
                        </text>
                    </g>
                </g>
                <g id="%PLACEHOLDER2%" transform="translate(96.960000, 15.000000)" fill="#FFFFFF" fill-rule="nonzero" font-family="SourceSansPro-It, Source Sans Pro" font-size="9.8" font-style="italic" font-weight="normal">
                    <g id="Group">
                        <text id="%PLACEHOLDER2%">
                            <tspan x="0" y="10">%PLACEHOLDER2%</tspan>
                        </text>
                    </g>
                </g>
            </g>
        </g>
    </g>
</svg>