<?xml version="1.0" encoding="UTF-8"?>
<svg width="800px" height="137px" viewBox="0 0 450 137" version="1.1" xmlns="http://www.w3.org/2000/svg" xmlns:xlink="http://www.w3.org/1999/xlink">
    <title>stanford-line1-2</title>
    <g id="stanford-line1-2" stroke="none" stroke-width="1" fill="none" fill-rule="evenodd">
        <g>
            <rect id="Rectangle" x="0" y="0" width="450" height="137"></rect>
            <g id="SU_units_1Ln" transform="translate(140.000000, 49.989289)" fill-rule="nonzero">
                <path d="M26.44,11.9407114 C25.5828815,12.1669108 24.7517122,12.4819507 23.96,12.8807114 C23.3070628,13.2221712 22.9155077,13.9152237 22.96,14.6507114 C22.9137419,15.1054909 23.0773875,15.5565434 23.4044951,15.8758628 C23.7316027,16.1951821 24.186467,16.347913 24.64,16.2907114 C25.2738227,16.302058 25.895617,16.116917 26.42,15.7607114 L26.42,11.9407114 L26.44,11.9407114 Z M23.74,17.8807114 C20.68,17.8807114 20.44,15.5507114 20.44,14.8807114 C20.3863786,13.5003761 21.2822451,12.261851 22.61,11.8807114 C24.61,11.1407114 25.06,11.0507114 26.44,10.6207114 L26.44,10.2607114 C26.4756688,9.83957692 26.4315642,9.41549359 26.31,9.01071137 C25.9958926,8.15708483 25.1453366,7.62291922 24.24,7.71071137 C23.3598273,7.68548663 22.5343406,8.13644695 22.08,8.89071137 L22,9.01071137 L21.43,8.67071137 L21.49,8.50071137 C22.0933451,6.95629511 23.6371222,5.98940312 25.29,6.12071137 C26.5450769,5.9731879 27.7825702,6.51172661 28.53,7.53071137 C28.954842,8.44904196 29.1307233,9.46294599 29.04,10.4707114 C29.04,11.4707114 29.04,12.5207114 29.04,13.4007114 C29.04,14.0007114 29.04,14.5107114 29.04,14.8307114 C29.04,15.6307114 29.17,16.2507114 29.83,16.2507114 C29.9624722,16.2590533 30.0936007,16.2200691 30.2,16.1407114 L30.39,15.9807114 L30.76,16.4107114 L30.64,16.5607114 C30.1475922,17.3252432 29.3090698,17.796912 28.4,17.8207114 C27.6284979,17.8981767 26.9092108,17.4214399 26.68,16.6807114 C25.939713,17.4462562 24.914759,17.8700005 23.85,17.8507114 L23.74,17.8807114 Z" id="Shape" fill="#A90533"></path>
                <path d="M5,17.8507114 C3.7352155,17.8805973 2.47438006,17.6980635 1.27,17.3107114 L1.11,17.3107114 L1.11,16.4907114 C1.11,15.4007114 1.11,14.9607114 1.11,14.6207114 L1.11,14.0507114 L1.78,14.0507114 L1.78,14.2907114 C1.79646288,14.7876658 1.975639,15.2654688 2.29,15.6507114 C3.02338497,16.2589093 3.95848233,16.5694188 4.91,16.5207114 C7.06,16.5207114 8.06,15.7107114 8.06,13.9607114 C8.06,12.4607114 7.14,11.8407114 5.86,10.9607114 L5.65,10.8207114 L4.3,9.92071137 C2.42,8.68071137 1.47,7.68071137 1.47,5.69071137 C1.47,4.69071137 1.83,1.5406756 6.57,1.5406756 C7.74156631,1.53865134 8.91159738,1.62556793 10.07,1.80071137 L10.28,1.80071137 L10.28,2.00071137 C10.28,2.00071137 10.28,2.62071137 10.28,3.29071137 C10.28,3.96071137 10.28,4.29071137 10.28,4.75071137 L10.28,5.11071137 L9.71,5.11071137 L9.71,4.88071137 C9.70554676,4.37407768 9.50897746,3.88801541 9.16,3.52071137 C8.42458346,3.00872326 7.53258338,2.77156451 6.64,2.85071137 C4.13,2.85071137 3.83,4.14071137 3.83,5.11071137 C3.83,6.44071137 4.52,6.89071137 6.01,7.87071137 L7.66,9.01071137 C9.11,10.0107114 10.49,10.9007114 10.49,13.3107114 C10.49,17.4007114 6.67,17.8507114 5.03,17.8507114 L5,17.8507114 Z" id="Path" fill="#A90533"></path>
                <path d="M16.25,17.9207114 C14.5,17.9207114 13.53,17.3007114 13.1,15.9207114 C12.9548199,15.1631667 12.897774,14.3913686 12.93,13.6207114 C12.93,11.8107114 12.93,10.3707114 12.93,8.69071137 L12.93,7.90071137 L11.48,7.90071137 L11.48,7.46071137 L11.63,7.40071137 C12.0847426,7.2273909 12.5098084,6.98449618 12.89,6.68071137 C13.645909,6.04121325 14.2736691,5.26414812 14.74,4.39071137 L14.99,3.96071137 L15.49,3.96071137 L15.49,6.50071137 L19.33,6.50071137 L19.33,7.90071137 L15.49,7.90071137 L15.49,13.8307114 C15.49,15.6007114 15.82,16.6107114 17.49,16.6107114 C17.965733,16.6066499 18.435517,16.504523 18.87,16.3107114 L19.1,16.1907114 L19.3,16.6507114 L19.2,16.7607114 C18.4312205,17.5894166 17.3273431,18.0236084 16.2,17.9407114 L16.25,17.9207114 Z" id="Path" fill="#A90533"></path>
                <path d="M31.61,17.7707114 L31.61,17.2407114 L31.83,17.2407114 C32.2090359,17.2095046 32.5640968,17.042626 32.83,16.7707114 C33.18,16.3807114 33.2,15.4107114 33.2,13.4907114 L33.2,10.2607114 C33.3003285,9.50514501 33.2320254,8.73673516 33,8.01071137 C32.77,7.67071137 32.26,7.64071137 32,7.62071137 L31.91,7.62071137 L31.69,7.62071137 L31.69,6.97071137 L31.95,6.97071137 L32.13,6.97071137 C32.8016499,6.95349656 33.4706677,6.8799046 34.13,6.75071137 C34.5452506,6.68635107 34.9472057,6.55461786 35.32,6.36071137 L35.45,6.29071137 L35.67,6.43071137 L35.67,7.32071137 C36.6175912,6.62247139 37.7629461,6.24418904 38.94,6.24071137 C40.94,6.24071137 42.31,7.24071137 42.68,8.91071137 C42.7879474,9.57176155 42.8381369,10.2409549 42.83,10.9107114 L42.83,14.2107114 C42.83,16.0707114 42.91,16.6007114 43.26,16.9307114 C43.5120626,17.1194894 43.8153578,17.2275601 44.13,17.2407114 L44.35,17.2407114 L44.35,17.7707114 L43.79,17.7707114 C42.98,17.7707114 42.28,17.6907114 41.55,17.6907114 C40.82,17.6907114 40,17.6907114 38.99,17.7807114 L38.73,17.7807114 L38.73,17.2707114 L38.93,17.2707114 C39.2750495,17.2367013 39.6022199,17.1009604 39.87,16.8807114 C40.2071058,16.2713371 40.3501475,15.5735726 40.28,14.8807114 C40.28,14.7507114 40.28,14.6207114 40.28,14.4807114 C40.28,14.0607114 40.28,13.1707114 40.28,12.4807114 C40.2962415,11.6161759 40.2628533,10.7514208 40.18,9.89071137 C40.1849634,9.27574986 39.9238879,8.68865499 39.4639279,8.28044048 C39.0039679,7.87222598 38.3900181,7.68273594 37.78,7.76071137 C37.0486867,7.74115415 36.3238718,7.90260581 35.67,8.23071137 L35.67,14.1607114 C35.67,16.0207114 35.75,16.5507114 36.1,16.8807114 C36.3520626,17.0694894 36.6553578,17.1775601 36.97,17.1907114 L37.19,17.1907114 L37.19,17.7207114 L36.59,17.7207114 C35.81,17.7207114 35.13,17.6507114 34.42,17.6507114 C33.71,17.6507114 32.84,17.6507114 31.82,17.7407114 L31.57,17.7407114 L31.61,17.7707114 Z" id="Path" fill="#A90533"></path>
                <path d="M45.7,17.7707114 L45.7,17.2307114 L45.91,17.2307114 C46.2890961,17.2076951 46.6458416,17.0435922 46.91,16.7707114 C47.26,16.3807114 47.27,15.4207114 47.27,13.5007114 L47.27,7.90071137 L45.8,7.90071137 L45.8,7.27071137 L45.95,7.20071137 C46.4193019,7.03174349 46.8633879,6.79960761 47.27,6.51071137 C47.2561202,5.50764503 47.3162836,4.50492194 47.45,3.51071137 C47.89,1.18071137 49.45,0.000711371502 51.97,0.000711371502 C52.9585135,-0.0166706102 53.9263241,0.284893561 54.73,0.860711372 L54.82,0.930711372 L54.82,1.17071137 L53.7,2.73071137 L53.43,2.73071137 L53.37,2.59071137 C53.1033575,1.77384787 52.3287896,1.23165037 51.47,1.26071137 C51.053247,1.24612215 50.6462691,1.38892143 50.33,1.66071137 C49.84,2.15071137 49.76,2.88071137 49.76,4.32071137 L49.76,6.50071137 L52.28,6.50071137 L52.28,7.90071137 L49.8,7.90071137 L49.8,14.1707114 C49.7077564,15.0116857 49.7894485,15.8626453 50.04,16.6707114 C50.36,17.1507114 51.32,17.1807114 51.6,17.1807114 L51.84,17.1807114 L51.84,17.7907114 L51.59,17.7907114 C50.35,17.7307114 49.42,17.7007114 48.76,17.7007114 C47.92,17.7007114 46.96,17.7007114 45.95,17.7907114 L45.7,17.7907114 L45.7,17.7707114 Z" id="Path" fill="#A90533"></path>
                <path d="M58.83,7.48071137 C58.2493858,7.45095238 57.6775843,7.63208204 57.22,7.99071137 C56.32,8.75071137 55.86,10.1307114 55.86,12.1007114 C55.86,12.8607114 56,16.6607114 58.78,16.6607114 C59.3573473,16.6889374 59.9254855,16.5078433 60.38,16.1507114 C61.28,15.3907114 61.74,14.0107114 61.74,12.0307114 C61.74,11.2707114 61.6,7.48071137 58.83,7.48071137 L58.83,7.48071137 Z M58.68,18.0107114 C55.24,18.0107114 53.18,15.8607114 53.18,12.2607114 C53.18,9.47071137 54.68,6.26071137 58.92,6.26071137 C62.37,6.26071137 64.43,8.41071137 64.43,12.0007114 C64.43,14.8007114 62.92,18.0607114 58.68,18.0607114 L58.68,18.0107114 Z" id="Shape" fill="#A90533"></path>
                <path d="M65.52,17.7707114 L65.52,17.2007114 L65.74,17.2007114 C66.120242,17.1740808 66.4768505,17.0064748 66.74,16.7307114 C67.09,16.3407114 67.11,15.4107114 67.11,13.4907114 L67.11,10.2607114 C67.11,8.88071137 67.11,8.26071137 66.88,7.98071137 C66.618399,7.71274599 66.2539472,7.57060979 65.88,7.59071137 L65.79,7.59071137 L65.57,7.59071137 L65.57,6.91071137 L66,6.91071137 C66.6717014,6.89425943 67.3407833,6.82066041 68,6.69071137 C68.4142837,6.6308653 68.8202937,6.52349077 69.21,6.37071137 L69.34,6.31071137 L69.54,6.42071137 L69.54,7.42071137 C70.2480705,6.76259941 71.1834582,6.40421331 72.15,6.42071137 C72.8401217,6.38357409 73.5187855,6.60860474 74.05,7.05071137 L74.12,7.12071137 L74.12,7.47071137 L73.12,9.21071137 L72.66,9.21071137 L72.59,9.11071137 C72.1962852,8.50164194 71.5037002,8.15343621 70.78,8.20071137 C70.3391167,8.18750966 69.9052694,8.31346534 69.54,8.56071137 L69.54,14.2507114 C69.4419742,15.0857218 69.5272911,15.9320653 69.79,16.7307114 C70.1,17.2007114 71.06,17.2407114 71.34,17.2407114 L71.58,17.2407114 L71.58,17.8707114 L71.33,17.8707114 C70.09,17.8107114 69.16,17.7807114 68.5,17.7807114 C67.66,17.7807114 66.71,17.7807114 65.7,17.8707114 L65.44,17.8707114 L65.52,17.7707114 Z" id="Path" fill="#A90533"></path>
                <path d="M80.66,7.55071137 C78.46,7.55071137 77.39,9.06071137 77.39,12.1507114 C77.39,13.4107114 77.74,16.3307114 81.02,16.3307114 L81.12,16.3307114 C81.7503104,16.3408518 82.371837,16.1820172 82.92,15.8707114 L82.92,8.31071137 C82.2958946,7.77008389 81.4839571,7.49704298 80.66,7.55071137 L80.66,7.55071137 Z M83.27,17.9307114 L82.96,17.8307114 L82.96,16.8807114 C82.0504767,17.5620088 80.9463747,17.9335479 79.81,17.9407114 C76.71,17.9407114 74.71,15.7907114 74.71,12.4607114 C74.7028798,11.4292093 74.9106222,10.4075255 75.32,9.46071137 C76.2979398,7.39410759 78.426755,6.12234784 80.71,6.24071137 C81.4516862,6.23989836 82.1917409,6.3102203 82.92,6.45071137 L82.92,4.01071137 C83.0121148,3.18425235 82.9373021,2.34771036 82.7,1.55071137 C82.4366435,1.28640945 82.0724199,1.14800448 81.7,1.17071137 L81.6,1.17071137 L81.39,1.17071137 L81.39,0.660711372 L81.63,0.660711372 C81.68,0.660711372 82.99,0.550711372 84.05,0.350711372 C84.4251817,0.287882599 84.7959438,0.201037408 85.16,0.0907113715 L85.27,0.0907113715 L85.47,0.200711372 L85.47,0.310711372 C85.39,1.24071137 85.38,3.23071137 85.38,4.72071137 L85.38,13.9307114 C85.2876241,14.7703973 85.3623947,15.6200638 85.6,16.4307114 C85.8587962,16.7049218 86.2231957,16.8543255 86.6,16.8407114 L86.9,16.8407114 L86.9,17.4507114 L86.66,17.4507114 C85.9255552,17.4765788 85.1937941,17.5534305 84.47,17.6807114 C84.0787584,17.7276746 83.6933927,17.8148008 83.32,17.9407114 L83.22,17.9407114 L83.27,17.9307114 Z" id="Shape" fill="#A90533"></path>
                <g id="%PLACEHOLDER1%" transform="translate(0.000000, 23.010711)" fill="#231F20" font-family="SourceSansPro-Semibold, Source Sans Pro" font-size="14" font-weight="500">
                    <g id="Group">
                        <text id="%PLACEHOLDER1%">
                            <tspan x="0" y="14">%PLACEHOLDER1%</tspan>
                        </text>
                    </g>
                </g>
            </g>
        </g>
    </g>
</svg>