<?xml version="1.0" encoding="UTF-8"?>
<svg width="1080px" height="137px" viewBox="0 0 450 137" version="1.1" xmlns="http://www.w3.org/2000/svg" xmlns:xlink="http://www.w3.org/1999/xlink">
    <title>stanford-line2-1</title>
    <g id="stanford-line2-1" stroke="none" stroke-width="1" fill="none" fill-rule="evenodd">
        <g>
            <rect id="Rectangle" x="0" y="0" width="450" height="137"></rect>
            <g id="SU_units_2Ln" transform="translate(75.000000, 48.000000)">
                <line x1="91.22" y1="18.58" x2="91.22" y2="0.58" id="Path" stroke="#231F20" stroke-width="0.72"></line>
                <path d="M25.49,12.64 C24.6292778,12.8649749 23.7946669,13.1800489 23,13.58 C22.3489019,13.9233562 21.9580812,14.6151088 22,15.35 C21.9449912,15.8113689 22.1083583,16.2719899 22.4417726,16.5955979 C22.7751869,16.9192059 23.2404783,17.0687535 23.7,17 C24.3358836,17.014404 24.9608081,16.8328617 25.49,16.48 L25.49,12.65 L25.49,12.64 Z M22.78,18.58 C19.71,18.58 19.48,16.26 19.48,15.58 C19.4263786,14.1996648 20.3222451,12.9611397 21.65,12.58 C23.65,11.84 24.1,11.76 25.49,11.32 L25.49,10.97 C25.5289269,10.544855 25.481302,10.1162307 25.35,9.71 C25.0358926,8.85637345 24.1853366,8.32220784 23.28,8.41 C22.4008414,8.38897638 21.5773278,8.83885882 21.12,9.59 L21,9.82 L20.43,9.48 L20.49,9.31 C21.0944212,7.76180831 22.6435722,6.79409718 24.3,6.93 C25.5566825,6.78685808 26.7935527,7.32894318 27.54,8.35 C27.9658293,9.26447094 28.1417983,10.2754301 28.05,11.28 C28.05,12.28 28.05,13.34 28.05,14.21 C28.05,14.81 28.05,15.33 28.05,15.65 C28.05,16.45 28.17,17.07 28.84,17.07 C28.9740846,17.0783392 29.1063328,17.0354479 29.21,16.95 L29.39,16.8 L29.76,17.22 L29.64,17.38 C29.1533057,18.145607 28.3169448,18.6181697 27.41,18.64 C26.6352524,18.7117357 25.9136157,18.2389393 25.67,17.5 C24.9345748,18.2654739 23.9111791,18.6864452 22.85,18.66 L22.78,18.58 Z" id="Shape" fill="#000000" fill-rule="nonzero"></path>
                <path d="M4.06,18.56 C2.79547567,18.5856202 1.53534033,18.4031877 0.33,18.02 L0.16,18.02 L0.16,17.2 C0.16,16.1 0.16,15.67 0.16,15.32 L0.16,14.76 L0.82,14.76 L0.82,14.99 C0.829669521,15.4912977 1.00951348,15.9744079 1.33,16.36 C2.05934568,16.9684239 2.99146914,17.2791317 3.94,17.23 C6.1,17.23 7.1,16.41 7.1,14.66 C7.1,13.16 6.17,12.54 4.89,11.66 L4.69,11.51 L3.34,10.61 C1.46,9.37 0.5,8.37 0.5,6.38 C0.5,5.38 0.87,2.21997182 5.61,2.21997182 C6.78193958,2.21813925 7.95221176,2.30841739 9.11,2.49 L9.32,2.49 L9.32,2.69 C9.32,2.69 9.32,3.31 9.32,3.98 C9.32,4.65 9.32,4.98 9.32,5.44 L9.32,5.79 L8.7,5.79 L8.7,5.57 C8.69554676,5.06336631 8.49897746,4.57730404 8.15,4.21 C7.41150448,3.69651207 6.51584398,3.45932135 5.62,3.54 C3.11,3.54 2.82,4.83 2.82,5.79 C2.82,7.13 3.5,7.58 4.99,8.56 L6.71,9.7 C8.17,10.7 9.54,11.59 9.54,14.01 C9.54,18.1 5.72,18.55 4.08,18.55 L4.06,18.56 Z" id="Path" fill="#000000" fill-rule="nonzero"></path>
                <path d="M15.28,18.63 C13.53,18.63 12.57,18 12.14,16.63 C11.9986346,15.8619311 11.9516198,15.0794699 12,14.3 C12,12.5 12,11.05 12,9.37 L12,8.58 L10.51,8.58 L10.51,8.14 L10.66,8.08 C11.1158891,7.90911304 11.5413229,7.66600799 11.92,7.36 C12.6717758,6.71386377 13.3017251,5.93828108 13.78,5.07 L14.03,4.64 L14.52,4.64 L14.52,7.18 L18.37,7.18 L18.37,8.58 L14.52,8.58 L14.52,14.52 C14.52,16.29 14.85,17.3 16.52,17.3 C17.0005176,17.3003712 17.4751758,17.1945122 17.91,16.99 L18.14,16.87 L18.34,17.33 L18.24,17.44 C17.4765542,18.2774034 16.3698814,18.7163836 15.24,18.63 L15.28,18.63 Z" id="Path" fill="#000000" fill-rule="nonzero"></path>
                <path d="M30.66,18.48 L30.66,18 L30.88,18 C31.2609947,17.9762847 31.6186147,17.8082034 31.88,17.53 C32.23,17.14 32.25,16.18 32.25,14.26 L32.25,11 C32.3488996,10.2298204 32.2737195,9.4472642 32.03,8.71 C31.7655674,8.44634462 31.4031131,8.30498746 31.03,8.32 L30.94,8.32 L30.72,8.32 L30.72,7.67 L30.98,7.67 L31.15,7.67 C31.8216691,7.65306885 32.4907106,7.57947428 33.15,7.45 C33.5709226,7.39043626 33.9775237,7.25490257 34.35,7.05 L34.47,6.99 L34.7,7.13 L34.7,8 C35.6543654,7.29044891 36.810777,6.90497835 38,6.9 C40,6.9 41.37,7.85 41.75,9.58 C41.8583528,10.2410019 41.9085449,10.9102308 41.9,11.58 L41.9,14.88 C41.9,16.74 41.97,17.27 42.32,17.59 C42.5733288,17.784838 42.8806914,17.8966062 43.2,17.91 L43.42,17.91 L43.42,18.43 L42.86,18.43 C42.05,18.43 41.35,18.36 40.62,18.36 C39.89,18.36 39.06,18.36 38.05,18.45 L37.79,18.45 L37.79,18 L37.99,18 C38.3356055,17.975801 38.6646699,17.842775 38.93,17.62 C39.3,17.25 39.31,16.38 39.34,15.62 C39.34,15.5 39.34,15.37 39.34,15.23 C39.34,14.81 39.34,13.92 39.34,13.23 C39.3546135,12.3690225 39.3245732,11.5078663 39.25,10.65 C39.257877,10.0333029 38.9980612,9.44346714 38.5377339,9.03300869 C38.0774067,8.62255023 37.4617658,8.43177045 36.85,8.51 C36.1154041,8.48961686 35.3871536,8.65106862 34.73,8.98 L34.73,14.92 C34.73,16.78 34.81,17.31 35.16,17.63 C35.4096068,17.8246512 35.7137549,17.9365218 36.03,17.95 L36.25,17.95 L36.25,18.47 L35.65,18.47 C34.87,18.47 34.19,18.4 33.48,18.4 C32.77,18.4 31.89,18.4 30.88,18.49 L30.63,18.49 L30.66,18.48 Z" id="Path" fill="#000000" fill-rule="nonzero"></path>
                <path d="M44.75,18.48 L44.75,17.94 L44.97,17.94 C45.3504904,17.9143264 45.7074288,17.7465654 45.97,17.47 C46.32,17.08 46.33,16.13 46.33,14.21 L46.33,8.6 L44.87,8.6 L44.87,8 L45.02,7.94 C45.4871903,7.76200969 45.9305594,7.52688973 46.34,7.24 C46.3279474,6.23728798 46.3847476,5.2349314 46.51,4.24 C46.96,1.91 48.51,0.72 51.05,0.72 C52.0400583,0.702638917 53.0088634,1.00802315 53.81,1.59 L53.89,1.66 L53.89,1.9 L52.77,3.46 L52.5,3.46 L52.44,3.32 C52.1568156,2.50977075 51.3882399,1.97056057 50.53,1.98 C50.1123895,1.97108744 49.7062737,2.11714663 49.39,2.39 C48.9,2.88 48.82,3.61 48.82,5.05 L48.82,7.23 L51.34,7.23 L51.34,8.63 L48.86,8.63 L48.86,14.9 C48.7623652,15.7449136 48.8476271,16.6009437 49.11,17.41 C49.42,17.89 50.38,17.92 50.67,17.92 L50.9,17.92 L50.9,18.52 L50.65,18.52 C49.41,18.45 48.48,18.43 47.82,18.43 C46.98,18.43 46.02,18.43 45.01,18.52 L44.75,18.52 L44.75,18.48 Z" id="Path" fill="#000000" fill-rule="nonzero"></path>
                <path d="M57.89,8.18 C57.3126527,8.15177401 56.7445145,8.33286806 56.29,8.69 C55.38,9.45 54.93,10.84 54.93,12.81 C54.93,13.57 55.07,17.37 57.85,17.37 C58.4267606,17.3937987 58.9934019,17.2131818 59.45,16.86 C60.36,16.1 60.82,14.71 60.82,12.74 C60.82,11.98 60.67,8.18 57.89,8.18 Z M57.75,18.67 C54.3,18.67 52.24,16.53 52.24,12.93 C52.24,10.13 53.75,6.87 57.99,6.87 C61.44,6.87 63.5,9.02 63.5,12.62 C63.5,15.41 61.99,18.62 57.75,18.62 L57.75,18.67 Z" id="Shape" fill="#000000" fill-rule="nonzero"></path>
                <path d="M64.59,18.48 L64.59,17.91 L64.81,17.91 C65.190242,17.8833695 65.5468505,17.7157635 65.81,17.44 C66.16,17.05 66.18,16.12 66.18,14.2 L66.18,11 C66.2788996,10.2298204 66.2037195,9.4472642 65.96,8.71 C65.698399,8.44203462 65.3339472,8.29989842 64.96,8.32 L64.87,8.32 L64.65,8.32 L64.65,7.64 L65.08,7.64 C65.7516691,7.62306885 66.4207106,7.54947428 67.08,7.42 C67.4942837,7.36015393 67.9002937,7.25277939 68.29,7.1 L68.42,7.04 L68.62,7.15 L68.62,8.15 C69.311241,7.42967599 70.2617831,7.01561411 71.26,7 C71.9491949,6.96965279 72.6254718,7.19389196 73.16,7.63 L73.23,7.71 L73.23,8.06 L72.23,9.81 L71.77,9.81 L71.7,9.7 C71.3045047,9.08765737 70.6071713,8.73899068 69.88,8.79 C69.4422403,8.77686088 69.0115933,8.90290392 68.65,9.15 L68.65,14.84 C68.5565429,15.6776631 68.6382725,16.5256077 68.89,17.33 C69.21,17.8 70.17,17.84 70.45,17.84 L70.69,17.84 L70.69,18.46 L70.44,18.46 C69.2,18.39 68.27,18.37 67.6,18.37 C66.76,18.37 65.81,18.37 64.8,18.46 L64.54,18.46 L64.59,18.48 Z" id="Path" fill="#000000" fill-rule="nonzero"></path>
                <path d="M79.75,8.25 C77.54,8.25 76.47,9.76 76.47,12.86 C76.47,14.11 76.83,17.04 80.11,17.04 L80.21,17.04 C80.8384598,17.0503005 81.4576672,16.8877153 82,16.57 L82,9 C81.3817511,8.45607605 80.5714401,8.182371 79.75,8.24 L79.75,8.25 Z M82.35,18.64 L82.05,18.54 L82.05,17.54 C81.1351111,18.2183168 80.0288692,18.589398 78.89,18.6 C75.79,18.6 73.79,16.45 73.79,13.11 C73.7840433,12.0786113 73.9917375,11.0571641 74.4,10.11 C75.3800359,8.04530031 77.5074382,6.77438464 79.79,6.89 C80.5317122,6.88862942 81.2718204,6.95895644 82,7.1 L82,4.7 C82.0937697,3.87355984 82.0189274,3.03668676 81.78,2.24 C81.518399,1.97203462 81.1539472,1.82989842 80.78,1.85 L80.7,1.85 L80.49,1.85 L80.49,1.35 L80.73,1.35 C81.5417116,1.28576463 82.3494904,1.17895091 83.15,1.03 C83.5305188,0.977874752 83.9054331,0.890841072 84.27,0.77 L84.38,0.77 L84.58,0.89 L84.58,1 C84.5,1.93 84.49,3.92 84.49,5.41 L84.49,14.62 C84.3989189,15.4630075 84.4736561,16.3156911 84.71,17.13 C84.9709931,17.4009935 85.3338893,17.549781 85.71,17.54 L86,17.54 L86,18.14 L85.76,18.14 C85.0254525,18.1709116 84.2938081,18.2510918 83.57,18.38 C83.1787584,18.4269632 82.7933927,18.5140894 82.42,18.64 L82.31,18.64 L82.35,18.64 Z" id="Shape" fill="#000000" fill-rule="nonzero"></path>
                <g id="%PLACEHOLDER1%" transform="translate(97.000000, 0.000000)" fill="#000000" fill-rule="nonzero" font-family="SourceSansPro-Semibold, Source Sans Pro" font-size="18" font-weight="500">
                    <g id="Group">
                        <text id="%PLACEHOLDER1%">
                            <tspan x="0" y="18">%PLACEHOLDER1%</tspan>
                        </text>
                    </g>
                </g>
                <g id="%PLACEHOLDER2%" transform="translate(0.000000, 22.000000)" fill="#000000" fill-rule="nonzero" font-family="SourceSansPro-Regular, Source Sans Pro" font-size="15" font-weight="normal">
                    <g id="Group">
                        <text id="%PLACEHOLDER2%">
                            <tspan x="0" y="15">%PLACEHOLDER2%</tspan>
                        </text>
                    </g>
                </g>
            </g>
        </g>
    </g>
</svg>