<?xml version="1.0" encoding="UTF-8"?>
<svg width="1080px" height="137px" viewBox="0 0 450 137" version="1.1" xmlns="http://www.w3.org/2000/svg" xmlns:xlink="http://www.w3.org/1999/xlink">
    <title>stanford-line3-1</title>
    <g id="stanford-line3-1" stroke="none" stroke-width="1" fill="none" fill-rule="evenodd">
        <g>
            <rect id="Rectangle" x="0" y="0" width="450" height="137"></rect>
            <g id="SU_units_3Ln" transform="translate(160.000000, 24.629399)">
                <path d="M26.12,11.9606008 C25.2628815,12.1868002 24.4317122,12.5018402 23.64,12.9006008 C22.990718,13.2458233 22.600617,13.936302 22.64,14.6706008 C22.5937419,15.1253803 22.7573875,15.5764329 23.0844951,15.8957522 C23.4116027,16.2150715 23.866467,16.3678024 24.32,16.3106008 C24.9538227,16.3219474 25.575617,16.1368064 26.1,15.7806008 L26.1,11.9606008 L26.12,11.9606008 Z M23.42,17.9006008 C20.36,17.9006008 20.12,15.5706008 20.12,14.9006008 C20.0675721,13.5174328 20.9682666,12.277945 22.3,11.9006008 C24.3,11.1606008 24.74,11.0706008 26.12,10.6406008 L26.12,10.2806008 C26.1823837,9.8363721 26.1551823,9.38414883 26.04,8.9506008 C25.7258926,8.09697425 24.8753366,7.56280864 23.97,7.6506008 C23.0908414,7.62957718 22.2673278,8.07945962 21.81,8.8306008 L21.69,9.0606008 L21.04,8.7206008 L21.1,8.5506008 C21.7102938,6.99325241 23.2737561,6.0242315 24.94,6.1706008 C26.1920153,6.02468535 27.4257819,6.56326459 28.17,7.5806008 C28.6033413,8.49639757 28.7829227,9.51172331 28.69,10.5206008 C28.69,11.5206008 28.69,12.5206008 28.64,13.4506008 C28.64,14.0506008 28.64,14.5606008 28.64,14.8806008 C28.64,15.6806008 28.77,16.3006008 29.43,16.3006008 C29.5653693,16.307166 29.6990702,16.2684631 29.81,16.1906008 L29.99,16.0306008 L30.36,16.4606008 L30.24,16.6206008 C29.7440793,17.3800139 28.9066988,17.8473021 28,17.8706008 C27.2284979,17.9480662 26.5092108,17.4713294 26.28,16.7306008 C25.5404079,17.497167 24.5149882,17.9211038 23.45,17.9006008 L23.42,17.9006008 Z" id="Shape" fill="#FFFFFF" fill-rule="nonzero"></path>
                <path d="M4.72,17.8706008 C3.47408494,17.909327 2.23041565,17.7403502 1.04,17.3706008 L0.87,17.3706008 L0.87,16.5506008 C0.87,15.4606008 0.87,15.0206008 0.87,14.6806008 L0.87,14.1106008 L1.53,14.1106008 L1.53,14.3506008 C1.55074801,14.846695 1.72943315,15.3231887 2.04,15.7106008 C2.77192235,16.3214305 3.70808022,16.6322921 4.66,16.5806008 C6.81,16.5806008 7.81,15.7706008 7.81,14.0206008 C7.81,12.5206008 6.89,11.9006008 5.61,11.0206008 L5.4,10.8806008 L4.05,9.9806008 C2.17,8.7406008 1.22,7.7406008 1.22,5.7506008 C1.22,4.7506008 1.59,1.60059012 6.32,1.60059012 C7.49485155,1.59948148 8.66813576,1.68639142 9.83,1.8606008 L10.03,1.8606008 L10.03,2.0606008 C10.03,2.0606008 10.03,2.6806008 10.03,3.3506008 C10.03,4.0206008 10.03,4.3506008 10.03,4.8106008 L10.03,5.1706008 L9.46,5.1706008 L9.46,4.9406008 C9.45825503,4.43533105 9.26533044,3.9494469 8.92,3.5806008 C8.18006837,3.07022542 7.28555136,2.83333752 6.39,2.9106008 C3.88,2.9106008 3.59,4.2006008 3.59,5.1706008 C3.59,6.5006008 4.27,6.9506008 5.76,7.9306008 L7.47,9.0706008 C8.93,10.0706008 10.3,10.9606008 10.3,13.3706008 C10.3,17.4606008 6.49,17.9106008 4.85,17.9106008 L4.72,17.8706008 Z" id="Path" fill="#FFFFFF" fill-rule="nonzero"></path>
                <path d="M15.93,17.9406008 C14.19,17.9406008 13.22,17.3206008 12.78,15.9406008 C12.6348199,15.1830562 12.577774,14.411258 12.61,13.6406008 C12.61,11.8306008 12.61,10.3906008 12.61,8.7106008 L12.61,7.9206008 L11.16,7.9206008 L11.16,7.4806008 L11.31,7.4206008 C11.7658891,7.24971384 12.1913229,7.00660879 12.57,6.7006008 C13.3299088,6.04930438 13.9579098,5.25836262 14.42,4.3706008 L14.68,3.9406008 L15.17,3.9406008 L15.17,6.4806008 L19.04,6.4806008 L19.04,7.8806008 L15.17,7.8806008 L15.17,13.8106008 C15.17,15.5806008 15.5,16.5906008 17.17,16.5906008 C17.645927,16.5882893 18.1160671,16.4860849 18.55,16.2906008 L18.78,16.1706008 L18.98,16.6306008 L18.88,16.7406008 C18.1112205,17.5693061 17.0073431,18.0034978 15.88,17.9206008 L15.93,17.9406008 Z" id="Path" fill="#FFFFFF" fill-rule="nonzero"></path>
                <path d="M31.29,17.7906008 L31.29,17.2606008 L31.51,17.2606008 C31.8890359,17.229394 32.2440968,17.0625154 32.51,16.7906008 C32.86,16.4006008 32.88,15.4306008 32.88,13.5106008 L32.88,10.2706008 C32.97841,9.50371663 32.9032244,8.72452024 32.66,7.9906008 C32.398399,7.72263542 32.0339472,7.58049921 31.66,7.6006008 L31.56,7.6006008 L31.35,7.6006008 L31.35,6.9506008 L31.6,6.9506008 L31.78,6.9506008 C32.4516691,6.93366964 33.1207106,6.86007508 33.78,6.7306008 C34.2174484,6.6832912 34.6435878,6.56153706 35.04,6.3706008 L35.17,6.3006008 L35.39,6.4406008 L35.39,7.3306008 C36.3385537,6.6342252 37.4832833,6.25614937 38.66,6.2506008 C40.66,6.2506008 42.03,7.2506008 42.41,8.9206008 C42.5095063,9.58251362 42.5563199,10.2512801 42.55,10.9206008 L42.55,14.2206008 C42.55,16.0806008 42.63,16.6106008 42.98,16.9406008 C43.2337769,17.1261624 43.5360636,17.2338738 43.85,17.2506008 L44.07,17.2506008 L44.07,17.7806008 L43.52,17.7806008 C42.7,17.7806008 42,17.7006008 41.27,17.7006008 C40.54,17.7006008 39.72,17.7006008 38.71,17.7906008 L38.45,17.7906008 L38.45,17.2806008 L38.65,17.2806008 C38.9956526,17.2490134 39.323509,17.1129878 39.59,16.8906008 C39.9271058,16.2812265 40.0701475,15.583462 40,14.8906008 C40,14.7606008 40,14.6306008 40,14.4906008 C40,14.0706008 40,13.1806008 40,12.4906008 C40.0162415,11.6260653 39.9828533,10.7613102 39.9,9.9006008 C39.9112868,9.28545543 39.6535193,8.69602354 39.194207,8.28667834 C38.7348948,7.87733314 38.1197938,7.68885285 37.51,7.7706008 C36.7784452,7.74851878 36.0530189,7.91010663 35.4,8.2406008 L35.4,14.1706008 C35.4,16.0306008 35.47,16.5606008 35.82,16.8906008 C36.0737769,17.0761624 36.3760636,17.1838738 36.69,17.2006008 L36.91,17.2006008 L36.91,17.7306008 L36.31,17.7306008 C35.53,17.7306008 34.86,17.6606008 34.14,17.6606008 C33.42,17.6606008 32.56,17.6606008 31.55,17.7506008 L31.29,17.7506008 L31.29,17.7906008 Z" id="Path" fill="#FFFFFF" fill-rule="nonzero"></path>
                <path d="M45.38,17.7906008 L45.38,17.2506008 L45.6,17.2506008 C45.9795816,17.2295296 46.3370026,17.065116 46.6,16.7906008 C46.95,16.4006008 46.97,15.4406008 46.97,13.5206008 L46.97,7.9206008 L45.5,7.9206008 L45.5,7.2706008 L45.64,7.2006008 C46.1112114,7.02886696 46.5582484,6.79694551 46.97,6.5106008 C46.9482092,5.50769528 47.0050499,4.50462432 47.14,3.5106008 C47.58,1.1806008 49.14,0.000600795857 51.67,0.000600795857 C52.6552134,-0.0153369184 53.6194041,0.286191795 54.42,0.860600796 L54.51,0.930600796 L54.51,1.1706008 L53.38,2.7306008 L53.12,2.7306008 L53.05,2.5906008 C52.7833575,1.77373729 52.0087896,1.23153979 51.15,1.2606008 C50.7335462,1.24795928 50.3272525,1.39051847 50.01,1.6606008 C49.52,2.1506008 49.44,2.8806008 49.44,4.3206008 L49.44,6.5006008 L52.04,6.5006008 L52.04,7.9006008 L49.52,7.9006008 L49.52,14.1706008 C49.4228746,15.0122181 49.508141,15.8648819 49.77,16.6706008 C50.08,17.1506008 51.04,17.1806008 51.32,17.1806008 L51.56,17.1806008 L51.56,17.7906008 L51.31,17.7906008 C50.07,17.7306008 49.14,17.7006008 48.48,17.7006008 C47.64,17.7006008 46.69,17.7006008 45.68,17.7906008 L45.42,17.7906008 L45.38,17.7906008 Z" id="Path" fill="#FFFFFF" fill-rule="nonzero"></path>
                <path d="M58.51,7.5006008 C57.9321761,7.4686797 57.3627648,7.65017954 56.91,8.0106008 C56,8.7706008 55.54,10.1506008 55.54,12.1206008 C55.54,12.8806008 55.68,16.6806008 58.46,16.6806008 C59.0375848,16.7106567 59.6063508,16.5293626 60.06,16.1706008 C60.97,15.4106008 61.43,14.0306008 61.43,12.0506008 C61.43,11.2906008 61.28,7.5006008 58.51,7.5006008 L58.51,7.5006008 Z M58.37,17.9906008 C54.92,17.9906008 52.86,15.8406008 52.86,12.2406008 C52.86,9.4506008 54.36,6.1906008 58.6,6.1906008 C62.05,6.1906008 64.11,8.3406008 64.11,11.9306008 C64.11,14.7306008 62.6,17.9906008 58.37,17.9906008 Z" id="Shape" fill="#FFFFFF" fill-rule="nonzero"></path>
                <path d="M65.2,17.7906008 L65.2,17.2206008 L65.42,17.2206008 C65.800242,17.1939703 66.1568505,17.0263643 66.42,16.7506008 C66.77,16.3606008 66.79,15.4306008 66.79,13.5106008 L66.79,10.2706008 C66.88841,9.50371663 66.8132244,8.72452024 66.57,7.9906008 C66.3069544,7.72482623 65.943527,7.58308954 65.57,7.6006008 L65.48,7.6006008 L65.26,7.6006008 L65.26,6.9206008 L65.69,6.9206008 C66.3783794,6.90621518 67.0642436,6.83261024 67.74,6.7006008 C68.1540067,6.639401 68.5598653,6.53206652 68.95,6.3806008 L69.07,6.3206008 L69.28,6.4306008 L69.28,7.4306008 C69.9857947,6.76884647 70.9227176,6.40987221 71.89,6.4306008 C72.5768672,6.39502268 73.2518531,6.620018 73.78,7.0606008 L73.86,7.1306008 L73.86,7.3706008 L72.86,9.1106008 L72.4,9.1106008 L72.34,9.0106008 C71.9445047,8.39825817 71.2471713,8.04959147 70.52,8.1006008 C70.0791167,8.08739908 69.6452694,8.21335476 69.28,8.4606008 L69.28,14.1706008 C69.1819742,15.0056112 69.2672911,15.8519547 69.53,16.6506008 C69.84,17.1206008 70.8,17.1606008 71.08,17.1606008 L71.32,17.1606008 L71.32,17.7906008 L71.07,17.7906008 C69.83,17.7306008 68.91,17.7006008 68.24,17.7006008 C67.4,17.7006008 66.45,17.7006008 65.44,17.7906008 L65.18,17.7906008 L65.2,17.7906008 Z" id="Path" fill="#FFFFFF" fill-rule="nonzero"></path>
                <path d="M80.35,7.5706008 C78.14,7.5706008 77.07,9.0806008 77.07,12.1706008 C77.07,13.4306008 77.42,16.3506008 80.7,16.3506008 L80.81,16.3506008 C81.4371043,16.3604162 82.0553252,16.2015437 82.6,15.8906008 L82.6,8.3706008 C81.9806214,7.82863635 81.1711502,7.55521495 80.35,7.6106008 L80.35,7.5706008 Z M82.95,17.9506008 L82.65,17.8506008 L82.65,16.8506008 C81.7374001,17.5332941 80.6296824,17.9048703 79.49,17.9106008 C76.39,17.9106008 74.39,15.7606008 74.39,12.4306008 C74.3828798,11.3990987 74.5906222,10.3774149 75,9.4306008 C75.9779398,7.36399702 78.106755,6.09223726 80.39,6.2106008 C81.1316862,6.20978778 81.8717409,6.28010972 82.6,6.4206008 L82.6,4.0206008 C82.6921148,3.19414177 82.6173021,2.35759978 82.38,1.5606008 C82.1166435,1.29629887 81.7524199,1.1578939 81.38,1.1806008 L81.29,1.1806008 L81.07,1.1806008 L81.12,0.670600796 L81.36,0.670600796 C81.36,0.670600796 82.72,0.560600796 83.78,0.360600796 C84.1551817,0.297772023 84.5259438,0.210926833 84.89,0.100600796 L85.01,0.100600796 L85.2,0.210600796 L85.2,0.320600796 C85.13,1.2506008 85.11,3.2406008 85.11,4.7306008 L85.11,13.9406008 C85.023258,14.7803388 85.097933,15.628918 85.33,16.4406008 C85.5887962,16.7148112 85.9531957,16.864215 86.33,16.8506008 L86.63,16.8506008 L86.63,17.4606008 L86.4,17.4606008 C85.6655234,17.4860142 84.9337308,17.5628691 84.21,17.6906008 C83.8153403,17.7366712 83.4265672,17.8238099 83.05,17.9506008 L82.95,17.9506008 L82.95,17.9506008 Z" id="Shape" fill="#FFFFFF" fill-rule="nonzero"></path>
                <line x1="85.95" y1="44.3606008" x2="-9.23705556e-14" y2="44.3606008" id="Path" stroke="#FFFFFF" stroke-width="0.72"></line>
                <g id="%PLACEHOLDER1%" transform="translate(1.040000, 23.370601)" fill="#FFFFFF" fill-rule="nonzero" font-family="SourceSansPro-Semibold, Source Sans Pro" font-size="14.3" font-weight="500">
                    <g id="Group">
                        <text id="%PLACEHOLDER1%">
                            <tspan x="0" y="14">%PLACEHOLDER1%</tspan>
                        </text>
                    </g>
                </g>
                <g id="%PLACEHOLDER2%" transform="translate(1.040000, 51.370601)" fill="#FFFFFF" fill-rule="nonzero" font-family="SourceSansPro-Regular, Source Sans Pro" font-size="12" font-weight="normal" line-spacing="13">
                    <g id="Group">
                        <text id="%PLACEHOLDER2%" y="10">
                            <tspan x="0" y="12">%PLACEHOLDER2_1%</tspan>
			    <tspan x= "0" y="24">%PLACEHOLDER2_2%</tspan>
                        </text>
                    </g>
                </g>
                <!-- <g id="%PLACEHOLDER3%" transform="translate(1.040000, 64.370601)" fill="#231F20" fill-rule="nonzero" font-family="SourceSansPro-Regular, Source Sans Pro" font-size="12" font-weight="normal" line-spacing="13">
                    <g id="Group">
                        <text id="%PLACEHOLDER3%">
                            <tspan x="0" y="12">%PLACEHOLDER3%</tspan>
                        </text>
                    </g>
                </g> -->
                <g id="%PLACEHOLDER4%" transform="translate(1.040000, 79.370601)" fill="#FFFFFF" fill-rule="nonzero" font-family="SourceSansPro-It, Source Sans Pro" font-size="9.8" font-style="italic" font-weight="normal">
                    <g id="Group">
                        <text id="%PLACEHOLDER4%">
                            <tspan x="0" y="10">%PLACEHOLDER3%</tspan>
                        </text>
                    </g>
                </g>
            </g>
        </g>
    </g>
</svg>
