<?xml version="1.0" encoding="UTF-8"?>
<svg width="800px" height="137px" viewBox="0 0 450 137" version="1.1" xmlns="http://www.w3.org/2000/svg" xmlns:xlink="http://www.w3.org/1999/xlink">
    <title>stanford-line1-1</title>
    <g id="stanford-line1-1" stroke="none" stroke-width="1" fill="none" fill-rule="evenodd">
        <g>
            <rect id="Rectangle" x="0" y="0" width="450" height="137"></rect>
            <g id="SU_units_1Ln" transform="translate(90.000000, 59.000000)">
                <line x1="91.52" y1="18.29" x2="91.52" y2="0.29" id="Path" stroke="#000000" stroke-width="0.72"></line>
                <path d="M25.79,12.35 C24.9323832,12.5846307 24.0987172,12.899348 23.3,13.29 C22.649116,13.6386225 22.2591496,14.3327627 22.3,15.07 C22.252501,15.5287383 22.418669,15.9838266 22.7505849,16.3040278 C23.0825008,16.6242291 23.5432637,16.7739446 24,16.71 C24.6367747,16.7201616 25.2614091,16.535214 25.79,16.18 L25.79,12.35 L25.79,12.35 Z M23.08,18.35 C20.01,18.35 19.78,16.02 19.78,15.35 C19.7263786,13.9696648 20.6222451,12.7311397 21.95,12.35 C23.95,11.61 24.4,11.52 25.79,11.09 L25.79,10.73 C25.8283745,10.3048605 25.7807618,9.87634653 25.65,9.47 C25.3358926,8.61637345 24.4853366,8.08220784 23.58,8.17 C22.7008414,8.14897638 21.8773278,8.59885882 21.42,9.35 L21.3,9.58 L20.73,9.24 L20.79,9.07 C21.3944212,7.52180831 22.9435722,6.55409718 24.6,6.69 C25.8358121,6.52183442 27.0683452,7.02017342 27.84,8 C28.2658293,8.91447094 28.4417983,9.92543006 28.35,10.93 C28.35,11.93 28.35,12.99 28.3,13.86 C28.3,14.46 28.3,14.98 28.3,15.3 C28.3,16.1 28.42,16.72 29.09,16.72 C29.2222751,16.7266533 29.3528433,16.6878357 29.46,16.61 L29.64,16.45 L30.01,16.87 L29.89,17.03 C29.4033057,17.795607 28.5669448,18.2681697 27.66,18.29 C26.885923,18.3684806 26.1632407,17.8922622 25.93,17.15 C25.1904079,17.9165662 24.1649882,18.340503 23.1,18.32 L23.08,18.35 Z" id="Shape" fill="#000000" fill-rule="nonzero"></path>
                <path d="M4.36,18.27 C3.09516989,18.3006461 1.83420822,18.118094 0.63,17.73 L0.46,17.73 L0.46,16.91 C0.46,15.81 0.46,15.38 0.46,15.04 L0.46,14.47 L1.12,14.47 L1.12,14.71 C1.13191739,15.2078458 1.3116282,15.6870746 1.63,16.07 C2.35934568,16.6784239 3.29146914,16.9891317 4.24,16.94 C6.4,16.94 7.4,16.13 7.4,14.38 C7.4,12.88 6.47,12.25 5.19,11.38 L4.99,11.24 L3.64,10.34 C1.76,9.09 0.8,8.09 0.8,6.1 C0.8,5.1 1.17,1.94996423 5.91,1.94996423 C7.08156631,1.94793997 8.25159738,2.03485656 9.41,2.21 L9.62,2.21 L9.62,2.41 C9.62,2.41 9.62,3.03 9.62,3.7 C9.62,4.37 9.62,4.7 9.62,5.16 L9.62,5.52 L9,5.52 L9,5.3 C8.99808392,4.7899045 8.80133397,4.29981825 8.45,3.93 C7.71150448,3.41651207 6.81584398,3.17932135 5.92,3.26 C3.41,3.26 3.12,4.55 3.12,5.52 C3.12,6.85 3.8,7.3 5.29,8.29 L7,9.42 C8.46,10.42 9.83,11.31 9.83,13.73 C9.83,17.83 6.01,18.27 4.37,18.27 L4.36,18.27 Z" id="Path" fill="#000000" fill-rule="nonzero"></path>
                <path d="M15.58,18.34 C13.83,18.34 12.87,17.71 12.44,16.34 C12.2871791,15.5834377 12.2267373,14.8111253 12.26,14.04 C12.26,12.23 12.26,10.78 12.26,9.1 L12.26,8.31 L10.81,8.31 L10.81,7.87 L10.96,7.81 C11.4158891,7.63911304 11.8413229,7.39600799 12.22,7.09 C12.9741467,6.4461734 13.6044717,5.67012802 14.08,4.8 L14.33,4.37 L14.82,4.37 L14.82,6.91 L18.67,6.91 L18.67,8.31 L14.82,8.31 L14.82,14.25 C14.82,16.02 15.15,17.03 16.82,17.03 C17.2988555,17.025047 17.7717277,16.9229882 18.21,16.73 L18.44,16.61 L18.64,17.07 L18.54,17.18 C17.770379,18.0074713 16.6671184,18.4414205 15.54,18.36 L15.58,18.34 Z" id="Path" fill="#000000" fill-rule="nonzero"></path>
                <path d="M31,18.2 L31,17.66 L31.22,17.66 C31.5990961,17.6369838 31.9558416,17.4728808 32.22,17.2 C32.57,16.81 32.59,15.84 32.59,13.92 L32.59,10.69 C32.6888996,9.91982043 32.6137195,9.1372642 32.37,8.4 C32.1029523,8.14038229 31.7423041,7.99972949 31.37,8.01 L31.28,8.01 L31,8 L31,7.36 L31.26,7.36 L31.43,7.36 C32.1014703,7.34772775 32.7706251,7.2774665 33.43,7.15 C33.8507601,7.08399894 34.2568206,6.94526161 34.63,6.74 L34.75,6.74 L34.98,6.87 L34.98,7.76 C35.9285537,7.0636244 37.0732833,6.68554858 38.25,6.68 C40.25,6.68 41.62,7.68 42,9.36 C42.1079474,10.0210502 42.1581369,10.6902435 42.15,11.36 L42.15,14.66 C42.15,16.52 42.22,17.05 42.57,17.38 C42.826586,17.5673948 43.1326135,17.6752 43.45,17.69 L43.67,17.69 L43.67,18.22 L43.11,18.22 C42.3,18.22 41.6,18.14 40.87,18.14 C40.14,18.14 39.31,18.14 38.3,18.23 L38.04,18.23 L38.04,17.7 L38.24,17.7 C38.5856526,17.6684126 38.913509,17.532387 39.18,17.31 C39.55,16.94 39.56,16.08 39.59,15.31 C39.59,15.19 39.59,15.06 39.59,14.92 C39.59,14.5 39.59,13.61 39.59,12.92 C39.6046135,12.0590225 39.5745732,11.1978663 39.5,10.34 C39.507877,9.72330294 39.2480612,9.13346714 38.7877339,8.72300869 C38.3274067,8.31255023 37.7117658,8.12177045 37.1,8.2 C36.3654041,8.17961686 35.6371536,8.34106862 34.98,8.67 L34.98,14.61 C34.98,16.47 35.06,17 35.41,17.33 C35.6629395,17.5171383 35.9657153,17.6250239 36.28,17.64 L36.5,17.64 L36.5,18.17 L35.9,18.17 C35.12,18.17 34.44,18.1 33.73,18.1 C33.02,18.1 32.14,18.1 31.13,18.19 L30.88,18.19 L31,18.2 Z" id="Path" fill="#000000" fill-rule="nonzero"></path>
                <path d="M45.05,18.2 L45.05,17.65 L45.27,17.65 C45.6486201,17.6250969 46.0047186,17.4612915 46.27,17.19 C46.62,16.8 46.63,15.84 46.63,13.92 L46.63,8.31 L45.17,8.31 L45.17,7.68 L45.32,7.62 C45.790847,7.45016862 46.235262,7.214494 46.64,6.92 C46.6282294,5.91729429 46.6850285,4.91495699 46.81,3.92 C47.26,1.59 48.81,0.41 51.35,0.41 C52.3389239,0.389737096 53.3076228,0.691578043 54.11,1.27 L54.19,1.34 L54.19,1.58 L53.07,3.14 L52.8,3.14 L52.74,3 C52.4694994,2.18157861 51.6914356,1.63978547 50.83,1.67 C50.4135462,1.65735849 50.0072525,1.79991767 49.69,2.07 C49.2,2.56 49.12,3.29 49.12,4.73 L49.12,6.91 L51.64,6.91 L51.64,8.31 L49.16,8.31 L49.16,14.58 C49.0623652,15.4249136 49.1476271,16.2809437 49.41,17.09 C49.72,17.57 50.68,17.6 50.97,17.6 L51.2,17.6 L51.2,18.21 L50.95,18.21 C49.71,18.15 48.78,18.12 48.12,18.12 C47.28,18.12 46.32,18.12 45.31,18.21 L45.05,18.21 L45.05,18.2 Z" id="Path" fill="#000000" fill-rule="nonzero"></path>
                <path d="M58.19,7.89 C57.6126527,7.86177401 57.0445145,8.04286806 56.59,8.4 C55.68,9.16 55.23,10.55 55.23,12.52 C55.23,13.28 55.37,17.08 58.15,17.08 C58.7273473,17.108226 59.2954855,16.9271319 59.75,16.57 C60.66,15.81 61.12,14.42 61.12,12.45 C61.12,11.69 60.97,7.89 58.19,7.89 L58.19,7.89 Z M58.05,18.39 C54.6,18.39 52.54,16.24 52.54,12.64 C52.54,9.85 54.05,6.58 58.29,6.58 C61.74,6.58 63.8,8.73 63.8,12.33 C63.8,15.13 62.29,18.39 58.05,18.39 Z" id="Shape" fill="#000000" fill-rule="nonzero"></path>
                <path d="M64.89,18.2 L64.89,17.63 L65.11,17.63 C65.490242,17.6033695 65.8468505,17.4357635 66.11,17.16 C66.46,16.77 66.48,15.84 66.48,13.92 L66.48,10.69 C66.5788996,9.91982043 66.5037195,9.1372642 66.26,8.4 C65.9955674,8.13634462 65.6331131,7.99498746 65.26,8.01 L65.17,8.01 L64.95,8.01 L64.95,7.33 L65.38,7.33 C66.0516691,7.31306885 66.7207106,7.23947428 67.38,7.11 C67.7942837,7.05015393 68.2002937,6.94277939 68.59,6.79 L68.72,6.73 L68.92,6.84 L68.92,7.84 C69.6280705,7.18188804 70.5634582,6.82350194 71.53,6.84 C72.2198549,6.80484292 72.8978163,7.02964067 73.43,7.47 L73.5,7.54 L73.5,7.89 L72.5,9.64 L72.04,9.64 L71.97,9.53 C71.5745047,8.91765737 70.8771713,8.56899068 70.15,8.62 C69.7128508,8.61152936 69.2835963,8.73716481 68.92,8.98 L68.92,14.67 C68.8265429,15.5076631 68.9082725,16.3556077 69.16,17.16 C69.48,17.63 70.44,17.67 70.72,17.67 L71,17.67 L71,18.3 L70.75,18.3 C69.51,18.24 68.58,18.21 67.91,18.21 C67.07,18.21 66.12,18.21 65.11,18.3 L64.85,18.3 L64.89,18.2 Z" id="Path" fill="#000000" fill-rule="nonzero"></path>
                <path d="M80.05,8 C77.84,8 76.77,9.51 76.77,12.61 C76.77,13.87 77.13,16.79 80.41,16.79 L80.51,16.79 C81.1371043,16.7998154 81.7553252,16.6409429 82.3,16.33 L82.3,8.76 C81.6789628,8.22092376 80.8707178,7.94791657 80.05,8 L80.05,8 Z M82.65,18.4 L82.35,18.29 L82.35,17.29 C81.4374001,17.9726933 80.3296824,18.3442695 79.19,18.35 C76.09,18.35 74.09,16.2 74.09,12.87 C74.0819986,11.8384125 74.2897776,10.8165486 74.7,9.87 C75.6749411,7.79949141 77.8044108,6.52338994 80.09,6.64 C80.8323276,6.63596527 81.5730359,6.70970094 82.3,6.86 L82.3,4.45 C82.3929381,3.62355015 82.3181107,2.78684386 82.08,1.99 C81.818399,1.72203462 81.4539472,1.57989842 81.08,1.6 L81,1.6 L80.79,1.6 L80.79,1.09 L81.03,1.09 C81.8417116,1.02576463 82.6494904,0.918950908 83.45,0.77 C83.8291915,0.715508634 84.2036294,0.631928739 84.57,0.52 L84.68,0.52 L84.88,0.64 L84.88,0.75 C84.8,1.68 84.79,3.67 84.79,5.16 L84.79,14.38 C84.6984158,15.2196944 84.7731728,16.0692058 85.01,16.88 C85.2680337,17.1553189 85.6329606,17.304939 86.01,17.29 L86.32,17.29 L86.32,17.9 L86.08,17.9 C85.3459339,17.931139 84.6145188,18.0079542 83.89,18.13 C83.4987584,18.1769632 83.1133927,18.2640894 82.74,18.39 L82.63,18.39 L82.65,18.4 Z" id="Shape" fill="#000000" fill-rule="nonzero"></path>
                <g id="%PLACEHOLDER1%" transform="translate(97.000000, 1.000000)" fill="#000000" fill-rule="nonzero" font-family="SourceSansPro-Semibold, Source Sans Pro" font-size="18" font-weight="500">
                    <g id="Group">
                        <text id="%PLACEHOLDER1%">
                            <tspan x="0" y="18">%PLACEHOLDER1%</tspan>
                        </text>
                    </g>
                </g>
            </g>
        </g>
    </g>
</svg>