<?xml version="1.0" encoding="UTF-8"?>
<svg width="800px" height="137px" viewBox="0 0 450 137" version="1.1" xmlns="http://www.w3.org/2000/svg" xmlns:xlink="http://www.w3.org/1999/xlink">
    <title>stanford-line2-10</title>
    <g id="stanford-line2-10" stroke="none" stroke-width="1" fill="none" fill-rule="evenodd">
        <g id="stanford-line1-4">
            <rect id="Rectangle" x="0" y="0" width="450" height="137"></rect>
            <g id="SU_units_1Ln" transform="translate(100.000000, 55.000000)">
                <line x1="91.5" y1="25.43" x2="91.5" y2="3" id="Path" stroke="#000000" stroke-width="0.72"></line>
                <path d="M25.37,19 C24.5140578,19.2254844 23.6831517,19.5370742 22.89,19.93 C22.239116,20.2786225 21.8491496,20.9727627 21.89,21.71 C21.839894,22.1710334 22.0044152,22.6295221 22.3362149,22.9535148 C22.6680147,23.2775075 23.1302901,23.4310672 23.59,23.37 C24.2244581,23.3860638 24.8476654,23.200502 25.37,22.84 L25.37,19 L25.37,19 Z M22.66,25 C19.6,25 19.36,22.67 19.36,22 C19.3075721,20.616832 20.2082666,19.3773442 21.54,19 C23.54,18.26 23.98,18.17 25.37,17.74 L25.37,17.38 C25.4063971,16.9588589 25.3622782,16.5346389 25.24,16.13 C24.9249529,15.2724681 24.0688695,14.737416 23.16,14.83 C22.2808414,14.8089764 21.4573278,15.2588588 21,16.01 L20.88,16.23 L20.31,15.9 L20.37,15.72 C20.9830759,14.1801531 22.5277576,13.2192881 24.18,13.35 C25.4347596,13.2046176 26.6712196,13.7427067 27.42,14.76 C27.8440081,15.6750415 28.0198914,16.6855084 27.93,17.69 C27.93,18.69 27.93,19.75 27.93,20.63 C27.93,21.23 27.93,21.75 27.93,22.06 C27.93,22.86 28.06,23.48 28.72,23.48 C28.8529818,23.493226 28.9858421,23.453727 29.09,23.37 L29.28,23.21 L29.65,23.64 L29.52,23.8 C29.0333057,24.565607 28.1969448,25.0381697 27.29,25.06 C26.5131156,25.1373157 25.7894268,24.6562509 25.56,23.91 C24.7899796,24.665534 23.7370357,25.0612957 22.66,25 L22.66,25 Z" id="Shape" fill="#000000" fill-rule="nonzero"></path>
                <path d="M3.94,24.93 C2.67608204,24.9579483 1.41610603,24.7789168 0.21,24.4 L0.05,24.34 L0.05,23.52 C0.05,22.43 0.05,22 0,21.65 L0,21.08 L0.67,21.08 L0.67,21.32 C0.686462877,21.8169544 0.865638999,22.2947574 1.18,22.68 C1.9109302,23.2926095 2.84781071,23.603711 3.8,23.55 C5.95,23.55 6.95,22.74 6.95,20.99 C6.95,19.49 6.03,18.87 4.75,17.99 L4.54,17.85 L3.19,16.95 C1.31,15.7 0.35,14.71 0.35,12.71 C0.35,11.71 0.72,8.55998933 5.46,8.55998933 C6.63485155,8.55888068 7.80813576,8.64579062 8.97,8.82 L9.17,8.82 L9.17,9.02 C9.17,9.02 9.17,9.64 9.17,10.31 C9.17,10.98 9.17,11.31 9.17,11.77 L9.17,12.13 L8.59,12.13 L8.59,12 C8.58127434,11.4912573 8.3854793,11.0035496 8.04,10.63 C7.30006837,10.1196246 6.40555136,9.88273672 5.51,9.96 C3,9.96 2.7,11.25 2.7,12.22 C2.7,13.55 3.39,14 4.88,14.99 L6.59,16.08 C8.05,17.08 9.42,17.97 9.42,20.39 C9.42,24.49 5.6,24.93 3.96,24.93 L3.94,24.93 Z" id="Path" fill="#000000" fill-rule="nonzero"></path>
                <path d="M15.17,25 C13.42,25 12.45,24.38 12.02,23 C11.8667863,22.2434926 11.8063407,21.4711322 11.84,20.7 C11.84,18.89 11.84,17.44 11.84,15.77 L11.84,15 L10.4,15 L10.4,14.55 L10.54,14.49 C11.0005519,14.3225654 11.4298196,14.0792011 11.81,13.77 C12.5589752,13.1276458 13.1857114,12.3552358 13.66,11.49 L13.91,11.06 L14.41,11.06 L14.41,13.6 L18.26,13.6 L18.26,15 L14.41,15 L14.41,20.93 C14.41,22.7 14.74,23.72 16.41,23.72 C16.8869626,23.7173025 17.3577083,23.6115552 17.79,23.41 L18.02,23.29 L18.22,23.75 L18.12,23.86 C17.3512205,24.6887053 16.2473431,25.122897 15.12,25.04 L15.17,25 Z" id="Path" fill="#000000" fill-rule="nonzero"></path>
                <path d="M30.59,24.86 L30.59,24.32 L30.81,24.32 C31.190242,24.2933695 31.5468505,24.1257635 31.81,23.85 C32.16,23.46 32.18,22.49 32.18,20.57 L32.18,17.34 C32.2788996,16.5698204 32.2037195,15.7872642 31.96,15.05 C31.6955674,14.7863446 31.3331131,14.6449875 30.96,14.66 L30.86,14.66 L30.65,14.66 L30.65,14 L30.9,14 L31.08,14 C31.7514429,13.9872829 32.4205595,13.9170257 33.08,13.79 C33.4950067,13.7191725 33.8964719,13.5842262 34.27,13.39 L34.4,13.33 L34.62,13.46 L34.62,14.36 C35.567795,13.6536386 36.7179426,13.2714249 37.9,13.27 C39.9,13.27 41.26,14.27 41.64,15.95 C41.7479474,16.6110502 41.7981369,17.2802435 41.79,17.95 L41.79,21.25 C41.79,23.12 41.86,23.64 42.22,23.97 C42.4720626,24.158778 42.7753578,24.2668487 43.09,24.28 L43.31,24.28 L43.31,24.81 L42.75,24.81 C41.94,24.81 41.24,24.73 40.51,24.73 C39.78,24.73 38.95,24.73 37.94,24.82 L37.68,24.82 L37.68,24.3 L37.89,24.3 C38.2337659,24.2729478 38.559764,24.1362389 38.82,23.91 C39.19,23.55 39.21,22.68 39.24,21.91 C39.24,21.78 39.24,21.65 39.24,21.52 C39.24,21.09 39.24,20.21 39.24,19.52 C39.2546191,18.6556929 39.2245791,17.7912076 39.15,16.93 C39.157877,16.3133029 38.8980612,15.7234671 38.4377339,15.3130087 C37.9774067,14.9025502 37.3617658,14.7117705 36.75,14.79 C36.0170327,14.7652681 35.290138,14.930628 34.64,15.27 L34.64,21.2 C34.64,23.07 34.71,23.59 35.06,23.92 C35.316586,24.1073948 35.6226135,24.2152 35.94,24.23 L36.16,24.23 L36.16,24.76 L35.56,24.76 C34.77,24.76 34.09,24.68 33.38,24.68 C32.67,24.68 31.8,24.68 30.79,24.77 L30.53,24.77 L30.59,24.86 Z" id="Path" fill="#000000" fill-rule="nonzero"></path>
                <path d="M44.64,24.86 L44.64,24.31 L44.86,24.31 C45.240242,24.2833695 45.5968505,24.1157635 45.86,23.84 C46.21,23.45 46.23,22.49 46.23,20.57 L46.23,15 L44.76,15 L44.76,14.36 L44.9,14.3 C45.373796,14.1298048 45.8214643,13.8941899 46.23,13.6 C46.2073798,12.5970802 46.2642242,11.593944 46.4,10.6 C46.84,8.26 48.4,7.08 50.93,7.08 C51.9182081,7.06474258 52.8853686,7.3661042 53.69,7.94 L53.78,8.01 L53.78,8.25 L52.66,9.81 L52.39,9.81 L52.33,9.67 C52.0633575,8.8531365 51.2887896,8.31093899 50.43,8.34 C50.013247,8.32541077 49.6062691,8.46821006 49.29,8.74 C48.8,9.23 48.72,9.96 48.72,11.4 L48.72,13.59 L51.23,13.59 L51.23,15 L48.75,15 L48.75,21.27 C48.658366,22.1142812 48.7400329,22.9683818 48.99,23.78 C49.31,24.25 50.27,24.29 50.55,24.29 L50.79,24.29 L50.79,24.89 L50.54,24.89 C49.29,24.83 48.37,24.8 47.7,24.8 C46.86,24.8 45.91,24.8 44.9,24.89 L44.64,24.89 L44.64,24.86 Z" id="Path" fill="#000000" fill-rule="nonzero"></path>
                <path d="M57.78,14.55 C57.2003908,14.51704 56.6294869,14.7025838 56.18,15.07 C55.27,15.83 54.81,17.21 54.81,19.18 C54.81,19.94 54.95,23.74 57.73,23.74 C58.3078239,23.7719211 58.8772352,23.5904213 59.33,23.23 C60.24,22.47 60.7,21.08 60.7,19.11 C60.7,18.35 60.56,14.55 57.78,14.55 L57.78,14.55 Z M57.59,25.05 C54.15,25.05 52.09,22.9 52.09,19.3 C52.09,16.51 53.59,13.3 57.83,13.3 C61.28,13.3 63.34,15.45 63.34,19.04 C63.34,21.84 61.84,25.1 57.59,25.1 L57.59,25.05 Z" id="Shape" fill="#000000" fill-rule="nonzero"></path>
                <path d="M64.47,24.86 L64.47,24.29 L64.69,24.29 C65.0709947,24.2662847 65.4286147,24.0982034 65.69,23.82 C66.04,23.43 66.05,22.5 66.05,20.58 L66.05,17.35 C66.1488996,16.5798204 66.0737195,15.7972642 65.83,15.06 C65.5655674,14.7963446 65.2031131,14.6549875 64.83,14.67 L64.74,14.67 L64.52,14.67 L64.52,13.98 L64.95,13.98 C65.6214703,13.9677277 66.2906251,13.8974665 66.95,13.77 C67.3649341,13.7080941 67.7710892,13.5973246 68.16,13.44 L68.29,13.38 L68.49,13.49 L68.49,14.49 C69.2011386,13.8303705 70.1402045,13.4719484 71.11,13.49 C71.7968672,13.4544219 72.4718531,13.6794172 73,14.12 L73.08,14.19 L73.08,14.55 L72.08,16.29 L71.63,16.29 L71.56,16.18 C71.1645047,15.5676574 70.4671713,15.2189907 69.74,15.27 C69.2997969,15.2620309 68.8674971,15.3875373 68.5,15.63 L68.5,21.33 C68.4009997,22.1650022 68.4863378,23.0115566 68.75,23.81 C69.07,24.29 70.02,24.32 70.31,24.32 L70.59,24.32 L70.59,24.95 L70.34,24.95 C69.1,24.89 68.17,24.86 67.51,24.86 C66.67,24.86 65.71,24.86 64.7,24.95 L64.44,24.95 L64.47,24.86 Z" id="Path" fill="#000000" fill-rule="nonzero"></path>
                <path d="M79.59,14.63 C77.39,14.63 76.31,16.13 76.31,19.23 C76.31,20.49 76.67,23.41 79.95,23.41 L80.05,23.41 C80.6803104,23.4201405 81.301837,23.2613059 81.85,22.95 L81.85,15.38 C81.2227542,14.8458091 80.4121728,14.5768108 79.59,14.63 L79.59,14.63 Z M82.24,25 L81.94,24.9 L81.94,24 C81.02294,24.6729128 79.9174163,25.0402546 78.78,25.05 C75.68,25.05 73.6699184,22.9 73.6699184,19.57 C73.6651523,18.5377012 73.8763436,17.515808 74.29,16.57 C75.2649411,14.4994914 77.3944108,13.2233899 79.68,13.34 C80.4223002,13.3365478 81.162948,13.4102775 81.89,13.56 L81.89,11.16 C81.9826491,10.3302397 81.9078388,9.49032409 81.67,8.69 C81.4059299,8.42680081 81.042221,8.28859142 80.67,8.31 L80.59,8.31 L80.38,8.31 L80.38,7.8 L80.62,7.8 C80.67,7.8 81.98,7.69 83.04,7.49 C83.4181927,7.42578814 83.7921966,7.33896579 84.16,7.23 L84.27,7.23 L84.46,7.34 L84.46,7.45 C84.39,8.38 84.38,10.38 84.38,11.87 L84.38,21.08 C84.2867321,21.9190601 84.3580646,22.768257 84.59,23.58 C84.8485123,23.8557318 85.2121307,24.0084515 85.59,24 L85.89,24 L85.89,24.61 L85.66,24.61 C84.922645,24.6414925 84.1879247,24.7183042 83.46,24.84 C83.0687584,24.8869632 82.6833927,24.9740894 82.31,25.1 L82.21,25.15 L82.24,25 Z" id="Shape" fill="#000000" fill-rule="nonzero"></path>
                <g id="%PLACEHOLDER1%" transform="translate(95.590000, 0.000000)" fill="#000000" fill-rule="nonzero" font-family="SourceSansPro-Regular, Source Sans Pro" font-size="12" font-weight="normal" line-spacing="13">
                    <g id="Group">
                        <text id="%PLACEHOLDER1%">
                            <tspan x="0" y="12">%PLACEHOLDER1%</tspan>
                        </text>
                    </g>
                </g>
                <g id="%PLACEHOLDER2%" transform="translate(95.590000, 14.000000)" fill="#000000" fill-rule="nonzero" font-family="SourceSansPro-Regular, Source Sans Pro" font-size="12" font-weight="normal" line-spacing="13">
                    <text>
                        <tspan x="0" y="12">%PLACEHOLDER2%</tspan>
                    </text>
                </g>
            </g>
        </g>
    </g>
</svg>