<?xml version="1.0" encoding="utf-8"?>
<!-- Generator: Adobe Illustrator 25.0.0, SVG Export Plug-In . SVG Version: 6.00 Build 0)  -->
<svg version="1.1" id="Layer_1" xmlns="http://www.w3.org/2000/svg" xmlns:xlink="http://www.w3.org/1999/xlink" x="0px" y="0px"
	 viewBox="0 0 800 137" style="enable-background:new 0 0 800 137;" xml:space="preserve">
<style type="text/css">
	.st0{fill:none;}
	.st1{fill:none;stroke:#231F20;stroke-width:0.72;}
	.st2{fill:#A90533;}
	.st3{fill:#231F20;}
	.st4{font-family:'SourceSansPro-Semibold';}
	.st5{font-size:18px;}
	.st6{font-family:'SourceSansPro-Regular';}
	.st7{font-size:15px;}
</style>
<g id="stanford-line2-1">
	<g>
		<rect id="Rectangle" x="175" class="st0" width="450" height="137"/>
		<g id="SU_units_2Ln" transform="translate(75.000000, 48.000000)">
			<line id="Path" class="st1" x1="266.2" y1="18.6" x2="266.2" y2="0.6"/>
			<path id="Shape" class="st2" d="M200.5,12.6c-0.9,0.2-1.7,0.5-2.5,0.9c-0.7,0.3-1,1-1,1.8c-0.1,0.5,0.1,0.9,0.4,1.2
				s0.8,0.5,1.3,0.4c0.6,0,1.3-0.2,1.8-0.5V12.6L200.5,12.6z M197.8,18.6c-3.1,0-3.3-2.3-3.3-3c-0.1-1.4,0.8-2.6,2.2-3
				c2-0.7,2.5-0.8,3.8-1.3V11c0-0.4,0-0.9-0.1-1.3c-0.3-0.9-1.2-1.4-2.1-1.3c-0.9,0-1.7,0.4-2.2,1.2L196,9.8l-0.6-0.3l0.1-0.2
				c0.6-1.5,2.2-2.5,3.8-2.4c1.3-0.1,2.5,0.4,3.2,1.4c0.4,0.9,0.6,1.9,0.5,2.9c0,1,0,2.1,0,2.9c0,0.6,0,1.1,0,1.4
				c0,0.8,0.1,1.4,0.8,1.4c0.1,0,0.3,0,0.4-0.1l0.2-0.2l0.4,0.4l-0.1,0.2c-0.5,0.8-1.3,1.2-2.2,1.3c-0.8,0.1-1.5-0.4-1.7-1.1
				C199.9,18.3,198.9,18.7,197.8,18.6L197.8,18.6z"/>
			<path id="Path_1_" class="st2" d="M179.1,18.6c-1.3,0-2.5-0.2-3.7-0.5h-0.2v-0.8c0-1.1,0-1.5,0-1.9v-0.6h0.7V15
				c0,0.5,0.2,1,0.5,1.4c0.7,0.6,1.7,0.9,2.6,0.9c2.2,0,3.2-0.8,3.2-2.6c0-1.5-0.9-2.1-2.2-3l-0.2-0.1l-1.4-0.9
				c-1.9-1.2-2.8-2.2-2.8-4.2c0-1,0.4-4.2,5.1-4.2c1.2,0,2.3,0.1,3.5,0.3h0.2v0.2c0,0,0,0.6,0,1.3s0,1,0,1.5v0.3h-0.6V5.6
				c0-0.5-0.2-1-0.6-1.4c-0.7-0.5-1.6-0.8-2.5-0.7c-2.5,0-2.8,1.3-2.8,2.2c0,1.3,0.7,1.8,2.2,2.8l1.7,1.1c1.5,1,2.8,1.9,2.8,4.3
				C184.5,18.1,180.7,18.5,179.1,18.6L179.1,18.6z"/>
			<path id="Path_2_" class="st2" d="M190.3,18.6c-1.8,0-2.7-0.6-3.1-2c-0.1-0.8-0.2-1.6-0.1-2.3c0-1.8,0-3.2,0-4.9V8.6h-1.5V8.1
				l0.2-0.1c0.5-0.2,0.9-0.4,1.3-0.7c0.8-0.6,1.4-1.4,1.9-2.3l0.2-0.4h0.5v2.5h3.8v1.4h-3.8v5.9c0,1.8,0.3,2.8,2,2.8
				c0.5,0,1-0.1,1.4-0.3l0.2-0.1l0.2,0.5l-0.1,0.1C192.5,18.3,191.4,18.7,190.3,18.6L190.3,18.6z"/>
			<path id="Path_3_" class="st2" d="M205.7,18.5V18h0.2c0.4,0,0.7-0.2,1-0.5c0.3-0.4,0.4-1.4,0.4-3.3V11c0.1-0.8,0-1.6-0.2-2.3
				c-0.3-0.3-0.6-0.4-1-0.4h-0.1h-0.2V7.7h0.3h0.2c0.7,0,1.3-0.1,2-0.2c0.4-0.1,0.8-0.2,1.2-0.4l0.1-0.1l0.2,0.1V8
				c1-0.7,2.1-1.1,3.3-1.1c2,0,3.4,0.9,3.8,2.7c0.1,0.7,0.2,1.3,0.1,2v3.3c0,1.9,0.1,2.4,0.4,2.7c0.3,0.2,0.6,0.3,0.9,0.3h0.2v0.5
				h-0.6c-0.8,0-1.5-0.1-2.2-0.1c-0.7,0-1.6,0-2.6,0.1h-0.3V18h0.2c0.3,0,0.7-0.2,0.9-0.4c0.4-0.4,0.4-1.2,0.4-2c0-0.1,0-0.2,0-0.4
				c0-0.4,0-1.3,0-2c0-0.9,0-1.7-0.1-2.6c0-0.6-0.3-1.2-0.7-1.6s-1.1-0.6-1.7-0.5c-0.7,0-1.5,0.1-2.1,0.5v5.9c0,1.9,0.1,2.4,0.4,2.7
				c0.2,0.2,0.6,0.3,0.9,0.3h0.2v0.5h-0.6c-0.8,0-1.5-0.1-2.2-0.1c-0.7,0-1.6,0-2.6,0.1L205.7,18.5L205.7,18.5z"/>
			<path id="Path_4_" class="st2" d="M219.8,18.5v-0.5h0.2c0.4,0,0.7-0.2,1-0.5c0.4-0.4,0.4-1.3,0.4-3.3V8.6h-1.5V8l0.2-0.1
				c0.5-0.2,0.9-0.4,1.3-0.7c0-1,0-2,0.2-3c0.4-2.3,2-3.5,4.5-3.5c1,0,2,0.3,2.8,0.9l0.1,0.1v0.2l-1.1,1.6h-0.3l-0.1-0.1
				c-0.3-0.8-1.1-1.3-1.9-1.3c-0.4,0-0.8,0.1-1.1,0.4c-0.5,0.5-0.6,1.2-0.6,2.7v2.2h2.5v1.4h-2.5v6.3c-0.1,0.8,0,1.7,0.2,2.5
				c0.3,0.5,1.3,0.5,1.6,0.5h0.2v0.6h-0.2c-1.2-0.1-2.2-0.1-2.8-0.1c-0.8,0-1.8,0-2.8,0.1L219.8,18.5L219.8,18.5z"/>
			<path id="Shape_1_" class="st2" d="M232.9,8.2c-0.6,0-1.1,0.2-1.6,0.5c-0.9,0.8-1.4,2.2-1.4,4.1c0,0.8,0.1,4.6,2.9,4.6
				c0.6,0,1.1-0.2,1.6-0.5c0.9-0.8,1.4-2.2,1.4-4.1C235.8,12,235.7,8.2,232.9,8.2z M232.8,18.7c-3.4,0-5.5-2.1-5.5-5.7
				c0-2.8,1.5-6.1,5.8-6.1c3.4,0,5.5,2.2,5.5,5.8C238.5,15.4,237,18.6,232.8,18.7L232.8,18.7z"/>
			<path id="Path_5_" class="st2" d="M239.6,18.5v-0.6h0.2c0.4,0,0.7-0.2,1-0.5c0.4-0.4,0.4-1.3,0.4-3.2V11c0.1-0.8,0-1.6-0.2-2.3
				c-0.3-0.3-0.6-0.4-1-0.4h-0.1h-0.2V7.6h0.4c0.7,0,1.3-0.1,2-0.2c0.4-0.1,0.8-0.2,1.2-0.3l0.1-0.1l0.2,0.1v1
				c0.7-0.7,1.6-1.1,2.6-1.1c0.7,0,1.4,0.2,1.9,0.6l0.1,0.1v0.4l-1,1.8h-0.5l-0.1-0.1c-0.4-0.6-1.1-1-1.8-0.9
				c-0.4,0-0.9,0.1-1.2,0.4v5.7c-0.1,0.8,0,1.7,0.2,2.5c0.3,0.5,1.3,0.5,1.6,0.5h0.2v0.6h-0.2c-1.2-0.1-2.2-0.1-2.8-0.1
				c-0.8,0-1.8,0-2.8,0.1L239.6,18.5L239.6,18.5z"/>
			<path id="Shape_2_" class="st2" d="M254.8,8.2c-2.2,0-3.3,1.5-3.3,4.6c0,1.2,0.4,4.2,3.6,4.2h0.1c0.6,0,1.2-0.2,1.8-0.5V9
				C256.4,8.5,255.6,8.2,254.8,8.2L254.8,8.2z M257.4,18.6l-0.3-0.1v-1c-0.9,0.7-2,1-3.2,1.1c-3.1,0-5.1-2.1-5.1-5.5
				c0-1,0.2-2.1,0.6-3c1-2.1,3.1-3.3,5.4-3.2c0.7,0,1.5,0.1,2.2,0.2V4.7c0.1-0.8,0-1.7-0.2-2.5c-0.3-0.3-0.6-0.4-1-0.4h-0.1h-0.2
				V1.4h0.2c0.8-0.1,1.6-0.2,2.4-0.3c0.4-0.1,0.8-0.1,1.1-0.3h0.1l0.2,0.1V1c-0.1,0.9-0.1,2.9-0.1,4.4v9.2c-0.1,0.8,0,1.7,0.2,2.5
				c0.3,0.3,0.6,0.4,1,0.4h0.3v0.6h-0.2c-0.7,0-1.5,0.1-2.2,0.2C258.2,18.4,257.8,18.5,257.4,18.6L257.4,18.6L257.4,18.6z"/>
			<g id="_x25_PLACEHOLDER1_x25__1_" transform="translate(97.000000, 0.000000)">
				<g id="Group">
					<text transform="matrix(1 0 0 1 175 18)" class="st3 st4 st5">%PLACEHOLDER1%</text>
				</g>
			</g>
			<g id="_x25_PLACEHOLDER2_x25__1_" transform="translate(0.000000, 22.000000)">
				<g id="Group_1_">
					<text transform="matrix(1 0 0 1 175 15)" class="st3 st6 st7">%PLACEHOLDER2%</text>
				</g>
			</g>
		</g>
	</g>
</g>
</svg>
